<svg width="1231" height="40" viewBox="0 0 1231 40" fill="none" xmlns="http://www.w3.org/2000/svg">
<g clip-path="url(#clip0_2196_2252)">
<g clip-path="url(#clip1_2196_2252)">
<path d="M39.9956 17.5638C39.4726 13.1194 37.4347 8.92178 34.2573 5.74421C31.0799 2.56664 26.8824 0.528514 22.4379 0.00531195C22.2161 -0.0206255 21.9943 0.0492181 21.8275 0.197421C21.6608 0.345702 21.5654 0.558202 21.5654 0.781248V7.58483C21.5654 8.01623 21.9153 8.36608 22.3467 8.36608C22.7781 8.36608 23.1279 8.01623 23.1279 7.58483V1.68046C30.946 2.97312 37.0283 9.05576 38.3205 16.8739H23.1279V12.9747C23.1279 12.5433 22.7781 12.1935 22.3467 12.1935C21.9153 12.1935 21.5654 12.5433 21.5654 12.9747V17.6551C21.5654 18.0865 21.9153 18.4364 22.3467 18.4364H39.2198C39.4428 18.4364 39.6553 18.3411 39.8034 18.1743C39.9516 18.0075 40.0217 17.7854 39.9956 17.5638Z" fill="#7772F1"/>
<path d="M22.3467 9.45508C21.9153 9.45508 21.5654 9.80492 21.5654 10.2363V10.257C21.5654 10.6884 21.9153 11.0382 22.3467 11.0382C22.7782 11.0382 23.1279 10.6884 23.1279 10.257V10.2363C23.1279 9.80492 22.7781 9.45508 22.3467 9.45508Z" fill="#7772F1"/>
<path d="M18.4044 34.592C15.2513 34.5158 12.2664 33.4405 9.77262 31.4824C9.43309 31.2157 8.94207 31.2749 8.67567 31.6143C8.4091 31.9537 8.46825 32.4448 8.80762 32.7113C11.5685 34.8791 14.8739 36.0695 18.3667 36.154C18.3731 36.1541 18.3795 36.1542 18.3859 36.1542C18.8085 36.1542 19.1562 35.8168 19.1666 35.3919C19.1771 34.9606 18.8357 34.6025 18.4044 34.592Z" fill="#7772F1"/>
<path d="M21.394 35.1722C21.3428 34.7437 20.9537 34.4379 20.5257 34.489L20.5091 34.4909C20.0807 34.542 19.7748 34.9308 19.8259 35.3592C19.8732 35.7562 20.2105 36.0479 20.6007 36.0479C20.6316 36.0479 20.6628 36.0461 20.6942 36.0424L20.7108 36.0404C21.1392 35.9893 21.4451 35.6006 21.394 35.1722Z" fill="#7772F1"/>
<path d="M37.0312 20.3125C37.0174 20.3125 37.0036 20.3129 36.99 20.3136H19.6875V2.96875C19.6875 2.53734 19.3376 2.1875 18.9062 2.1875C13.8561 2.1875 9.10842 4.15414 5.53749 7.72499C1.96664 11.2959 0 16.0436 0 21.0937C0 26.1438 1.96664 30.8915 5.53749 34.4624C9.10842 38.0333 13.8561 39.9999 18.9062 39.9999C23.9563 39.9999 28.704 38.0333 32.2749 34.4624C35.8458 30.8915 37.8124 26.1438 37.8124 21.0937C37.8124 20.6622 37.4626 20.3125 37.0312 20.3125ZM18.9062 38.4374C9.34287 38.4374 1.5625 30.6571 1.5625 21.0937C1.5625 11.7924 8.92311 4.17773 18.125 3.76742V21.0948C18.125 21.355 18.2527 21.5849 18.4483 21.7268C18.4482 21.7271 18.4481 21.7273 18.448 21.7275L32.4738 31.885C29.2935 35.8753 24.3937 38.4374 18.9062 38.4374ZM33.3918 30.6206L21.317 21.8761H36.2325C36.0889 25.0953 35.0627 28.0885 33.3918 30.6206Z" fill="#7772F1"/>
</g>
<path d="M69.21 16.17C69.1367 16.3167 69.05 16.42 68.95 16.48C68.8567 16.54 68.7433 16.57 68.61 16.57C68.4767 16.57 68.3267 16.52 68.16 16.42C67.9933 16.3133 67.7967 16.1967 67.57 16.07C67.3433 15.9433 67.0767 15.83 66.77 15.73C66.47 15.6233 66.1133 15.57 65.7 15.57C65.3267 15.57 65 15.6167 64.72 15.71C64.4467 15.7967 64.2133 15.92 64.02 16.08C63.8333 16.24 63.6933 16.4333 63.6 16.66C63.5067 16.88 63.46 17.1233 63.46 17.39C63.46 17.73 63.5533 18.0133 63.74 18.24C63.9333 18.4667 64.1867 18.66 64.5 18.82C64.8133 18.98 65.17 19.1233 65.57 19.25C65.97 19.3767 66.3767 19.5133 66.79 19.66C67.21 19.8 67.62 19.9667 68.02 20.16C68.42 20.3467 68.7767 20.5867 69.09 20.88C69.4033 21.1667 69.6533 21.52 69.84 21.94C70.0333 22.36 70.13 22.87 70.13 23.47C70.13 24.1233 70.0167 24.7367 69.79 25.31C69.57 25.8767 69.2433 26.3733 68.81 26.8C68.3833 27.22 67.86 27.5533 67.24 27.8C66.62 28.04 65.91 28.16 65.11 28.16C64.65 28.16 64.1967 28.1133 63.75 28.02C63.3033 27.9333 62.8733 27.8067 62.46 27.64C62.0533 27.4733 61.67 27.2733 61.31 27.04C60.9567 26.8067 60.64 26.5467 60.36 26.26L61.14 24.97C61.2133 24.8767 61.3 24.8 61.4 24.74C61.5067 24.6733 61.6233 24.64 61.75 24.64C61.9167 24.64 62.0967 24.71 62.29 24.85C62.4833 24.9833 62.71 25.1333 62.97 25.3C63.2367 25.4667 63.5467 25.62 63.9 25.76C64.26 25.8933 64.69 25.96 65.19 25.96C65.9567 25.96 66.55 25.78 66.97 25.42C67.39 25.0533 67.6 24.53 67.6 23.85C67.6 23.47 67.5033 23.16 67.31 22.92C67.1233 22.68 66.8733 22.48 66.56 22.32C66.2467 22.1533 65.89 22.0133 65.49 21.9C65.09 21.7867 64.6833 21.6633 64.27 21.53C63.8567 21.3967 63.45 21.2367 63.05 21.05C62.65 20.8633 62.2933 20.62 61.98 20.32C61.6667 20.02 61.4133 19.6467 61.22 19.2C61.0333 18.7467 60.94 18.19 60.94 17.53C60.94 17.0033 61.0433 16.49 61.25 15.99C61.4633 15.49 61.77 15.0467 62.17 14.66C62.5767 14.2733 63.0733 13.9633 63.66 13.73C64.2467 13.4967 64.9167 13.38 65.67 13.38C66.5233 13.38 67.31 13.5133 68.03 13.78C68.75 14.0467 69.3633 14.42 69.87 14.9L69.21 16.17ZM81.3027 13.54V15.68H74.8927V19.69H79.9427V21.76H74.8927V25.85H81.3027V28H72.1827V13.54H81.3027ZM97.498 20.77C97.498 21.83 97.3213 22.8133 96.968 23.72C96.6146 24.62 96.118 25.4 95.478 26.06C94.838 26.72 94.068 27.2367 93.168 27.61C92.268 27.9767 91.2713 28.16 90.178 28.16C89.0846 28.16 88.0846 27.9767 87.178 27.61C86.278 27.2367 85.5046 26.72 84.858 26.06C84.218 25.4 83.7213 24.62 83.368 23.72C83.0146 22.8133 82.838 21.83 82.838 20.77C82.838 19.71 83.0146 18.73 83.368 17.83C83.7213 16.9233 84.218 16.14 84.858 15.48C85.5046 14.82 86.278 14.3067 87.178 13.94C88.0846 13.5667 89.0846 13.38 90.178 13.38C91.2713 13.38 92.268 13.5667 93.168 13.94C94.068 14.3133 94.838 14.83 95.478 15.49C96.118 16.1433 96.6146 16.9233 96.968 17.83C97.3213 18.73 97.498 19.71 97.498 20.77ZM94.738 20.77C94.738 19.9767 94.6313 19.2667 94.418 18.64C94.2113 18.0067 93.9113 17.47 93.518 17.03C93.1246 16.59 92.6446 16.2533 92.078 16.02C91.518 15.7867 90.8846 15.67 90.178 15.67C89.4713 15.67 88.8346 15.7867 88.268 16.02C87.7013 16.2533 87.218 16.59 86.818 17.03C86.4246 17.47 86.1213 18.0067 85.908 18.64C85.6946 19.2667 85.588 19.9767 85.588 20.77C85.588 21.5633 85.6946 22.2767 85.908 22.91C86.1213 23.5367 86.4246 24.07 86.818 24.51C87.218 24.9433 87.7013 25.2767 88.268 25.51C88.8346 25.7433 89.4713 25.86 90.178 25.86C90.8846 25.86 91.518 25.7433 92.078 25.51C92.6446 25.2767 93.1246 24.9433 93.518 24.51C93.9113 24.07 94.2113 23.5367 94.418 22.91C94.6313 22.2767 94.738 21.5633 94.738 20.77ZM113.431 24.59C113.578 24.59 113.705 24.6467 113.811 24.76L114.871 25.91C114.285 26.6367 113.561 27.1933 112.701 27.58C111.848 27.9667 110.821 28.16 109.621 28.16C108.548 28.16 107.581 27.9767 106.721 27.61C105.868 27.2433 105.138 26.7333 104.531 26.08C103.925 25.4267 103.458 24.6467 103.131 23.74C102.811 22.8333 102.651 21.8433 102.651 20.77C102.651 19.6833 102.831 18.69 103.191 17.79C103.551 16.8833 104.058 16.1033 104.711 15.45C105.365 14.7967 106.145 14.29 107.051 13.93C107.965 13.5633 108.971 13.38 110.071 13.38C111.145 13.38 112.081 13.5533 112.881 13.9C113.688 14.24 114.378 14.6933 114.951 15.26L114.051 16.51C113.998 16.59 113.928 16.66 113.841 16.72C113.761 16.78 113.648 16.81 113.501 16.81C113.348 16.81 113.191 16.75 113.031 16.63C112.871 16.51 112.668 16.38 112.421 16.24C112.175 16.1 111.861 15.97 111.481 15.85C111.108 15.73 110.631 15.67 110.051 15.67C109.371 15.67 108.745 15.79 108.171 16.03C107.605 16.2633 107.115 16.6 106.701 17.04C106.295 17.48 105.975 18.0167 105.741 18.65C105.515 19.2767 105.401 19.9833 105.401 20.77C105.401 21.5833 105.515 22.3067 105.741 22.94C105.975 23.5733 106.288 24.1067 106.681 24.54C107.075 24.9733 107.538 25.3067 108.071 25.54C108.605 25.7667 109.178 25.88 109.791 25.88C110.158 25.88 110.488 25.86 110.781 25.82C111.081 25.78 111.355 25.7167 111.601 25.63C111.855 25.5433 112.091 25.4333 112.311 25.3C112.538 25.16 112.761 24.99 112.981 24.79C113.048 24.73 113.118 24.6833 113.191 24.65C113.265 24.61 113.345 24.59 113.431 24.59ZM121.149 17.58C121.916 17.58 122.609 17.7033 123.229 17.95C123.856 18.1967 124.389 18.5467 124.829 19C125.269 19.4533 125.609 20.0067 125.849 20.66C126.089 21.3133 126.209 22.0433 126.209 22.85C126.209 23.6633 126.089 24.3967 125.849 25.05C125.609 25.7033 125.269 26.26 124.829 26.72C124.389 27.18 123.856 27.5333 123.229 27.78C122.609 28.0267 121.916 28.15 121.149 28.15C120.383 28.15 119.686 28.0267 119.059 27.78C118.433 27.5333 117.896 27.18 117.449 26.72C117.009 26.26 116.666 25.7033 116.419 25.05C116.179 24.3967 116.059 23.6633 116.059 22.85C116.059 22.0433 116.179 21.3133 116.419 20.66C116.666 20.0067 117.009 19.4533 117.449 19C117.896 18.5467 118.433 18.1967 119.059 17.95C119.686 17.7033 120.383 17.58 121.149 17.58ZM121.149 26.25C122.003 26.25 122.633 25.9633 123.039 25.39C123.453 24.8167 123.659 23.9767 123.659 22.87C123.659 21.7633 123.453 20.92 123.039 20.34C122.633 19.76 122.003 19.47 121.149 19.47C120.283 19.47 119.643 19.7633 119.229 20.35C118.816 20.93 118.609 21.77 118.609 22.87C118.609 23.97 118.816 24.81 119.229 25.39C119.643 25.9633 120.283 26.25 121.149 26.25ZM128.136 28V17.74H129.646C129.966 17.74 130.176 17.89 130.276 18.19L130.446 19C130.653 18.7867 130.87 18.5933 131.096 18.42C131.33 18.2467 131.573 18.0967 131.826 17.97C132.086 17.8433 132.363 17.7467 132.656 17.68C132.95 17.6133 133.27 17.58 133.616 17.58C134.176 17.58 134.673 17.6767 135.106 17.87C135.54 18.0567 135.9 18.3233 136.186 18.67C136.48 19.01 136.7 19.42 136.846 19.9C137 20.3733 137.076 20.8967 137.076 21.47V28H134.606V21.47C134.606 20.8433 134.46 20.36 134.166 20.02C133.88 19.6733 133.446 19.5 132.866 19.5C132.44 19.5 132.04 19.5967 131.666 19.79C131.293 19.9833 130.94 20.2467 130.606 20.58V28H128.136ZM142.874 28.16C141.987 28.16 141.304 27.91 140.824 27.41C140.344 26.9033 140.104 26.2067 140.104 25.32V19.59H139.064C138.93 19.59 138.814 19.5467 138.714 19.46C138.62 19.3733 138.574 19.2433 138.574 19.07V18.09L140.224 17.82L140.744 15.02C140.77 14.8867 140.83 14.7833 140.924 14.71C141.024 14.6367 141.147 14.6 141.294 14.6H142.574V17.83H145.274V19.59H142.574V25.15C142.574 25.47 142.654 25.72 142.814 25.9C142.974 26.08 143.187 26.17 143.454 26.17C143.607 26.17 143.734 26.1533 143.834 26.12C143.94 26.08 144.03 26.04 144.104 26C144.184 25.96 144.254 25.9233 144.314 25.89C144.374 25.85 144.434 25.83 144.494 25.83C144.567 25.83 144.627 25.85 144.674 25.89C144.72 25.9233 144.77 25.9767 144.824 26.05L145.564 27.25C145.204 27.55 144.79 27.7767 144.324 27.93C143.857 28.0833 143.374 28.16 142.874 28.16ZM151.478 17.58C152.125 17.58 152.718 17.6833 153.258 17.89C153.805 18.0967 154.275 18.4 154.668 18.8C155.061 19.1933 155.368 19.68 155.588 20.26C155.808 20.8333 155.918 21.49 155.918 22.23C155.918 22.4167 155.908 22.5733 155.888 22.7C155.875 22.82 155.845 22.9167 155.798 22.99C155.758 23.0567 155.701 23.1067 155.628 23.14C155.555 23.1667 155.461 23.18 155.348 23.18H149.008C149.081 24.2333 149.365 25.0067 149.858 25.5C150.351 25.9933 151.005 26.24 151.818 26.24C152.218 26.24 152.561 26.1933 152.848 26.1C153.141 26.0067 153.395 25.9033 153.608 25.79C153.828 25.6767 154.018 25.5733 154.178 25.48C154.345 25.3867 154.505 25.34 154.658 25.34C154.758 25.34 154.845 25.36 154.918 25.4C154.991 25.44 155.055 25.4967 155.108 25.57L155.828 26.47C155.555 26.79 155.248 27.06 154.908 27.28C154.568 27.4933 154.211 27.6667 153.838 27.8C153.471 27.9267 153.095 28.0167 152.708 28.07C152.328 28.1233 151.958 28.15 151.598 28.15C150.885 28.15 150.221 28.0333 149.608 27.8C148.995 27.56 148.461 27.21 148.008 26.75C147.555 26.2833 147.198 25.71 146.938 25.03C146.678 24.3433 146.548 23.55 146.548 22.65C146.548 21.95 146.661 21.2933 146.888 20.68C147.115 20.06 147.438 19.5233 147.858 19.07C148.285 18.61 148.801 18.2467 149.408 17.98C150.021 17.7133 150.711 17.58 151.478 17.58ZM151.528 19.35C150.808 19.35 150.245 19.5533 149.838 19.96C149.431 20.3667 149.171 20.9433 149.058 21.69H153.698C153.698 21.37 153.655 21.07 153.568 20.79C153.481 20.5033 153.348 20.2533 153.168 20.04C152.988 19.8267 152.761 19.66 152.488 19.54C152.215 19.4133 151.895 19.35 151.528 19.35ZM157.922 28V17.74H159.432C159.752 17.74 159.962 17.89 160.062 18.19L160.232 19C160.438 18.7867 160.655 18.5933 160.882 18.42C161.115 18.2467 161.358 18.0967 161.612 17.97C161.872 17.8433 162.148 17.7467 162.442 17.68C162.735 17.6133 163.055 17.58 163.402 17.58C163.962 17.58 164.458 17.6767 164.892 17.87C165.325 18.0567 165.685 18.3233 165.972 18.67C166.265 19.01 166.485 19.42 166.632 19.9C166.785 20.3733 166.862 20.8967 166.862 21.47V28H164.392V21.47C164.392 20.8433 164.245 20.36 163.952 20.02C163.665 19.6733 163.232 19.5 162.652 19.5C162.225 19.5 161.825 19.5967 161.452 19.79C161.078 19.9833 160.725 20.2467 160.392 20.58V28H157.922ZM172.659 28.16C171.772 28.16 171.089 27.91 170.609 27.41C170.129 26.9033 169.889 26.2067 169.889 25.32V19.59H168.849C168.715 19.59 168.599 19.5467 168.499 19.46C168.405 19.3733 168.359 19.2433 168.359 19.07V18.09L170.009 17.82L170.529 15.02C170.555 14.8867 170.615 14.7833 170.709 14.71C170.809 14.6367 170.932 14.6 171.079 14.6H172.359V17.83H175.059V19.59H172.359V25.15C172.359 25.47 172.439 25.72 172.599 25.9C172.759 26.08 172.972 26.17 173.239 26.17C173.392 26.17 173.519 26.1533 173.619 26.12C173.725 26.08 173.815 26.04 173.889 26C173.969 25.96 174.039 25.9233 174.099 25.89C174.159 25.85 174.219 25.83 174.279 25.83C174.352 25.83 174.412 25.85 174.459 25.89C174.505 25.9233 174.555 25.9767 174.609 26.05L175.349 27.25C174.989 27.55 174.575 27.7767 174.109 27.93C173.642 28.0833 173.159 28.16 172.659 28.16ZM188.78 16.17C188.707 16.3167 188.62 16.42 188.52 16.48C188.427 16.54 188.314 16.57 188.18 16.57C188.047 16.57 187.897 16.52 187.73 16.42C187.564 16.3133 187.367 16.1967 187.14 16.07C186.914 15.9433 186.647 15.83 186.34 15.73C186.04 15.6233 185.684 15.57 185.27 15.57C184.897 15.57 184.57 15.6167 184.29 15.71C184.017 15.7967 183.784 15.92 183.59 16.08C183.404 16.24 183.264 16.4333 183.17 16.66C183.077 16.88 183.03 17.1233 183.03 17.39C183.03 17.73 183.124 18.0133 183.31 18.24C183.504 18.4667 183.757 18.66 184.07 18.82C184.384 18.98 184.74 19.1233 185.14 19.25C185.54 19.3767 185.947 19.5133 186.36 19.66C186.78 19.8 187.19 19.9667 187.59 20.16C187.99 20.3467 188.347 20.5867 188.66 20.88C188.974 21.1667 189.224 21.52 189.41 21.94C189.604 22.36 189.7 22.87 189.7 23.47C189.7 24.1233 189.587 24.7367 189.36 25.31C189.14 25.8767 188.814 26.3733 188.38 26.8C187.954 27.22 187.43 27.5533 186.81 27.8C186.19 28.04 185.48 28.16 184.68 28.16C184.22 28.16 183.767 28.1133 183.32 28.02C182.874 27.9333 182.444 27.8067 182.03 27.64C181.624 27.4733 181.24 27.2733 180.88 27.04C180.527 26.8067 180.21 26.5467 179.93 26.26L180.71 24.97C180.784 24.8767 180.87 24.8 180.97 24.74C181.077 24.6733 181.194 24.64 181.32 24.64C181.487 24.64 181.667 24.71 181.86 24.85C182.054 24.9833 182.28 25.1333 182.54 25.3C182.807 25.4667 183.117 25.62 183.47 25.76C183.83 25.8933 184.26 25.96 184.76 25.96C185.527 25.96 186.12 25.78 186.54 25.42C186.96 25.0533 187.17 24.53 187.17 23.85C187.17 23.47 187.074 23.16 186.88 22.92C186.694 22.68 186.444 22.48 186.13 22.32C185.817 22.1533 185.46 22.0133 185.06 21.9C184.66 21.7867 184.254 21.6633 183.84 21.53C183.427 21.3967 183.02 21.2367 182.62 21.05C182.22 20.8633 181.864 20.62 181.55 20.32C181.237 20.02 180.984 19.6467 180.79 19.2C180.604 18.7467 180.51 18.19 180.51 17.53C180.51 17.0033 180.614 16.49 180.82 15.99C181.034 15.49 181.34 15.0467 181.74 14.66C182.147 14.2733 182.644 13.9633 183.23 13.73C183.817 13.4967 184.487 13.38 185.24 13.38C186.094 13.38 186.88 13.5133 187.6 13.78C188.32 14.0467 188.934 14.42 189.44 14.9L188.78 16.17ZM194.983 28.16C194.096 28.16 193.413 27.91 192.933 27.41C192.453 26.9033 192.213 26.2067 192.213 25.32V19.59H191.173C191.04 19.59 190.923 19.5467 190.823 19.46C190.73 19.3733 190.683 19.2433 190.683 19.07V18.09L192.333 17.82L192.853 15.02C192.88 14.8867 192.94 14.7833 193.033 14.71C193.133 14.6367 193.256 14.6 193.403 14.6H194.683V17.83H197.383V19.59H194.683V25.15C194.683 25.47 194.763 25.72 194.923 25.9C195.083 26.08 195.296 26.17 195.563 26.17C195.716 26.17 195.843 26.1533 195.943 26.12C196.05 26.08 196.14 26.04 196.213 26C196.293 25.96 196.363 25.9233 196.423 25.89C196.483 25.85 196.543 25.83 196.603 25.83C196.676 25.83 196.736 25.85 196.783 25.89C196.83 25.9233 196.88 25.9767 196.933 26.05L197.673 27.25C197.313 27.55 196.9 27.7767 196.433 27.93C195.966 28.0833 195.483 28.16 194.983 28.16ZM199.347 28V17.74H200.797C201.051 17.74 201.227 17.7867 201.327 17.88C201.427 17.9733 201.494 18.1333 201.527 18.36L201.677 19.6C202.044 18.9667 202.474 18.4667 202.967 18.1C203.461 17.7333 204.014 17.55 204.627 17.55C205.134 17.55 205.554 17.6667 205.887 17.9L205.567 19.75C205.547 19.87 205.504 19.9567 205.437 20.01C205.371 20.0567 205.281 20.08 205.167 20.08C205.067 20.08 204.931 20.0567 204.757 20.01C204.584 19.9633 204.354 19.94 204.067 19.94C203.554 19.94 203.114 20.0833 202.747 20.37C202.381 20.65 202.071 21.0633 201.817 21.61V28H199.347ZM215.258 28H214.148C213.915 28 213.732 27.9667 213.598 27.9C213.465 27.8267 213.365 27.6833 213.298 27.47L213.078 26.74C212.818 26.9733 212.562 27.18 212.308 27.36C212.062 27.5333 211.805 27.68 211.538 27.8C211.272 27.92 210.988 28.01 210.688 28.07C210.388 28.13 210.055 28.16 209.688 28.16C209.255 28.16 208.855 28.1033 208.488 27.99C208.122 27.87 207.805 27.6933 207.538 27.46C207.278 27.2267 207.075 26.9367 206.928 26.59C206.782 26.2433 206.708 25.84 206.708 25.38C206.708 24.9933 206.808 24.6133 207.008 24.24C207.215 23.86 207.555 23.52 208.028 23.22C208.502 22.9133 209.132 22.66 209.918 22.46C210.705 22.26 211.682 22.1467 212.848 22.12V21.52C212.848 20.8333 212.702 20.3267 212.408 20C212.122 19.6667 211.702 19.5 211.148 19.5C210.748 19.5 210.415 19.5467 210.148 19.64C209.882 19.7333 209.648 19.84 209.448 19.96C209.255 20.0733 209.075 20.1767 208.908 20.27C208.742 20.3633 208.558 20.41 208.358 20.41C208.192 20.41 208.048 20.3667 207.928 20.28C207.808 20.1933 207.712 20.0867 207.638 19.96L207.188 19.17C208.368 18.09 209.792 17.55 211.458 17.55C212.058 17.55 212.592 17.65 213.058 17.85C213.532 18.0433 213.932 18.3167 214.258 18.67C214.585 19.0167 214.832 19.4333 214.998 19.92C215.172 20.4067 215.258 20.94 215.258 21.52V28ZM210.458 26.46C210.712 26.46 210.945 26.4367 211.158 26.39C211.372 26.3433 211.572 26.2733 211.758 26.18C211.952 26.0867 212.135 25.9733 212.308 25.84C212.488 25.7 212.668 25.5367 212.848 25.35V23.62C212.128 23.6533 211.525 23.7167 211.038 23.81C210.558 23.8967 210.172 24.01 209.878 24.15C209.585 24.29 209.375 24.4533 209.248 24.64C209.128 24.8267 209.068 25.03 209.068 25.25C209.068 25.6833 209.195 25.9933 209.448 26.18C209.708 26.3667 210.045 26.46 210.458 26.46ZM221.057 28.16C220.171 28.16 219.487 27.91 219.007 27.41C218.527 26.9033 218.287 26.2067 218.287 25.32V19.59H217.247C217.114 19.59 216.997 19.5467 216.897 19.46C216.804 19.3733 216.757 19.2433 216.757 19.07V18.09L218.407 17.82L218.927 15.02C218.954 14.8867 219.014 14.7833 219.107 14.71C219.207 14.6367 219.331 14.6 219.477 14.6H220.757V17.83H223.457V19.59H220.757V25.15C220.757 25.47 220.837 25.72 220.997 25.9C221.157 26.08 221.371 26.17 221.637 26.17C221.791 26.17 221.917 26.1533 222.017 26.12C222.124 26.08 222.214 26.04 222.287 26C222.367 25.96 222.437 25.9233 222.497 25.89C222.557 25.85 222.617 25.83 222.677 25.83C222.751 25.83 222.811 25.85 222.857 25.89C222.904 25.9233 222.954 25.9767 223.007 26.05L223.747 27.25C223.387 27.55 222.974 27.7767 222.507 27.93C222.041 28.0833 221.557 28.16 221.057 28.16ZM229.662 17.58C230.308 17.58 230.902 17.6833 231.442 17.89C231.988 18.0967 232.458 18.4 232.852 18.8C233.245 19.1933 233.552 19.68 233.772 20.26C233.992 20.8333 234.102 21.49 234.102 22.23C234.102 22.4167 234.092 22.5733 234.072 22.7C234.058 22.82 234.028 22.9167 233.982 22.99C233.942 23.0567 233.885 23.1067 233.812 23.14C233.738 23.1667 233.645 23.18 233.532 23.18H227.192C227.265 24.2333 227.548 25.0067 228.042 25.5C228.535 25.9933 229.188 26.24 230.002 26.24C230.402 26.24 230.745 26.1933 231.032 26.1C231.325 26.0067 231.578 25.9033 231.792 25.79C232.012 25.6767 232.202 25.5733 232.362 25.48C232.528 25.3867 232.688 25.34 232.842 25.34C232.942 25.34 233.028 25.36 233.102 25.4C233.175 25.44 233.238 25.4967 233.292 25.57L234.012 26.47C233.738 26.79 233.432 27.06 233.092 27.28C232.752 27.4933 232.395 27.6667 232.022 27.8C231.655 27.9267 231.278 28.0167 230.892 28.07C230.512 28.1233 230.142 28.15 229.782 28.15C229.068 28.15 228.405 28.0333 227.792 27.8C227.178 27.56 226.645 27.21 226.192 26.75C225.738 26.2833 225.382 25.71 225.122 25.03C224.862 24.3433 224.732 23.55 224.732 22.65C224.732 21.95 224.845 21.2933 225.072 20.68C225.298 20.06 225.622 19.5233 226.042 19.07C226.468 18.61 226.985 18.2467 227.592 17.98C228.205 17.7133 228.895 17.58 229.662 17.58ZM229.712 19.35C228.992 19.35 228.428 19.5533 228.022 19.96C227.615 20.3667 227.355 20.9433 227.242 21.69H231.882C231.882 21.37 231.838 21.07 231.752 20.79C231.665 20.5033 231.532 20.2533 231.352 20.04C231.172 19.8267 230.945 19.66 230.672 19.54C230.398 19.4133 230.078 19.35 229.712 19.35ZM239.655 17.56C240.095 17.56 240.508 17.6067 240.895 17.7C241.282 17.7867 241.635 17.9167 241.955 18.09H244.905V19.01C244.905 19.1633 244.865 19.2833 244.785 19.37C244.705 19.4567 244.568 19.5167 244.375 19.55L243.455 19.72C243.522 19.8933 243.572 20.0767 243.605 20.27C243.645 20.4633 243.665 20.6667 243.665 20.88C243.665 21.3867 243.562 21.8467 243.355 22.26C243.155 22.6667 242.875 23.0133 242.515 23.3C242.162 23.5867 241.738 23.81 241.245 23.97C240.758 24.1233 240.228 24.2 239.655 24.2C239.268 24.2 238.892 24.1633 238.525 24.09C238.205 24.2833 238.045 24.5 238.045 24.74C238.045 24.9467 238.138 25.1 238.325 25.2C238.518 25.2933 238.768 25.36 239.075 25.4C239.388 25.44 239.742 25.4667 240.135 25.48C240.528 25.4867 240.932 25.5067 241.345 25.54C241.758 25.5733 242.162 25.6333 242.555 25.72C242.948 25.8 243.298 25.93 243.605 26.11C243.918 26.29 244.168 26.5367 244.355 26.85C244.548 27.1567 244.645 27.5533 244.645 28.04C244.645 28.4933 244.532 28.9333 244.305 29.36C244.085 29.7867 243.762 30.1667 243.335 30.5C242.915 30.8333 242.398 31.1 241.785 31.3C241.172 31.5067 240.472 31.61 239.685 31.61C238.905 31.61 238.228 31.5333 237.655 31.38C237.082 31.2333 236.605 31.0333 236.225 30.78C235.852 30.5333 235.572 30.2467 235.385 29.92C235.198 29.5933 235.105 29.2533 235.105 28.9C235.105 28.42 235.252 28.0167 235.545 27.69C235.838 27.3633 236.245 27.1033 236.765 26.91C236.512 26.77 236.308 26.5833 236.155 26.35C236.002 26.1167 235.925 25.8133 235.925 25.44C235.925 25.2867 235.952 25.13 236.005 24.97C236.058 24.8033 236.138 24.64 236.245 24.48C236.358 24.32 236.498 24.17 236.665 24.03C236.832 23.8833 237.028 23.7533 237.255 23.64C236.735 23.36 236.325 22.9867 236.025 22.52C235.732 22.0533 235.585 21.5067 235.585 20.88C235.585 20.3733 235.685 19.9167 235.885 19.51C236.092 19.0967 236.375 18.7467 236.735 18.46C237.102 18.1667 237.532 17.9433 238.025 17.79C238.525 17.6367 239.068 17.56 239.655 17.56ZM242.365 28.46C242.365 28.26 242.305 28.0967 242.185 27.97C242.065 27.8433 241.902 27.7467 241.695 27.68C241.488 27.6067 241.245 27.5533 240.965 27.52C240.692 27.4867 240.398 27.4633 240.085 27.45C239.778 27.43 239.458 27.4133 239.125 27.4C238.798 27.38 238.482 27.35 238.175 27.31C237.895 27.4633 237.668 27.6467 237.495 27.86C237.328 28.0667 237.245 28.3067 237.245 28.58C237.245 28.76 237.288 28.9267 237.375 29.08C237.468 29.24 237.612 29.3767 237.805 29.49C238.005 29.6033 238.262 29.69 238.575 29.75C238.888 29.8167 239.272 29.85 239.725 29.85C240.185 29.85 240.582 29.8133 240.915 29.74C241.248 29.6733 241.522 29.5767 241.735 29.45C241.955 29.33 242.115 29.1833 242.215 29.01C242.315 28.8433 242.365 28.66 242.365 28.46ZM239.655 22.62C239.962 22.62 240.228 22.58 240.455 22.5C240.682 22.4133 240.868 22.2967 241.015 22.15C241.168 22.0033 241.282 21.8267 241.355 21.62C241.435 21.4133 241.475 21.1867 241.475 20.94C241.475 20.4333 241.322 20.0333 241.015 19.74C240.715 19.44 240.262 19.29 239.655 19.29C239.048 19.29 238.592 19.44 238.285 19.74C237.985 20.0333 237.835 20.4333 237.835 20.94C237.835 21.18 237.872 21.4033 237.945 21.61C238.025 21.8167 238.138 21.9967 238.285 22.15C238.438 22.2967 238.628 22.4133 238.855 22.5C239.088 22.58 239.355 22.62 239.655 22.62ZM250.097 30.82C250.023 30.9933 249.927 31.1233 249.807 31.21C249.693 31.3033 249.517 31.35 249.277 31.35H247.437L249.357 27.24L245.207 17.74H247.367C247.567 17.74 247.72 17.7867 247.827 17.88C247.933 17.9733 248.013 18.08 248.067 18.2L250.257 23.52C250.33 23.6933 250.393 23.8733 250.447 24.06C250.5 24.2467 250.547 24.4333 250.587 24.62C250.64 24.4267 250.697 24.24 250.757 24.06C250.823 23.88 250.893 23.6967 250.967 23.51L253.027 18.2C253.08 18.0667 253.167 17.9567 253.287 17.87C253.413 17.7833 253.553 17.74 253.707 17.74H255.687L250.097 30.82Z" fill="white"/>
</g>
<line opacity="0.4" x1="350.5" y1="-2.18557e-08" x2="350.5" y2="40" stroke="url(#paint0_linear_2196_2252)"/>
<g clip-path="url(#clip2_2196_2252)">
<path d="M474.781 18.835C474.35 18.835 474 19.1848 474 19.6162V19.7334C474 20.1649 474.35 20.5147 474.781 20.5147C475.213 20.5147 475.562 20.1648 475.562 19.7334V19.6162C475.562 19.1847 475.213 18.835 474.781 18.835Z" fill="#7772F1"/>
<path d="M479.781 14.6777V6.72559C479.781 5.13168 478.485 3.83496 476.891 3.83496C476.222 3.83496 475.605 4.0641 475.115 4.44715L466.755 7.57848C466.351 7.7298 466.146 8.18004 466.297 8.5841C466.415 8.89793 466.713 9.09152 467.029 9.09152C467.12 9.09152 467.213 9.07551 467.303 9.0416L474.007 6.53035C474.003 6.59488 474 6.6598 474 6.72543V15.7879C474 16.2193 474.35 16.5692 474.781 16.5692C475.213 16.5692 475.562 16.2193 475.562 15.7879V6.72543C475.562 5.99309 476.158 5.3973 476.891 5.3973C477.623 5.3973 478.219 5.99309 478.219 6.72543V32.5067C478.219 33.239 477.623 33.8348 476.891 33.8348C476.158 33.8348 475.562 33.239 475.562 32.5067V23.0536C475.562 22.6221 475.213 22.2723 474.781 22.2723C474.35 22.2723 474 22.6221 474 23.0536V32.5067C474 32.5723 474.003 32.6372 474.007 32.7018L454.312 25.3246V13.9079L462.243 10.9375C462.647 10.7861 462.851 10.3359 462.7 9.93184C462.549 9.52777 462.098 9.32254 461.694 9.47434L453.39 12.585H448.609C446.068 12.585 444 14.6528 444 17.1944V22.0382C444 24.5299 445.988 26.5647 448.461 26.6438L451.903 35.6631C452.019 35.9658 452.309 36.1658 452.633 36.1658H457.164C457.421 36.1658 457.662 36.0394 457.808 35.8277C457.953 35.616 457.986 35.3461 457.894 35.1061L454.879 27.2053L475.115 34.7854C475.605 35.1685 476.222 35.3976 476.891 35.3976C478.485 35.3976 479.781 34.1009 479.781 32.507V24.5548C482.168 24.1785 484 22.1075 484 19.6162C484 17.125 482.168 15.0539 479.781 14.6777ZM448.609 25.085C446.929 25.085 445.562 23.7182 445.562 22.0381V17.1943C445.562 15.5143 446.929 14.1475 448.609 14.1475H452.75V25.085H449H448.609ZM456.03 34.6032H453.171V34.6032L450.134 26.6475H452.993L456.03 34.6032ZM479.781 22.963V16.2693C481.301 16.6241 482.438 17.9895 482.438 19.6161C482.438 21.2428 481.301 22.6082 479.781 22.963Z" fill="#7772F1"/>
<path d="M465.071 8.69773C464.926 8.55242 464.724 8.46875 464.519 8.46875C464.313 8.46875 464.112 8.55234 463.966 8.69773C463.821 8.84297 463.737 9.04453 463.737 9.25C463.737 9.45555 463.821 9.65711 463.966 9.80234C464.112 9.94766 464.313 10.0312 464.519 10.0312C464.724 10.0312 464.926 9.94773 465.071 9.80234C465.216 9.65711 465.3 9.45555 465.3 9.25C465.3 9.04453 465.216 8.84297 465.071 8.69773Z" fill="#7772F1"/>
<path d="M449.709 17.1625C449.563 17.0164 449.362 16.9336 449.156 16.9336C448.951 16.9336 448.749 17.0164 448.604 17.1625C448.459 17.3078 448.375 17.5094 448.375 17.7148C448.375 17.9203 448.459 18.1211 448.604 18.2672C448.749 18.4125 448.951 18.4961 449.156 18.4961C449.362 18.4961 449.563 18.4125 449.709 18.2672C449.854 18.1219 449.938 17.9203 449.938 17.7148C449.938 17.5086 449.854 17.3078 449.709 17.1625Z" fill="#7772F1"/>
<path d="M450.562 21.4131H448.062C447.631 21.4131 447.281 21.7629 447.281 22.1943C447.281 22.6257 447.631 22.9756 448.062 22.9756H450.562C450.994 22.9756 451.344 22.6258 451.344 22.1943C451.344 21.7629 450.994 21.4131 450.562 21.4131Z" fill="#7772F1"/>
<path d="M515.4 24.59C515.547 24.59 515.673 24.6467 515.78 24.76L516.84 25.91C516.253 26.6367 515.53 27.1933 514.67 27.58C513.817 27.9667 512.79 28.16 511.59 28.16C510.517 28.16 509.55 27.9767 508.69 27.61C507.837 27.2433 507.107 26.7333 506.5 26.08C505.893 25.4267 505.427 24.6467 505.1 23.74C504.78 22.8333 504.62 21.8433 504.62 20.77C504.62 19.6833 504.8 18.69 505.16 17.79C505.52 16.8833 506.027 16.1033 506.68 15.45C507.333 14.7967 508.113 14.29 509.02 13.93C509.933 13.5633 510.94 13.38 512.04 13.38C513.113 13.38 514.05 13.5533 514.85 13.9C515.657 14.24 516.347 14.6933 516.92 15.26L516.02 16.51C515.967 16.59 515.897 16.66 515.81 16.72C515.73 16.78 515.617 16.81 515.47 16.81C515.317 16.81 515.16 16.75 515 16.63C514.84 16.51 514.637 16.38 514.39 16.24C514.143 16.1 513.83 15.97 513.45 15.85C513.077 15.73 512.6 15.67 512.02 15.67C511.34 15.67 510.713 15.79 510.14 16.03C509.573 16.2633 509.083 16.6 508.67 17.04C508.263 17.48 507.943 18.0167 507.71 18.65C507.483 19.2767 507.37 19.9833 507.37 20.77C507.37 21.5833 507.483 22.3067 507.71 22.94C507.943 23.5733 508.257 24.1067 508.65 24.54C509.043 24.9733 509.507 25.3067 510.04 25.54C510.573 25.7667 511.147 25.88 511.76 25.88C512.127 25.88 512.457 25.86 512.75 25.82C513.05 25.78 513.323 25.7167 513.57 25.63C513.823 25.5433 514.06 25.4333 514.28 25.3C514.507 25.16 514.73 24.99 514.95 24.79C515.017 24.73 515.087 24.6833 515.16 24.65C515.233 24.61 515.313 24.59 515.4 24.59ZM523.118 17.58C523.885 17.58 524.578 17.7033 525.198 17.95C525.825 18.1967 526.358 18.5467 526.798 19C527.238 19.4533 527.578 20.0067 527.818 20.66C528.058 21.3133 528.178 22.0433 528.178 22.85C528.178 23.6633 528.058 24.3967 527.818 25.05C527.578 25.7033 527.238 26.26 526.798 26.72C526.358 27.18 525.825 27.5333 525.198 27.78C524.578 28.0267 523.885 28.15 523.118 28.15C522.351 28.15 521.655 28.0267 521.028 27.78C520.401 27.5333 519.865 27.18 519.418 26.72C518.978 26.26 518.635 25.7033 518.388 25.05C518.148 24.3967 518.028 23.6633 518.028 22.85C518.028 22.0433 518.148 21.3133 518.388 20.66C518.635 20.0067 518.978 19.4533 519.418 19C519.865 18.5467 520.401 18.1967 521.028 17.95C521.655 17.7033 522.351 17.58 523.118 17.58ZM523.118 26.25C523.971 26.25 524.601 25.9633 525.008 25.39C525.421 24.8167 525.628 23.9767 525.628 22.87C525.628 21.7633 525.421 20.92 525.008 20.34C524.601 19.76 523.971 19.47 523.118 19.47C522.251 19.47 521.611 19.7633 521.198 20.35C520.785 20.93 520.578 21.77 520.578 22.87C520.578 23.97 520.785 24.81 521.198 25.39C521.611 25.9633 522.251 26.25 523.118 26.25ZM530.105 28V17.74H531.615C531.935 17.74 532.145 17.89 532.245 18.19L532.415 19C532.622 18.7867 532.838 18.5933 533.065 18.42C533.298 18.2467 533.542 18.0967 533.795 17.97C534.055 17.8433 534.332 17.7467 534.625 17.68C534.918 17.6133 535.238 17.58 535.585 17.58C536.145 17.58 536.642 17.6767 537.075 17.87C537.508 18.0567 537.868 18.3233 538.155 18.67C538.448 19.01 538.668 19.42 538.815 19.9C538.968 20.3733 539.045 20.8967 539.045 21.47V28H536.575V21.47C536.575 20.8433 536.428 20.36 536.135 20.02C535.848 19.6733 535.415 19.5 534.835 19.5C534.408 19.5 534.008 19.5967 533.635 19.79C533.262 19.9833 532.908 20.2467 532.575 20.58V28H530.105ZM544.842 28.16C543.956 28.16 543.272 27.91 542.792 27.41C542.312 26.9033 542.072 26.2067 542.072 25.32V19.59H541.032C540.899 19.59 540.782 19.5467 540.682 19.46C540.589 19.3733 540.542 19.2433 540.542 19.07V18.09L542.192 17.82L542.712 15.02C542.739 14.8867 542.799 14.7833 542.892 14.71C542.992 14.6367 543.116 14.6 543.262 14.6H544.542V17.83H547.242V19.59H544.542V25.15C544.542 25.47 544.622 25.72 544.782 25.9C544.942 26.08 545.156 26.17 545.422 26.17C545.576 26.17 545.702 26.1533 545.802 26.12C545.909 26.08 545.999 26.04 546.072 26C546.152 25.96 546.222 25.9233 546.282 25.89C546.342 25.85 546.402 25.83 546.462 25.83C546.536 25.83 546.596 25.85 546.642 25.89C546.689 25.9233 546.739 25.9767 546.792 26.05L547.532 27.25C547.172 27.55 546.759 27.7767 546.292 27.93C545.826 28.0833 545.342 28.16 544.842 28.16ZM553.447 17.58C554.093 17.58 554.687 17.6833 555.227 17.89C555.773 18.0967 556.243 18.4 556.637 18.8C557.03 19.1933 557.337 19.68 557.557 20.26C557.777 20.8333 557.887 21.49 557.887 22.23C557.887 22.4167 557.877 22.5733 557.857 22.7C557.843 22.82 557.813 22.9167 557.767 22.99C557.727 23.0567 557.67 23.1067 557.597 23.14C557.523 23.1667 557.43 23.18 557.317 23.18H550.977C551.05 24.2333 551.333 25.0067 551.827 25.5C552.32 25.9933 552.973 26.24 553.787 26.24C554.187 26.24 554.53 26.1933 554.817 26.1C555.11 26.0067 555.363 25.9033 555.577 25.79C555.797 25.6767 555.987 25.5733 556.147 25.48C556.313 25.3867 556.473 25.34 556.627 25.34C556.727 25.34 556.813 25.36 556.887 25.4C556.96 25.44 557.023 25.4967 557.077 25.57L557.797 26.47C557.523 26.79 557.217 27.06 556.877 27.28C556.537 27.4933 556.18 27.6667 555.807 27.8C555.44 27.9267 555.063 28.0167 554.677 28.07C554.297 28.1233 553.927 28.15 553.567 28.15C552.853 28.15 552.19 28.0333 551.577 27.8C550.963 27.56 550.43 27.21 549.977 26.75C549.523 26.2833 549.167 25.71 548.907 25.03C548.647 24.3433 548.517 23.55 548.517 22.65C548.517 21.95 548.63 21.2933 548.857 20.68C549.083 20.06 549.407 19.5233 549.827 19.07C550.253 18.61 550.77 18.2467 551.377 17.98C551.99 17.7133 552.68 17.58 553.447 17.58ZM553.497 19.35C552.777 19.35 552.213 19.5533 551.807 19.96C551.4 20.3667 551.14 20.9433 551.027 21.69H555.667C555.667 21.37 555.623 21.07 555.537 20.79C555.45 20.5033 555.317 20.2533 555.137 20.04C554.957 19.8267 554.73 19.66 554.457 19.54C554.183 19.4133 553.863 19.35 553.497 19.35ZM559.89 28V17.74H561.4C561.72 17.74 561.93 17.89 562.03 18.19L562.2 19C562.407 18.7867 562.624 18.5933 562.85 18.42C563.084 18.2467 563.327 18.0967 563.58 17.97C563.84 17.8433 564.117 17.7467 564.41 17.68C564.704 17.6133 565.024 17.58 565.37 17.58C565.93 17.58 566.427 17.6767 566.86 17.87C567.294 18.0567 567.654 18.3233 567.94 18.67C568.234 19.01 568.454 19.42 568.6 19.9C568.754 20.3733 568.83 20.8967 568.83 21.47V28H566.36V21.47C566.36 20.8433 566.214 20.36 565.92 20.02C565.634 19.6733 565.2 19.5 564.62 19.5C564.194 19.5 563.794 19.5967 563.42 19.79C563.047 19.9833 562.694 20.2467 562.36 20.58V28H559.89ZM574.628 28.16C573.741 28.16 573.058 27.91 572.577 27.41C572.098 26.9033 571.858 26.2067 571.858 25.32V19.59H570.818C570.684 19.59 570.568 19.5467 570.468 19.46C570.374 19.3733 570.328 19.2433 570.328 19.07V18.09L571.978 17.82L572.498 15.02C572.524 14.8867 572.584 14.7833 572.678 14.71C572.778 14.6367 572.901 14.6 573.048 14.6H574.328V17.83H577.028V19.59H574.328V25.15C574.328 25.47 574.408 25.72 574.568 25.9C574.728 26.08 574.941 26.17 575.208 26.17C575.361 26.17 575.488 26.1533 575.587 26.12C575.694 26.08 575.784 26.04 575.858 26C575.938 25.96 576.008 25.9233 576.068 25.89C576.128 25.85 576.188 25.83 576.248 25.83C576.321 25.83 576.381 25.85 576.428 25.89C576.474 25.9233 576.524 25.9767 576.578 26.05L577.318 27.25C576.958 27.55 576.544 27.7767 576.078 27.93C575.611 28.0833 575.128 28.16 574.628 28.16ZM590.259 22C590.372 22.2133 590.476 22.4367 590.569 22.67C590.669 22.8967 590.766 23.1267 590.859 23.36C590.952 23.12 591.049 22.8833 591.149 22.65C591.249 22.4167 591.356 22.1933 591.469 21.98L595.749 13.97C595.802 13.87 595.856 13.79 595.909 13.73C595.969 13.67 596.032 13.6267 596.099 13.6C596.172 13.5733 596.252 13.5567 596.339 13.55C596.426 13.5433 596.529 13.54 596.649 13.54H598.679V28H596.309V18.66C596.309 18.4867 596.312 18.2967 596.319 18.09C596.332 17.8833 596.349 17.6733 596.369 17.46L591.999 25.66C591.899 25.8467 591.769 25.9933 591.609 26.1C591.449 26.2 591.262 26.25 591.049 26.25H590.679C590.466 26.25 590.279 26.2 590.119 26.1C589.959 25.9933 589.829 25.8467 589.729 25.66L585.299 17.43C585.326 17.65 585.342 17.8667 585.349 18.08C585.362 18.2867 585.369 18.48 585.369 18.66V28H582.999V13.54H585.029C585.149 13.54 585.252 13.5433 585.339 13.55C585.426 13.5567 585.502 13.5733 585.569 13.6C585.642 13.6267 585.709 13.67 585.769 13.73C585.829 13.79 585.886 13.87 585.939 13.97L590.259 22ZM609.493 28H608.383C608.149 28 607.966 27.9667 607.833 27.9C607.699 27.8267 607.599 27.6833 607.533 27.47L607.313 26.74C607.053 26.9733 606.796 27.18 606.543 27.36C606.296 27.5333 606.039 27.68 605.773 27.8C605.506 27.92 605.223 28.01 604.923 28.07C604.623 28.13 604.289 28.16 603.923 28.16C603.489 28.16 603.089 28.1033 602.723 27.99C602.356 27.87 602.039 27.6933 601.773 27.46C601.513 27.2267 601.309 26.9367 601.163 26.59C601.016 26.2433 600.943 25.84 600.943 25.38C600.943 24.9933 601.043 24.6133 601.243 24.24C601.449 23.86 601.789 23.52 602.263 23.22C602.736 22.9133 603.366 22.66 604.153 22.46C604.939 22.26 605.916 22.1467 607.083 22.12V21.52C607.083 20.8333 606.936 20.3267 606.643 20C606.356 19.6667 605.936 19.5 605.383 19.5C604.983 19.5 604.649 19.5467 604.383 19.64C604.116 19.7333 603.883 19.84 603.683 19.96C603.489 20.0733 603.309 20.1767 603.143 20.27C602.976 20.3633 602.793 20.41 602.593 20.41C602.426 20.41 602.283 20.3667 602.163 20.28C602.043 20.1933 601.946 20.0867 601.873 19.96L601.423 19.17C602.603 18.09 604.026 17.55 605.693 17.55C606.293 17.55 606.826 17.65 607.293 17.85C607.766 18.0433 608.166 18.3167 608.493 18.67C608.819 19.0167 609.066 19.4333 609.233 19.92C609.406 20.4067 609.493 20.94 609.493 21.52V28ZM604.693 26.46C604.946 26.46 605.179 26.4367 605.393 26.39C605.606 26.3433 605.806 26.2733 605.993 26.18C606.186 26.0867 606.369 25.9733 606.543 25.84C606.723 25.7 606.903 25.5367 607.083 25.35V23.62C606.363 23.6533 605.759 23.7167 605.273 23.81C604.793 23.8967 604.406 24.01 604.113 24.15C603.819 24.29 603.609 24.4533 603.483 24.64C603.363 24.8267 603.303 25.03 603.303 25.25C603.303 25.6833 603.429 25.9933 603.683 26.18C603.943 26.3667 604.279 26.46 604.693 26.46ZM611.922 28V17.74H613.372C613.625 17.74 613.802 17.7867 613.902 17.88C614.002 17.9733 614.068 18.1333 614.102 18.36L614.252 19.6C614.618 18.9667 615.048 18.4667 615.542 18.1C616.035 17.7333 616.588 17.55 617.202 17.55C617.708 17.55 618.128 17.6667 618.462 17.9L618.142 19.75C618.122 19.87 618.078 19.9567 618.012 20.01C617.945 20.0567 617.855 20.08 617.742 20.08C617.642 20.08 617.505 20.0567 617.332 20.01C617.158 19.9633 616.928 19.94 616.642 19.94C616.128 19.94 615.688 20.0833 615.322 20.37C614.955 20.65 614.645 21.0633 614.392 21.61V28H611.922ZM622.586 13.14V21.65H623.046C623.212 21.65 623.342 21.6267 623.436 21.58C623.529 21.5333 623.629 21.4467 623.736 21.32L626.286 18.17C626.399 18.0367 626.519 17.9333 626.646 17.86C626.772 17.78 626.939 17.74 627.146 17.74H629.406L626.216 21.55C626.102 21.69 625.986 21.82 625.866 21.94C625.746 22.0533 625.616 22.1533 625.476 22.24C625.616 22.34 625.739 22.4567 625.846 22.59C625.952 22.7233 626.059 22.8667 626.166 23.02L629.586 28H627.356C627.162 28 626.999 27.9667 626.866 27.9C626.732 27.8333 626.612 27.72 626.506 27.56L623.896 23.67C623.796 23.5167 623.696 23.4167 623.596 23.37C623.496 23.3233 623.346 23.3 623.146 23.3H622.586V28H620.116V13.14H622.586ZM634.755 17.58C635.402 17.58 635.995 17.6833 636.535 17.89C637.082 18.0967 637.552 18.4 637.945 18.8C638.339 19.1933 638.645 19.68 638.865 20.26C639.085 20.8333 639.195 21.49 639.195 22.23C639.195 22.4167 639.185 22.5733 639.165 22.7C639.152 22.82 639.122 22.9167 639.075 22.99C639.035 23.0567 638.979 23.1067 638.905 23.14C638.832 23.1667 638.739 23.18 638.625 23.18H632.285C632.359 24.2333 632.642 25.0067 633.135 25.5C633.629 25.9933 634.282 26.24 635.095 26.24C635.495 26.24 635.839 26.1933 636.125 26.1C636.419 26.0067 636.672 25.9033 636.885 25.79C637.105 25.6767 637.295 25.5733 637.455 25.48C637.622 25.3867 637.782 25.34 637.935 25.34C638.035 25.34 638.122 25.36 638.195 25.4C638.269 25.44 638.332 25.4967 638.385 25.57L639.105 26.47C638.832 26.79 638.525 27.06 638.185 27.28C637.845 27.4933 637.489 27.6667 637.115 27.8C636.749 27.9267 636.372 28.0167 635.985 28.07C635.605 28.1233 635.235 28.15 634.875 28.15C634.162 28.15 633.499 28.0333 632.885 27.8C632.272 27.56 631.739 27.21 631.285 26.75C630.832 26.2833 630.475 25.71 630.215 25.03C629.955 24.3433 629.825 23.55 629.825 22.65C629.825 21.95 629.939 21.2933 630.165 20.68C630.392 20.06 630.715 19.5233 631.135 19.07C631.562 18.61 632.079 18.2467 632.685 17.98C633.299 17.7133 633.989 17.58 634.755 17.58ZM634.805 19.35C634.085 19.35 633.522 19.5533 633.115 19.96C632.709 20.3667 632.449 20.9433 632.335 21.69H636.975C636.975 21.37 636.932 21.07 636.845 20.79C636.759 20.5033 636.625 20.2533 636.445 20.04C636.265 19.8267 636.039 19.66 635.765 19.54C635.492 19.4133 635.172 19.35 634.805 19.35ZM644.569 28.16C643.682 28.16 642.999 27.91 642.519 27.41C642.039 26.9033 641.799 26.2067 641.799 25.32V19.59H640.759C640.626 19.59 640.509 19.5467 640.409 19.46C640.316 19.3733 640.269 19.2433 640.269 19.07V18.09L641.919 17.82L642.439 15.02C642.466 14.8867 642.526 14.7833 642.619 14.71C642.719 14.6367 642.842 14.6 642.989 14.6H644.269V17.83H646.969V19.59H644.269V25.15C644.269 25.47 644.349 25.72 644.509 25.9C644.669 26.08 644.882 26.17 645.149 26.17C645.302 26.17 645.429 26.1533 645.529 26.12C645.636 26.08 645.726 26.04 645.799 26C645.879 25.96 645.949 25.9233 646.009 25.89C646.069 25.85 646.129 25.83 646.189 25.83C646.262 25.83 646.322 25.85 646.369 25.89C646.416 25.9233 646.466 25.9767 646.519 26.05L647.259 27.25C646.899 27.55 646.486 27.7767 646.019 27.93C645.552 28.0833 645.069 28.16 644.569 28.16ZM651.563 17.74V28H649.093V17.74H651.563ZM651.933 14.75C651.933 14.9633 651.89 15.1633 651.803 15.35C651.717 15.5367 651.6 15.7 651.453 15.84C651.313 15.98 651.147 16.0933 650.953 16.18C650.76 16.26 650.553 16.3 650.333 16.3C650.12 16.3 649.917 16.26 649.723 16.18C649.537 16.0933 649.373 15.98 649.233 15.84C649.093 15.7 648.98 15.5367 648.893 15.35C648.813 15.1633 648.773 14.9633 648.773 14.75C648.773 14.53 648.813 14.3233 648.893 14.13C648.98 13.9367 649.093 13.77 649.233 13.63C649.373 13.49 649.537 13.38 649.723 13.3C649.917 13.2133 650.12 13.17 650.333 13.17C650.553 13.17 650.76 13.2133 650.953 13.3C651.147 13.38 651.313 13.49 651.453 13.63C651.6 13.77 651.717 13.9367 651.803 14.13C651.89 14.3233 651.933 14.53 651.933 14.75ZM654.363 28V17.74H655.873C656.193 17.74 656.403 17.89 656.503 18.19L656.673 19C656.88 18.7867 657.096 18.5933 657.323 18.42C657.556 18.2467 657.8 18.0967 658.053 17.97C658.313 17.8433 658.59 17.7467 658.883 17.68C659.176 17.6133 659.496 17.58 659.843 17.58C660.403 17.58 660.9 17.6767 661.333 17.87C661.766 18.0567 662.126 18.3233 662.413 18.67C662.706 19.01 662.926 19.42 663.073 19.9C663.226 20.3733 663.303 20.8967 663.303 21.47V28H660.833V21.47C660.833 20.8433 660.686 20.36 660.393 20.02C660.106 19.6733 659.673 19.5 659.093 19.5C658.666 19.5 658.266 19.5967 657.893 19.79C657.52 19.9833 657.166 20.2467 656.833 20.58V28H654.363ZM669.28 17.56C669.72 17.56 670.133 17.6067 670.52 17.7C670.907 17.7867 671.26 17.9167 671.58 18.09H674.53V19.01C674.53 19.1633 674.49 19.2833 674.41 19.37C674.33 19.4567 674.193 19.5167 674 19.55L673.08 19.72C673.147 19.8933 673.197 20.0767 673.23 20.27C673.27 20.4633 673.29 20.6667 673.29 20.88C673.29 21.3867 673.187 21.8467 672.98 22.26C672.78 22.6667 672.5 23.0133 672.14 23.3C671.787 23.5867 671.363 23.81 670.87 23.97C670.383 24.1233 669.853 24.2 669.28 24.2C668.893 24.2 668.517 24.1633 668.15 24.09C667.83 24.2833 667.67 24.5 667.67 24.74C667.67 24.9467 667.763 25.1 667.95 25.2C668.143 25.2933 668.393 25.36 668.7 25.4C669.013 25.44 669.367 25.4667 669.76 25.48C670.153 25.4867 670.557 25.5067 670.97 25.54C671.383 25.5733 671.787 25.6333 672.18 25.72C672.573 25.8 672.923 25.93 673.23 26.11C673.543 26.29 673.793 26.5367 673.98 26.85C674.173 27.1567 674.27 27.5533 674.27 28.04C674.27 28.4933 674.157 28.9333 673.93 29.36C673.71 29.7867 673.387 30.1667 672.96 30.5C672.54 30.8333 672.023 31.1 671.41 31.3C670.797 31.5067 670.097 31.61 669.31 31.61C668.53 31.61 667.853 31.5333 667.28 31.38C666.707 31.2333 666.23 31.0333 665.85 30.78C665.477 30.5333 665.197 30.2467 665.01 29.92C664.823 29.5933 664.73 29.2533 664.73 28.9C664.73 28.42 664.877 28.0167 665.17 27.69C665.463 27.3633 665.87 27.1033 666.39 26.91C666.137 26.77 665.933 26.5833 665.78 26.35C665.627 26.1167 665.55 25.8133 665.55 25.44C665.55 25.2867 665.577 25.13 665.63 24.97C665.683 24.8033 665.763 24.64 665.87 24.48C665.983 24.32 666.123 24.17 666.29 24.03C666.457 23.8833 666.653 23.7533 666.88 23.64C666.36 23.36 665.95 22.9867 665.65 22.52C665.357 22.0533 665.21 21.5067 665.21 20.88C665.21 20.3733 665.31 19.9167 665.51 19.51C665.717 19.0967 666 18.7467 666.36 18.46C666.727 18.1667 667.157 17.9433 667.65 17.79C668.15 17.6367 668.693 17.56 669.28 17.56ZM671.99 28.46C671.99 28.26 671.93 28.0967 671.81 27.97C671.69 27.8433 671.527 27.7467 671.32 27.68C671.113 27.6067 670.87 27.5533 670.59 27.52C670.317 27.4867 670.023 27.4633 669.71 27.45C669.403 27.43 669.083 27.4133 668.75 27.4C668.423 27.38 668.107 27.35 667.8 27.31C667.52 27.4633 667.293 27.6467 667.12 27.86C666.953 28.0667 666.87 28.3067 666.87 28.58C666.87 28.76 666.913 28.9267 667 29.08C667.093 29.24 667.237 29.3767 667.43 29.49C667.63 29.6033 667.887 29.69 668.2 29.75C668.513 29.8167 668.897 29.85 669.35 29.85C669.81 29.85 670.207 29.8133 670.54 29.74C670.873 29.6733 671.147 29.5767 671.36 29.45C671.58 29.33 671.74 29.1833 671.84 29.01C671.94 28.8433 671.99 28.66 671.99 28.46ZM669.28 22.62C669.587 22.62 669.853 22.58 670.08 22.5C670.307 22.4133 670.493 22.2967 670.64 22.15C670.793 22.0033 670.907 21.8267 670.98 21.62C671.06 21.4133 671.1 21.1867 671.1 20.94C671.1 20.4333 670.947 20.0333 670.64 19.74C670.34 19.44 669.887 19.29 669.28 19.29C668.673 19.29 668.217 19.44 667.91 19.74C667.61 20.0333 667.46 20.4333 667.46 20.94C667.46 21.18 667.497 21.4033 667.57 21.61C667.65 21.8167 667.763 21.9967 667.91 22.15C668.063 22.2967 668.253 22.4133 668.48 22.5C668.713 22.58 668.98 22.62 669.28 22.62Z" fill="white"/>
</g>
<line opacity="0.4" x1="769.5" y1="-2.18557e-08" x2="769.5" y2="40" stroke="url(#paint1_linear_2196_2252)"/>
<g clip-path="url(#clip3_2196_2252)">
<g clip-path="url(#clip4_2196_2252)">
<path d="M894.802 29.4535C894.657 29.3082 894.455 29.2246 894.25 29.2246C894.045 29.2246 893.843 29.3082 893.698 29.4535C893.552 29.5988 893.469 29.8004 893.469 30.0059C893.469 30.2113 893.552 30.4129 893.698 30.5582C893.843 30.7043 894.045 30.7871 894.25 30.7871C894.455 30.7871 894.657 30.7043 894.802 30.5582C894.948 30.4129 895.031 30.2113 895.031 30.0059C895.031 29.8004 894.948 29.5989 894.802 29.4535Z" fill="#7772F1"/>
<path d="M899.875 0.000976562H866.125C864.402 0.000976562 863 1.40285 863 3.12598V27.6637C863 29.3868 864.402 30.7887 866.125 30.7887H878.391V34.7104C876.099 34.9336 874.302 36.8705 874.302 39.2196C874.302 39.6511 874.652 40.0009 875.083 40.0009H890.917C891.348 40.0009 891.698 39.6511 891.698 39.2196C891.698 36.8174 889.819 34.8468 887.453 34.6984V30.7887H891.099C891.531 30.7887 891.88 30.4389 891.88 30.0075C891.88 29.576 891.531 29.2262 891.099 29.2262H866.125C865.263 29.2262 864.562 28.5253 864.562 27.6637V3.12598C864.562 2.26441 865.263 1.56348 866.125 1.56348H899.875C900.737 1.56348 901.438 2.26441 901.438 3.12598V27.6637C901.438 28.5253 900.737 29.2262 899.875 29.2262H896.958C896.527 29.2262 896.177 29.576 896.177 30.0075C896.177 30.4389 896.527 30.7887 896.958 30.7887H899.875C901.598 30.7887 903 29.3868 903 27.6637V3.12598C903 1.40277 901.598 0.000976562 899.875 0.000976562ZM879.953 30.7887H885.891V34.6885H879.953V30.7887ZM887.167 36.251C888.533 36.251 889.687 37.1793 890.031 38.4385H875.969C876.313 37.1793 877.467 36.251 878.833 36.251H887.167Z" fill="#7772F1"/>
<path d="M883.474 26.9545C883.329 26.8092 883.127 26.7256 882.922 26.7256C882.716 26.7256 882.515 26.8092 882.37 26.9545C882.224 27.0998 882.141 27.3014 882.141 27.5068C882.141 27.7131 882.224 27.9139 882.37 28.0592C882.515 28.2053 882.716 28.2881 882.922 28.2881C883.127 28.2881 883.329 28.2053 883.474 28.0592C883.62 27.9139 883.703 27.7131 883.703 27.5068C883.703 27.3014 883.62 27.0998 883.474 26.9545Z" fill="#7772F1"/>
<path d="M899.094 3.13184H886.672C886.24 3.13184 885.891 3.4816 885.891 3.91309C885.891 4.34457 886.24 4.69434 886.672 4.69434H898.312V24.2256H867.688V4.69434H879.68C880.111 4.69434 880.461 4.34457 880.461 3.91309C880.461 3.4816 880.111 3.13184 879.68 3.13184H866.906C866.475 3.13184 866.125 3.4816 866.125 3.91309V25.0068C866.125 25.4383 866.475 25.7881 866.906 25.7881H899.094C899.525 25.7881 899.875 25.4383 899.875 25.0068V3.91309C899.875 3.4816 899.525 3.13184 899.094 3.13184Z" fill="#7772F1"/>
<path d="M883.709 3.35977C883.563 3.21445 883.362 3.13086 883.156 3.13086C882.951 3.13086 882.749 3.21445 882.604 3.35977C882.459 3.50508 882.375 3.70664 882.375 3.91211C882.375 4.11758 882.459 4.31914 882.604 4.46523C882.749 4.61055 882.951 4.69336 883.156 4.69336C883.362 4.69336 883.563 4.61055 883.709 4.46523C883.854 4.31914 883.938 4.11836 883.938 3.91211C883.938 3.70664 883.854 3.50508 883.709 3.35977Z" fill="#7772F1"/>
</g>
<path d="M923.12 13.54H925.38C925.613 13.54 925.807 13.5967 925.96 13.71C926.12 13.8167 926.227 13.9633 926.28 14.15L928.74 22.8C928.8 23.0133 928.853 23.2467 928.9 23.5C928.953 23.7467 929.003 24.01 929.05 24.29C929.103 24.01 929.16 23.7467 929.22 23.5C929.287 23.2467 929.357 23.0133 929.43 22.8L932.27 14.15C932.323 13.9967 932.427 13.8567 932.58 13.73C932.74 13.6033 932.933 13.54 933.16 13.54H933.95C934.183 13.54 934.377 13.5967 934.53 13.71C934.683 13.8167 934.79 13.9633 934.85 14.15L937.67 22.8C937.817 23.2267 937.943 23.7 938.05 24.22C938.097 23.96 938.143 23.71 938.19 23.47C938.243 23.23 938.297 23.0067 938.35 22.8L940.81 14.15C940.857 13.9833 940.96 13.84 941.12 13.72C941.28 13.6 941.473 13.54 941.7 13.54H943.81L939.32 28H936.89L933.73 18.12C933.69 17.9933 933.647 17.8567 933.6 17.71C933.56 17.5633 933.52 17.4067 933.48 17.24C933.44 17.4067 933.397 17.5633 933.35 17.71C933.31 17.8567 933.27 17.9933 933.23 18.12L930.04 28H927.61L923.12 13.54ZM949.087 17.58C949.734 17.58 950.327 17.6833 950.867 17.89C951.414 18.0967 951.884 18.4 952.277 18.8C952.671 19.1933 952.977 19.68 953.197 20.26C953.417 20.8333 953.527 21.49 953.527 22.23C953.527 22.4167 953.517 22.5733 953.497 22.7C953.484 22.82 953.454 22.9167 953.407 22.99C953.367 23.0567 953.311 23.1067 953.237 23.14C953.164 23.1667 953.071 23.18 952.957 23.18H946.617C946.691 24.2333 946.974 25.0067 947.467 25.5C947.961 25.9933 948.614 26.24 949.427 26.24C949.827 26.24 950.171 26.1933 950.457 26.1C950.751 26.0067 951.004 25.9033 951.217 25.79C951.437 25.6767 951.627 25.5733 951.787 25.48C951.954 25.3867 952.114 25.34 952.267 25.34C952.367 25.34 952.454 25.36 952.527 25.4C952.601 25.44 952.664 25.4967 952.717 25.57L953.437 26.47C953.164 26.79 952.857 27.06 952.517 27.28C952.177 27.4933 951.821 27.6667 951.447 27.8C951.081 27.9267 950.704 28.0167 950.317 28.07C949.937 28.1233 949.567 28.15 949.207 28.15C948.494 28.15 947.831 28.0333 947.217 27.8C946.604 27.56 946.071 27.21 945.617 26.75C945.164 26.2833 944.807 25.71 944.547 25.03C944.287 24.3433 944.157 23.55 944.157 22.65C944.157 21.95 944.271 21.2933 944.497 20.68C944.724 20.06 945.047 19.5233 945.467 19.07C945.894 18.61 946.411 18.2467 947.017 17.98C947.631 17.7133 948.321 17.58 949.087 17.58ZM949.137 19.35C948.417 19.35 947.854 19.5533 947.447 19.96C947.041 20.3667 946.781 20.9433 946.667 21.69H951.307C951.307 21.37 951.264 21.07 951.177 20.79C951.091 20.5033 950.957 20.2533 950.777 20.04C950.597 19.8267 950.371 19.66 950.097 19.54C949.824 19.4133 949.504 19.35 949.137 19.35ZM955.561 28V13.14H958.031V19C958.438 18.5667 958.898 18.2233 959.411 17.97C959.924 17.71 960.524 17.58 961.211 17.58C961.771 17.58 962.281 17.6967 962.741 17.93C963.208 18.1567 963.608 18.49 963.941 18.93C964.281 19.37 964.541 19.9133 964.721 20.56C964.908 21.2067 965.001 21.95 965.001 22.79C965.001 23.5567 964.898 24.2667 964.691 24.92C964.484 25.5733 964.188 26.14 963.801 26.62C963.421 27.1 962.958 27.4767 962.411 27.75C961.871 28.0167 961.264 28.15 960.591 28.15C960.278 28.15 959.991 28.1167 959.731 28.05C959.471 27.99 959.234 27.9033 959.021 27.79C958.808 27.6767 958.608 27.54 958.421 27.38C958.241 27.2133 958.068 27.03 957.901 26.83L957.791 27.52C957.751 27.6933 957.681 27.8167 957.581 27.89C957.488 27.9633 957.358 28 957.191 28H955.561ZM960.361 19.5C959.848 19.5 959.408 19.61 959.041 19.83C958.681 20.0433 958.344 20.3467 958.031 20.74V25.34C958.311 25.6867 958.614 25.93 958.941 26.07C959.274 26.2033 959.634 26.27 960.021 26.27C960.394 26.27 960.731 26.2 961.031 26.06C961.331 25.92 961.584 25.7067 961.791 25.42C962.004 25.1333 962.168 24.7733 962.281 24.34C962.394 23.9 962.451 23.3833 962.451 22.79C962.451 22.19 962.401 21.6833 962.301 21.27C962.208 20.85 962.071 20.51 961.891 20.25C961.711 19.99 961.491 19.8 961.231 19.68C960.978 19.56 960.688 19.5 960.361 19.5ZM973.027 19.74C972.961 19.8467 972.891 19.9233 972.817 19.97C972.744 20.01 972.651 20.03 972.537 20.03C972.417 20.03 972.287 19.9967 972.147 19.93C972.014 19.8633 971.857 19.79 971.677 19.71C971.497 19.6233 971.291 19.5467 971.057 19.48C970.831 19.4133 970.561 19.38 970.247 19.38C969.761 19.38 969.377 19.4833 969.097 19.69C968.817 19.8967 968.677 20.1667 968.677 20.5C968.677 20.72 968.747 20.9067 968.887 21.06C969.034 21.2067 969.224 21.3367 969.457 21.45C969.697 21.5633 969.967 21.6667 970.267 21.76C970.567 21.8467 970.874 21.9433 971.187 22.05C971.501 22.1567 971.807 22.28 972.107 22.42C972.407 22.5533 972.674 22.7267 972.907 22.94C973.147 23.1467 973.337 23.3967 973.477 23.69C973.624 23.9833 973.697 24.3367 973.697 24.75C973.697 25.2433 973.607 25.7 973.427 26.12C973.247 26.5333 972.984 26.8933 972.637 27.2C972.291 27.5 971.861 27.7367 971.347 27.91C970.841 28.0767 970.257 28.16 969.597 28.16C969.244 28.16 968.897 28.1267 968.557 28.06C968.224 28 967.901 27.9133 967.587 27.8C967.281 27.6867 966.994 27.5533 966.727 27.4C966.467 27.2467 966.237 27.08 966.037 26.9L966.607 25.96C966.681 25.8467 966.767 25.76 966.867 25.7C966.967 25.64 967.094 25.61 967.247 25.61C967.401 25.61 967.544 25.6533 967.677 25.74C967.817 25.8267 967.977 25.92 968.157 26.02C968.337 26.12 968.547 26.2133 968.787 26.3C969.034 26.3867 969.344 26.43 969.717 26.43C970.011 26.43 970.261 26.3967 970.467 26.33C970.681 26.2567 970.854 26.1633 970.987 26.05C971.127 25.9367 971.227 25.8067 971.287 25.66C971.354 25.5067 971.387 25.35 971.387 25.19C971.387 24.95 971.314 24.7533 971.167 24.6C971.027 24.4467 970.837 24.3133 970.597 24.2C970.364 24.0867 970.094 23.9867 969.787 23.9C969.487 23.8067 969.177 23.7067 968.857 23.6C968.544 23.4933 968.234 23.37 967.927 23.23C967.627 23.0833 967.357 22.9 967.117 22.68C966.884 22.46 966.694 22.19 966.547 21.87C966.407 21.55 966.337 21.1633 966.337 20.71C966.337 20.29 966.421 19.89 966.587 19.51C966.754 19.13 966.997 18.8 967.317 18.52C967.644 18.2333 968.047 18.0067 968.527 17.84C969.014 17.6667 969.574 17.58 970.207 17.58C970.914 17.58 971.557 17.6967 972.137 17.93C972.717 18.1633 973.201 18.47 973.587 18.85L973.027 19.74ZM978.298 17.74V28H975.828V17.74H978.298ZM978.668 14.75C978.668 14.9633 978.624 15.1633 978.538 15.35C978.451 15.5367 978.334 15.7 978.188 15.84C978.048 15.98 977.881 16.0933 977.688 16.18C977.494 16.26 977.288 16.3 977.068 16.3C976.854 16.3 976.651 16.26 976.458 16.18C976.271 16.0933 976.108 15.98 975.968 15.84C975.828 15.7 975.714 15.5367 975.628 15.35C975.548 15.1633 975.508 14.9633 975.508 14.75C975.508 14.53 975.548 14.3233 975.628 14.13C975.714 13.9367 975.828 13.77 975.968 13.63C976.108 13.49 976.271 13.38 976.458 13.3C976.651 13.2133 976.854 13.17 977.068 13.17C977.288 13.17 977.494 13.2133 977.688 13.3C977.881 13.38 978.048 13.49 978.188 13.63C978.334 13.77 978.451 13.9367 978.538 14.13C978.624 14.3233 978.668 14.53 978.668 14.75ZM984.467 28.16C983.581 28.16 982.897 27.91 982.417 27.41C981.937 26.9033 981.697 26.2067 981.697 25.32V19.59H980.657C980.524 19.59 980.407 19.5467 980.307 19.46C980.214 19.3733 980.167 19.2433 980.167 19.07V18.09L981.817 17.82L982.337 15.02C982.364 14.8867 982.424 14.7833 982.517 14.71C982.617 14.6367 982.741 14.6 982.887 14.6H984.167V17.83H986.867V19.59H984.167V25.15C984.167 25.47 984.247 25.72 984.407 25.9C984.567 26.08 984.781 26.17 985.047 26.17C985.201 26.17 985.327 26.1533 985.427 26.12C985.534 26.08 985.624 26.04 985.697 26C985.777 25.96 985.847 25.9233 985.907 25.89C985.967 25.85 986.027 25.83 986.087 25.83C986.161 25.83 986.221 25.85 986.267 25.89C986.314 25.9233 986.364 25.9767 986.417 26.05L987.157 27.25C986.797 27.55 986.384 27.7767 985.917 27.93C985.451 28.0833 984.967 28.16 984.467 28.16ZM993.072 17.58C993.718 17.58 994.312 17.6833 994.852 17.89C995.398 18.0967 995.868 18.4 996.262 18.8C996.655 19.1933 996.962 19.68 997.182 20.26C997.402 20.8333 997.512 21.49 997.512 22.23C997.512 22.4167 997.502 22.5733 997.482 22.7C997.468 22.82 997.438 22.9167 997.392 22.99C997.352 23.0567 997.295 23.1067 997.222 23.14C997.148 23.1667 997.055 23.18 996.942 23.18H990.602C990.675 24.2333 990.958 25.0067 991.452 25.5C991.945 25.9933 992.598 26.24 993.412 26.24C993.812 26.24 994.155 26.1933 994.442 26.1C994.735 26.0067 994.988 25.9033 995.202 25.79C995.422 25.6767 995.612 25.5733 995.772 25.48C995.938 25.3867 996.098 25.34 996.252 25.34C996.352 25.34 996.438 25.36 996.512 25.4C996.585 25.44 996.648 25.4967 996.702 25.57L997.422 26.47C997.148 26.79 996.842 27.06 996.502 27.28C996.162 27.4933 995.805 27.6667 995.432 27.8C995.065 27.9267 994.688 28.0167 994.302 28.07C993.922 28.1233 993.552 28.15 993.192 28.15C992.478 28.15 991.815 28.0333 991.202 27.8C990.588 27.56 990.055 27.21 989.602 26.75C989.148 26.2833 988.792 25.71 988.532 25.03C988.272 24.3433 988.142 23.55 988.142 22.65C988.142 21.95 988.255 21.2933 988.482 20.68C988.708 20.06 989.032 19.5233 989.452 19.07C989.878 18.61 990.395 18.2467 991.002 17.98C991.615 17.7133 992.305 17.58 993.072 17.58ZM993.122 19.35C992.402 19.35 991.838 19.5533 991.432 19.96C991.025 20.3667 990.765 20.9433 990.652 21.69H995.292C995.292 21.37 995.248 21.07 995.162 20.79C995.075 20.5033 994.942 20.2533 994.762 20.04C994.582 19.8267 994.355 19.66 994.082 19.54C993.808 19.4133 993.488 19.35 993.122 19.35ZM1008.69 13.38C1009.28 13.38 1009.8 13.47 1010.26 13.65C1010.73 13.83 1011.13 14.07 1011.45 14.37C1011.79 14.67 1012.05 15.0133 1012.23 15.4C1012.43 15.7867 1012.54 16.1867 1012.57 16.6L1011 16.93C1010.98 16.9367 1010.96 16.94 1010.93 16.94C1010.91 16.94 1010.89 16.94 1010.87 16.94C1010.76 16.94 1010.66 16.91 1010.56 16.85C1010.48 16.7833 1010.41 16.6833 1010.35 16.55C1010.29 16.3767 1010.22 16.2133 1010.12 16.06C1010.03 15.9 1009.92 15.7633 1009.78 15.65C1009.65 15.53 1009.49 15.4367 1009.31 15.37C1009.13 15.2967 1008.93 15.26 1008.69 15.26C1008.41 15.26 1008.16 15.31 1007.94 15.41C1007.72 15.5033 1007.54 15.6333 1007.38 15.8C1007.23 15.96 1007.11 16.15 1007.03 16.37C1006.95 16.5833 1006.91 16.81 1006.91 17.05C1006.91 17.25 1006.93 17.4433 1006.97 17.63C1007.02 17.8167 1007.09 18.0033 1007.18 18.19C1007.28 18.3767 1007.4 18.57 1007.54 18.77C1007.7 18.9633 1007.88 19.1733 1008.1 19.4L1011.94 23.39C1012.16 22.97 1012.34 22.5267 1012.47 22.06C1012.61 21.5933 1012.69 21.12 1012.73 20.64C1012.75 20.4867 1012.8 20.3633 1012.88 20.27C1012.97 20.1767 1013.09 20.13 1013.24 20.13H1014.79C1014.79 21.01 1014.66 21.85 1014.41 22.65C1014.17 23.45 1013.81 24.1867 1013.35 24.86L1016.38 28H1013.96C1013.84 28 1013.72 27.9933 1013.62 27.98C1013.53 27.9667 1013.44 27.9433 1013.35 27.91C1013.27 27.87 1013.18 27.82 1013.1 27.76C1013.02 27.7 1012.94 27.6233 1012.85 27.53L1011.85 26.5C1011.21 27.02 1010.5 27.4267 1009.71 27.72C1008.93 28.0133 1008.09 28.16 1007.17 28.16C1006.61 28.16 1006.07 28.0667 1005.53 27.88C1005 27.6867 1004.52 27.41 1004.1 27.05C1003.68 26.69 1003.34 26.2567 1003.08 25.75C1002.83 25.2367 1002.7 24.66 1002.7 24.02C1002.7 23.5733 1002.78 23.15 1002.92 22.75C1003.07 22.3433 1003.27 21.9667 1003.53 21.62C1003.79 21.2733 1004.1 20.96 1004.45 20.68C1004.81 20.4 1005.21 20.16 1005.63 19.96C1005.28 19.46 1005.02 18.9733 1004.85 18.5C1004.69 18.02 1004.61 17.5433 1004.61 17.07C1004.61 16.57 1004.7 16.0967 1004.88 15.65C1005.07 15.1967 1005.34 14.8033 1005.68 14.47C1006.04 14.1367 1006.47 13.8733 1006.97 13.68C1007.48 13.48 1008.05 13.38 1008.69 13.38ZM1005.21 23.82C1005.21 24.1867 1005.28 24.5167 1005.4 24.81C1005.53 25.1033 1005.7 25.3533 1005.92 25.56C1006.14 25.76 1006.4 25.9167 1006.68 26.03C1006.98 26.1367 1007.29 26.19 1007.61 26.19C1008.2 26.19 1008.73 26.1 1009.21 25.92C1009.7 25.7333 1010.14 25.4767 1010.54 25.15L1006.74 21.25C1006.21 21.5967 1005.82 21.9867 1005.57 22.42C1005.33 22.8533 1005.21 23.32 1005.21 23.82ZM1029.42 16.17C1029.34 16.3167 1029.26 16.42 1029.16 16.48C1029.06 16.54 1028.95 16.57 1028.82 16.57C1028.68 16.57 1028.53 16.52 1028.37 16.42C1028.2 16.3133 1028 16.1967 1027.78 16.07C1027.55 15.9433 1027.28 15.83 1026.98 15.73C1026.68 15.6233 1026.32 15.57 1025.91 15.57C1025.53 15.57 1025.21 15.6167 1024.93 15.71C1024.65 15.7967 1024.42 15.92 1024.23 16.08C1024.04 16.24 1023.9 16.4333 1023.81 16.66C1023.71 16.88 1023.67 17.1233 1023.67 17.39C1023.67 17.73 1023.76 18.0133 1023.95 18.24C1024.14 18.4667 1024.39 18.66 1024.71 18.82C1025.02 18.98 1025.38 19.1233 1025.78 19.25C1026.18 19.3767 1026.58 19.5133 1027 19.66C1027.42 19.8 1027.83 19.9667 1028.23 20.16C1028.63 20.3467 1028.98 20.5867 1029.3 20.88C1029.61 21.1667 1029.86 21.52 1030.05 21.94C1030.24 22.36 1030.34 22.87 1030.34 23.47C1030.34 24.1233 1030.22 24.7367 1030 25.31C1029.78 25.8767 1029.45 26.3733 1029.02 26.8C1028.59 27.22 1028.07 27.5533 1027.45 27.8C1026.83 28.04 1026.12 28.16 1025.32 28.16C1024.86 28.16 1024.4 28.1133 1023.96 28.02C1023.51 27.9333 1023.08 27.8067 1022.67 27.64C1022.26 27.4733 1021.88 27.2733 1021.52 27.04C1021.16 26.8067 1020.85 26.5467 1020.57 26.26L1021.35 24.97C1021.42 24.8767 1021.51 24.8 1021.61 24.74C1021.71 24.6733 1021.83 24.64 1021.96 24.64C1022.12 24.64 1022.3 24.71 1022.5 24.85C1022.69 24.9833 1022.92 25.1333 1023.18 25.3C1023.44 25.4667 1023.75 25.62 1024.11 25.76C1024.47 25.8933 1024.9 25.96 1025.4 25.96C1026.16 25.96 1026.76 25.78 1027.18 25.42C1027.6 25.0533 1027.81 24.53 1027.81 23.85C1027.81 23.47 1027.71 23.16 1027.52 22.92C1027.33 22.68 1027.08 22.48 1026.77 22.32C1026.45 22.1533 1026.1 22.0133 1025.7 21.9C1025.3 21.7867 1024.89 21.6633 1024.48 21.53C1024.06 21.3967 1023.66 21.2367 1023.26 21.05C1022.86 20.8633 1022.5 20.62 1022.19 20.32C1021.87 20.02 1021.62 19.6467 1021.43 19.2C1021.24 18.7467 1021.15 18.19 1021.15 17.53C1021.15 17.0033 1021.25 16.49 1021.46 15.99C1021.67 15.49 1021.98 15.0467 1022.38 14.66C1022.78 14.2733 1023.28 13.9633 1023.87 13.73C1024.45 13.4967 1025.12 13.38 1025.88 13.38C1026.73 13.38 1027.52 13.5133 1028.24 13.78C1028.96 14.0467 1029.57 14.42 1030.08 14.9L1029.42 16.17ZM1036.63 17.58C1037.4 17.58 1038.09 17.7033 1038.71 17.95C1039.34 18.1967 1039.87 18.5467 1040.31 19C1040.75 19.4533 1041.09 20.0067 1041.33 20.66C1041.57 21.3133 1041.69 22.0433 1041.69 22.85C1041.69 23.6633 1041.57 24.3967 1041.33 25.05C1041.09 25.7033 1040.75 26.26 1040.31 26.72C1039.87 27.18 1039.34 27.5333 1038.71 27.78C1038.09 28.0267 1037.4 28.15 1036.63 28.15C1035.86 28.15 1035.17 28.0267 1034.54 27.78C1033.91 27.5333 1033.38 27.18 1032.93 26.72C1032.49 26.26 1032.15 25.7033 1031.9 25.05C1031.66 24.3967 1031.54 23.6633 1031.54 22.85C1031.54 22.0433 1031.66 21.3133 1031.9 20.66C1032.15 20.0067 1032.49 19.4533 1032.93 19C1033.38 18.5467 1033.91 18.1967 1034.54 17.95C1035.17 17.7033 1035.86 17.58 1036.63 17.58ZM1036.63 26.25C1037.48 26.25 1038.11 25.9633 1038.52 25.39C1038.93 24.8167 1039.14 23.9767 1039.14 22.87C1039.14 21.7633 1038.93 20.92 1038.52 20.34C1038.11 19.76 1037.48 19.47 1036.63 19.47C1035.76 19.47 1035.12 19.7633 1034.71 20.35C1034.3 20.93 1034.09 21.77 1034.09 22.87C1034.09 23.97 1034.3 24.81 1034.71 25.39C1035.12 25.9633 1035.76 26.25 1036.63 26.25ZM1050.83 19.91C1050.75 20.0033 1050.68 20.0767 1050.61 20.13C1050.54 20.1833 1050.44 20.21 1050.31 20.21C1050.18 20.21 1050.06 20.1733 1049.94 20.1C1049.82 20.02 1049.67 19.9333 1049.51 19.84C1049.34 19.74 1049.14 19.6533 1048.91 19.58C1048.68 19.5 1048.4 19.46 1048.06 19.46C1047.62 19.46 1047.24 19.54 1046.92 19.7C1046.59 19.8533 1046.32 20.0767 1046.1 20.37C1045.88 20.6633 1045.72 21.02 1045.62 21.44C1045.51 21.8533 1045.46 22.3233 1045.46 22.85C1045.46 23.3967 1045.51 23.8833 1045.63 24.31C1045.75 24.7367 1045.92 25.0967 1046.14 25.39C1046.36 25.6767 1046.62 25.8967 1046.94 26.05C1047.25 26.1967 1047.6 26.27 1048 26.27C1048.39 26.27 1048.71 26.2233 1048.95 26.13C1049.19 26.03 1049.4 25.9233 1049.57 25.81C1049.73 25.69 1049.88 25.5833 1050 25.49C1050.12 25.39 1050.26 25.34 1050.42 25.34C1050.62 25.34 1050.77 25.4167 1050.87 25.57L1051.58 26.47C1051.3 26.79 1051.01 27.06 1050.69 27.28C1050.37 27.4933 1050.03 27.6667 1049.69 27.8C1049.35 27.9267 1048.99 28.0167 1048.63 28.07C1048.26 28.1233 1047.9 28.15 1047.54 28.15C1046.9 28.15 1046.31 28.0333 1045.75 27.8C1045.19 27.56 1044.7 27.2133 1044.28 26.76C1043.86 26.3067 1043.53 25.7533 1043.29 25.1C1043.05 24.44 1042.93 23.69 1042.93 22.85C1042.93 22.0967 1043.03 21.4 1043.25 20.76C1043.47 20.1133 1043.79 19.5567 1044.21 19.09C1044.63 18.6167 1045.15 18.2467 1045.77 17.98C1046.39 17.7133 1047.1 17.58 1047.91 17.58C1048.67 17.58 1049.34 17.7033 1049.92 17.95C1050.5 18.1967 1051.02 18.55 1051.48 19.01L1050.83 19.91ZM1055.78 17.74V28H1053.31V17.74H1055.78ZM1056.15 14.75C1056.15 14.9633 1056.1 15.1633 1056.02 15.35C1055.93 15.5367 1055.81 15.7 1055.67 15.84C1055.53 15.98 1055.36 16.0933 1055.17 16.18C1054.97 16.26 1054.77 16.3 1054.55 16.3C1054.33 16.3 1054.13 16.26 1053.94 16.18C1053.75 16.0933 1053.59 15.98 1053.45 15.84C1053.31 15.7 1053.19 15.5367 1053.11 15.35C1053.03 15.1633 1052.99 14.9633 1052.99 14.75C1052.99 14.53 1053.03 14.3233 1053.11 14.13C1053.19 13.9367 1053.31 13.77 1053.45 13.63C1053.59 13.49 1053.75 13.38 1053.94 13.3C1054.13 13.2133 1054.33 13.17 1054.55 13.17C1054.77 13.17 1054.97 13.2133 1055.17 13.3C1055.36 13.38 1055.53 13.49 1055.67 13.63C1055.81 13.77 1055.93 13.9367 1056.02 14.13C1056.1 14.3233 1056.15 14.53 1056.15 14.75ZM1066.62 28H1065.51C1065.27 28 1065.09 27.9667 1064.96 27.9C1064.82 27.8267 1064.72 27.6833 1064.66 27.47L1064.44 26.74C1064.18 26.9733 1063.92 27.18 1063.67 27.36C1063.42 27.5333 1063.16 27.68 1062.9 27.8C1062.63 27.92 1062.35 28.01 1062.05 28.07C1061.75 28.13 1061.41 28.16 1061.05 28.16C1060.61 28.16 1060.21 28.1033 1059.85 27.99C1059.48 27.87 1059.16 27.6933 1058.9 27.46C1058.64 27.2267 1058.43 26.9367 1058.29 26.59C1058.14 26.2433 1058.07 25.84 1058.07 25.38C1058.07 24.9933 1058.17 24.6133 1058.37 24.24C1058.57 23.86 1058.91 23.52 1059.39 23.22C1059.86 22.9133 1060.49 22.66 1061.28 22.46C1062.06 22.26 1063.04 22.1467 1064.21 22.12V21.52C1064.21 20.8333 1064.06 20.3267 1063.77 20C1063.48 19.6667 1063.06 19.5 1062.51 19.5C1062.11 19.5 1061.77 19.5467 1061.51 19.64C1061.24 19.7333 1061.01 19.84 1060.81 19.96C1060.61 20.0733 1060.43 20.1767 1060.27 20.27C1060.1 20.3633 1059.92 20.41 1059.72 20.41C1059.55 20.41 1059.41 20.3667 1059.29 20.28C1059.17 20.1933 1059.07 20.0867 1059 19.96L1058.55 19.17C1059.73 18.09 1061.15 17.55 1062.82 17.55C1063.42 17.55 1063.95 17.65 1064.42 17.85C1064.89 18.0433 1065.29 18.3167 1065.62 18.67C1065.94 19.0167 1066.19 19.4333 1066.36 19.92C1066.53 20.4067 1066.62 20.94 1066.62 21.52V28ZM1061.82 26.46C1062.07 26.46 1062.3 26.4367 1062.52 26.39C1062.73 26.3433 1062.93 26.2733 1063.12 26.18C1063.31 26.0867 1063.49 25.9733 1063.67 25.84C1063.85 25.7 1064.03 25.5367 1064.21 25.35V23.62C1063.49 23.6533 1062.88 23.7167 1062.4 23.81C1061.92 23.8967 1061.53 24.01 1061.24 24.15C1060.94 24.29 1060.73 24.4533 1060.61 24.64C1060.49 24.8267 1060.43 25.03 1060.43 25.25C1060.43 25.6833 1060.55 25.9933 1060.81 26.18C1061.07 26.3667 1061.4 26.46 1061.82 26.46ZM1071.68 13.14V28H1069.21V13.14H1071.68ZM1085.74 22C1085.86 22.2133 1085.96 22.4367 1086.05 22.67C1086.15 22.8967 1086.25 23.1267 1086.34 23.36C1086.44 23.12 1086.53 22.8833 1086.63 22.65C1086.73 22.4167 1086.84 22.1933 1086.95 21.98L1091.23 13.97C1091.29 13.87 1091.34 13.79 1091.39 13.73C1091.45 13.67 1091.52 13.6267 1091.58 13.6C1091.66 13.5733 1091.74 13.5567 1091.82 13.55C1091.91 13.5433 1092.01 13.54 1092.13 13.54H1094.16V28H1091.79V18.66C1091.79 18.4867 1091.8 18.2967 1091.8 18.09C1091.82 17.8833 1091.83 17.6733 1091.85 17.46L1087.48 25.66C1087.38 25.8467 1087.25 25.9933 1087.09 26.1C1086.93 26.2 1086.75 26.25 1086.53 26.25H1086.16C1085.95 26.25 1085.76 26.2 1085.6 26.1C1085.44 25.9933 1085.31 25.8467 1085.21 25.66L1080.78 17.43C1080.81 17.65 1080.83 17.8667 1080.83 18.08C1080.85 18.2867 1080.85 18.48 1080.85 18.66V28H1078.48V13.54H1080.51C1080.63 13.54 1080.74 13.5433 1080.82 13.55C1080.91 13.5567 1080.99 13.5733 1081.05 13.6C1081.13 13.6267 1081.19 13.67 1081.25 13.73C1081.31 13.79 1081.37 13.87 1081.42 13.97L1085.74 22ZM1101.18 17.58C1101.82 17.58 1102.42 17.6833 1102.96 17.89C1103.5 18.0967 1103.97 18.4 1104.37 18.8C1104.76 19.1933 1105.07 19.68 1105.29 20.26C1105.51 20.8333 1105.62 21.49 1105.62 22.23C1105.62 22.4167 1105.61 22.5733 1105.59 22.7C1105.57 22.82 1105.54 22.9167 1105.5 22.99C1105.46 23.0567 1105.4 23.1067 1105.33 23.14C1105.25 23.1667 1105.16 23.18 1105.05 23.18H1098.71C1098.78 24.2333 1099.06 25.0067 1099.56 25.5C1100.05 25.9933 1100.7 26.24 1101.52 26.24C1101.92 26.24 1102.26 26.1933 1102.55 26.1C1102.84 26.0067 1103.09 25.9033 1103.31 25.79C1103.53 25.6767 1103.72 25.5733 1103.88 25.48C1104.04 25.3867 1104.2 25.34 1104.36 25.34C1104.46 25.34 1104.54 25.36 1104.62 25.4C1104.69 25.44 1104.75 25.4967 1104.81 25.57L1105.53 26.47C1105.25 26.79 1104.95 27.06 1104.61 27.28C1104.27 27.4933 1103.91 27.6667 1103.54 27.8C1103.17 27.9267 1102.79 28.0167 1102.41 28.07C1102.03 28.1233 1101.66 28.15 1101.3 28.15C1100.58 28.15 1099.92 28.0333 1099.31 27.8C1098.69 27.56 1098.16 27.21 1097.71 26.75C1097.25 26.2833 1096.9 25.71 1096.64 25.03C1096.38 24.3433 1096.25 23.55 1096.25 22.65C1096.25 21.95 1096.36 21.2933 1096.59 20.68C1096.81 20.06 1097.14 19.5233 1097.56 19.07C1097.98 18.61 1098.5 18.2467 1099.11 17.98C1099.72 17.7133 1100.41 17.58 1101.18 17.58ZM1101.23 19.35C1100.51 19.35 1099.94 19.5533 1099.54 19.96C1099.13 20.3667 1098.87 20.9433 1098.76 21.69H1103.4C1103.4 21.37 1103.35 21.07 1103.27 20.79C1103.18 20.5033 1103.05 20.2533 1102.87 20.04C1102.69 19.8267 1102.46 19.66 1102.19 19.54C1101.91 19.4133 1101.59 19.35 1101.23 19.35ZM1114.84 28C1114.52 28 1114.31 27.85 1114.21 27.55L1114.01 26.56C1113.8 26.8 1113.57 27.0167 1113.34 27.21C1113.11 27.4033 1112.85 27.57 1112.58 27.71C1112.31 27.85 1112.02 27.9567 1111.71 28.03C1111.4 28.11 1111.07 28.15 1110.71 28.15C1110.15 28.15 1109.64 28.0333 1109.17 27.8C1108.7 27.5667 1108.3 27.23 1107.96 26.79C1107.63 26.3433 1107.37 25.7933 1107.18 25.14C1107 24.4867 1106.91 23.74 1106.91 22.9C1106.91 22.14 1107.01 21.4333 1107.22 20.78C1107.43 20.1267 1107.72 19.56 1108.11 19.08C1108.5 18.6 1108.96 18.2267 1109.5 17.96C1110.04 17.6867 1110.65 17.55 1111.32 17.55C1111.89 17.55 1112.38 17.6433 1112.79 17.83C1113.2 18.01 1113.56 18.2533 1113.88 18.56V13.14H1116.35V28H1114.84ZM1111.55 26.19C1112.06 26.19 1112.5 26.0833 1112.86 25.87C1113.22 25.6567 1113.56 25.3533 1113.88 24.96V20.36C1113.6 20.02 1113.29 19.78 1112.96 19.64C1112.63 19.5 1112.28 19.43 1111.9 19.43C1111.53 19.43 1111.19 19.5 1110.88 19.64C1110.58 19.78 1110.32 19.9933 1110.11 20.28C1109.9 20.56 1109.74 20.92 1109.63 21.36C1109.52 21.7933 1109.46 22.3067 1109.46 22.9C1109.46 23.5 1109.51 24.01 1109.6 24.43C1109.7 24.8433 1109.84 25.1833 1110.02 25.45C1110.2 25.71 1110.42 25.9 1110.68 26.02C1110.94 26.1333 1111.23 26.19 1111.55 26.19ZM1121.66 17.74V28H1119.19V17.74H1121.66ZM1122.03 14.75C1122.03 14.9633 1121.98 15.1633 1121.9 15.35C1121.81 15.5367 1121.69 15.7 1121.55 15.84C1121.41 15.98 1121.24 16.0933 1121.05 16.18C1120.85 16.26 1120.65 16.3 1120.43 16.3C1120.21 16.3 1120.01 16.26 1119.82 16.18C1119.63 16.0933 1119.47 15.98 1119.33 15.84C1119.19 15.7 1119.07 15.5367 1118.99 15.35C1118.91 15.1633 1118.87 14.9633 1118.87 14.75C1118.87 14.53 1118.91 14.3233 1118.99 14.13C1119.07 13.9367 1119.19 13.77 1119.33 13.63C1119.47 13.49 1119.63 13.38 1119.82 13.3C1120.01 13.2133 1120.21 13.17 1120.43 13.17C1120.65 13.17 1120.85 13.2133 1121.05 13.3C1121.24 13.38 1121.41 13.49 1121.55 13.63C1121.69 13.77 1121.81 13.9367 1121.9 14.13C1121.98 14.3233 1122.03 14.53 1122.03 14.75ZM1132.5 28H1131.39C1131.15 28 1130.97 27.9667 1130.84 27.9C1130.7 27.8267 1130.6 27.6833 1130.54 27.47L1130.32 26.74C1130.06 26.9733 1129.8 27.18 1129.55 27.36C1129.3 27.5333 1129.04 27.68 1128.78 27.8C1128.51 27.92 1128.23 28.01 1127.93 28.07C1127.63 28.13 1127.29 28.16 1126.93 28.16C1126.49 28.16 1126.09 28.1033 1125.73 27.99C1125.36 27.87 1125.04 27.6933 1124.78 27.46C1124.52 27.2267 1124.31 26.9367 1124.17 26.59C1124.02 26.2433 1123.95 25.84 1123.95 25.38C1123.95 24.9933 1124.05 24.6133 1124.25 24.24C1124.45 23.86 1124.79 23.52 1125.27 23.22C1125.74 22.9133 1126.37 22.66 1127.16 22.46C1127.94 22.26 1128.92 22.1467 1130.09 22.12V21.52C1130.09 20.8333 1129.94 20.3267 1129.65 20C1129.36 19.6667 1128.94 19.5 1128.39 19.5C1127.99 19.5 1127.65 19.5467 1127.39 19.64C1127.12 19.7333 1126.89 19.84 1126.69 19.96C1126.49 20.0733 1126.31 20.1767 1126.15 20.27C1125.98 20.3633 1125.8 20.41 1125.6 20.41C1125.43 20.41 1125.29 20.3667 1125.17 20.28C1125.05 20.1933 1124.95 20.0867 1124.88 19.96L1124.43 19.17C1125.61 18.09 1127.03 17.55 1128.7 17.55C1129.3 17.55 1129.83 17.65 1130.3 17.85C1130.77 18.0433 1131.17 18.3167 1131.5 18.67C1131.82 19.0167 1132.07 19.4333 1132.24 19.92C1132.41 20.4067 1132.5 20.94 1132.5 21.52V28ZM1127.7 26.46C1127.95 26.46 1128.18 26.4367 1128.4 26.39C1128.61 26.3433 1128.81 26.2733 1129 26.18C1129.19 26.0867 1129.37 25.9733 1129.55 25.84C1129.73 25.7 1129.91 25.5367 1130.09 25.35V23.62C1129.37 23.6533 1128.76 23.7167 1128.28 23.81C1127.8 23.8967 1127.41 24.01 1127.12 24.15C1126.82 24.29 1126.61 24.4533 1126.49 24.64C1126.37 24.8267 1126.31 25.03 1126.31 25.25C1126.31 25.6833 1126.43 25.9933 1126.69 26.18C1126.95 26.3667 1127.28 26.46 1127.7 26.46ZM1146.19 22C1146.31 22.2133 1146.41 22.4367 1146.5 22.67C1146.6 22.8967 1146.7 23.1267 1146.79 23.36C1146.89 23.12 1146.98 22.8833 1147.08 22.65C1147.18 22.4167 1147.29 22.1933 1147.4 21.98L1151.68 13.97C1151.74 13.87 1151.79 13.79 1151.84 13.73C1151.9 13.67 1151.97 13.6267 1152.03 13.6C1152.11 13.5733 1152.19 13.5567 1152.27 13.55C1152.36 13.5433 1152.46 13.54 1152.58 13.54H1154.61V28H1152.24V18.66C1152.24 18.4867 1152.25 18.2967 1152.25 18.09C1152.27 17.8833 1152.28 17.6733 1152.3 17.46L1147.93 25.66C1147.83 25.8467 1147.7 25.9933 1147.54 26.1C1147.38 26.2 1147.2 26.25 1146.98 26.25H1146.61C1146.4 26.25 1146.21 26.2 1146.05 26.1C1145.89 25.9933 1145.76 25.8467 1145.66 25.66L1141.23 17.43C1141.26 17.65 1141.28 17.8667 1141.28 18.08C1141.3 18.2867 1141.3 18.48 1141.3 18.66V28H1138.93V13.54H1140.96C1141.08 13.54 1141.19 13.5433 1141.27 13.55C1141.36 13.5567 1141.44 13.5733 1141.5 13.6C1141.58 13.6267 1141.64 13.67 1141.7 13.73C1141.76 13.79 1141.82 13.87 1141.87 13.97L1146.19 22ZM1165.43 28H1164.32C1164.08 28 1163.9 27.9667 1163.77 27.9C1163.63 27.8267 1163.53 27.6833 1163.47 27.47L1163.25 26.74C1162.99 26.9733 1162.73 27.18 1162.48 27.36C1162.23 27.5333 1161.97 27.68 1161.71 27.8C1161.44 27.92 1161.16 28.01 1160.86 28.07C1160.56 28.13 1160.22 28.16 1159.86 28.16C1159.42 28.16 1159.02 28.1033 1158.66 27.99C1158.29 27.87 1157.97 27.6933 1157.71 27.46C1157.45 27.2267 1157.24 26.9367 1157.1 26.59C1156.95 26.2433 1156.88 25.84 1156.88 25.38C1156.88 24.9933 1156.98 24.6133 1157.18 24.24C1157.38 23.86 1157.72 23.52 1158.2 23.22C1158.67 22.9133 1159.3 22.66 1160.09 22.46C1160.87 22.26 1161.85 22.1467 1163.02 22.12V21.52C1163.02 20.8333 1162.87 20.3267 1162.58 20C1162.29 19.6667 1161.87 19.5 1161.32 19.5C1160.92 19.5 1160.58 19.5467 1160.32 19.64C1160.05 19.7333 1159.82 19.84 1159.62 19.96C1159.42 20.0733 1159.24 20.1767 1159.08 20.27C1158.91 20.3633 1158.73 20.41 1158.53 20.41C1158.36 20.41 1158.22 20.3667 1158.1 20.28C1157.98 20.1933 1157.88 20.0867 1157.81 19.96L1157.36 19.17C1158.54 18.09 1159.96 17.55 1161.63 17.55C1162.23 17.55 1162.76 17.65 1163.23 17.85C1163.7 18.0433 1164.1 18.3167 1164.43 18.67C1164.75 19.0167 1165 19.4333 1165.17 19.92C1165.34 20.4067 1165.43 20.94 1165.43 21.52V28ZM1160.63 26.46C1160.88 26.46 1161.11 26.4367 1161.33 26.39C1161.54 26.3433 1161.74 26.2733 1161.93 26.18C1162.12 26.0867 1162.3 25.9733 1162.48 25.84C1162.66 25.7 1162.84 25.5367 1163.02 25.35V23.62C1162.3 23.6533 1161.69 23.7167 1161.21 23.81C1160.73 23.8967 1160.34 24.01 1160.05 24.15C1159.75 24.29 1159.54 24.4533 1159.42 24.64C1159.3 24.8267 1159.24 25.03 1159.24 25.25C1159.24 25.6833 1159.36 25.9933 1159.62 26.18C1159.88 26.3667 1160.21 26.46 1160.63 26.46ZM1167.86 28V17.74H1169.31C1169.56 17.74 1169.74 17.7867 1169.84 17.88C1169.94 17.9733 1170 18.1333 1170.04 18.36L1170.19 19.6C1170.55 18.9667 1170.98 18.4667 1171.48 18.1C1171.97 17.7333 1172.52 17.55 1173.14 17.55C1173.64 17.55 1174.06 17.6667 1174.4 17.9L1174.08 19.75C1174.06 19.87 1174.01 19.9567 1173.95 20.01C1173.88 20.0567 1173.79 20.08 1173.68 20.08C1173.58 20.08 1173.44 20.0567 1173.27 20.01C1173.09 19.9633 1172.86 19.94 1172.58 19.94C1172.06 19.94 1171.62 20.0833 1171.26 20.37C1170.89 20.65 1170.58 21.0633 1170.33 21.61V28H1167.86ZM1178.52 13.14V21.65H1178.98C1179.15 21.65 1179.28 21.6267 1179.37 21.58C1179.46 21.5333 1179.56 21.4467 1179.67 21.32L1182.22 18.17C1182.33 18.0367 1182.45 17.9333 1182.58 17.86C1182.71 17.78 1182.87 17.74 1183.08 17.74H1185.34L1182.15 21.55C1182.04 21.69 1181.92 21.82 1181.8 21.94C1181.68 22.0533 1181.55 22.1533 1181.41 22.24C1181.55 22.34 1181.67 22.4567 1181.78 22.59C1181.89 22.7233 1181.99 22.8667 1182.1 23.02L1185.52 28H1183.29C1183.1 28 1182.93 27.9667 1182.8 27.9C1182.67 27.8333 1182.55 27.72 1182.44 27.56L1179.83 23.67C1179.73 23.5167 1179.63 23.4167 1179.53 23.37C1179.43 23.3233 1179.28 23.3 1179.08 23.3H1178.52V28H1176.05V13.14H1178.52ZM1190.69 17.58C1191.34 17.58 1191.93 17.6833 1192.47 17.89C1193.02 18.0967 1193.49 18.4 1193.88 18.8C1194.27 19.1933 1194.58 19.68 1194.8 20.26C1195.02 20.8333 1195.13 21.49 1195.13 22.23C1195.13 22.4167 1195.12 22.5733 1195.1 22.7C1195.09 22.82 1195.06 22.9167 1195.01 22.99C1194.97 23.0567 1194.91 23.1067 1194.84 23.14C1194.77 23.1667 1194.67 23.18 1194.56 23.18H1188.22C1188.29 24.2333 1188.58 25.0067 1189.07 25.5C1189.56 25.9933 1190.22 26.24 1191.03 26.24C1191.43 26.24 1191.77 26.1933 1192.06 26.1C1192.35 26.0067 1192.61 25.9033 1192.82 25.79C1193.04 25.6767 1193.23 25.5733 1193.39 25.48C1193.56 25.3867 1193.72 25.34 1193.87 25.34C1193.97 25.34 1194.06 25.36 1194.13 25.4C1194.2 25.44 1194.27 25.4967 1194.32 25.57L1195.04 26.47C1194.77 26.79 1194.46 27.06 1194.12 27.28C1193.78 27.4933 1193.42 27.6667 1193.05 27.8C1192.68 27.9267 1192.31 28.0167 1191.92 28.07C1191.54 28.1233 1191.17 28.15 1190.81 28.15C1190.1 28.15 1189.43 28.0333 1188.82 27.8C1188.21 27.56 1187.67 27.21 1187.22 26.75C1186.77 26.2833 1186.41 25.71 1186.15 25.03C1185.89 24.3433 1185.76 23.55 1185.76 22.65C1185.76 21.95 1185.87 21.2933 1186.1 20.68C1186.33 20.06 1186.65 19.5233 1187.07 19.07C1187.5 18.61 1188.01 18.2467 1188.62 17.98C1189.23 17.7133 1189.92 17.58 1190.69 17.58ZM1190.74 19.35C1190.02 19.35 1189.46 19.5533 1189.05 19.96C1188.64 20.3667 1188.38 20.9433 1188.27 21.69H1192.91C1192.91 21.37 1192.87 21.07 1192.78 20.79C1192.69 20.5033 1192.56 20.2533 1192.38 20.04C1192.2 19.8267 1191.97 19.66 1191.7 19.54C1191.43 19.4133 1191.11 19.35 1190.74 19.35ZM1200.5 28.16C1199.62 28.16 1198.93 27.91 1198.45 27.41C1197.97 26.9033 1197.73 26.2067 1197.73 25.32V19.59H1196.69C1196.56 19.59 1196.44 19.5467 1196.34 19.46C1196.25 19.3733 1196.2 19.2433 1196.2 19.07V18.09L1197.85 17.82L1198.37 15.02C1198.4 14.8867 1198.46 14.7833 1198.55 14.71C1198.65 14.6367 1198.78 14.6 1198.92 14.6H1200.2V17.83H1202.9V19.59H1200.2V25.15C1200.2 25.47 1200.28 25.72 1200.44 25.9C1200.6 26.08 1200.82 26.17 1201.08 26.17C1201.24 26.17 1201.36 26.1533 1201.46 26.12C1201.57 26.08 1201.66 26.04 1201.73 26C1201.81 25.96 1201.88 25.9233 1201.94 25.89C1202 25.85 1202.06 25.83 1202.12 25.83C1202.2 25.83 1202.26 25.85 1202.3 25.89C1202.35 25.9233 1202.4 25.9767 1202.45 26.05L1203.19 27.25C1202.83 27.55 1202.42 27.7767 1201.95 27.93C1201.49 28.0833 1201 28.16 1200.5 28.16ZM1207.5 17.74V28H1205.03V17.74H1207.5ZM1207.87 14.75C1207.87 14.9633 1207.82 15.1633 1207.74 15.35C1207.65 15.5367 1207.53 15.7 1207.39 15.84C1207.25 15.98 1207.08 16.0933 1206.89 16.18C1206.69 16.26 1206.49 16.3 1206.27 16.3C1206.05 16.3 1205.85 16.26 1205.66 16.18C1205.47 16.0933 1205.31 15.98 1205.17 15.84C1205.03 15.7 1204.91 15.5367 1204.83 15.35C1204.75 15.1633 1204.71 14.9633 1204.71 14.75C1204.71 14.53 1204.75 14.3233 1204.83 14.13C1204.91 13.9367 1205.03 13.77 1205.17 13.63C1205.31 13.49 1205.47 13.38 1205.66 13.3C1205.85 13.2133 1206.05 13.17 1206.27 13.17C1206.49 13.17 1206.69 13.2133 1206.89 13.3C1207.08 13.38 1207.25 13.49 1207.39 13.63C1207.53 13.77 1207.65 13.9367 1207.74 14.13C1207.82 14.3233 1207.87 14.53 1207.87 14.75ZM1210.3 28V17.74H1211.81C1212.13 17.74 1212.34 17.89 1212.44 18.19L1212.61 19C1212.81 18.7867 1213.03 18.5933 1213.26 18.42C1213.49 18.2467 1213.73 18.0967 1213.99 17.97C1214.25 17.8433 1214.52 17.7467 1214.82 17.68C1215.11 17.6133 1215.43 17.58 1215.78 17.58C1216.34 17.58 1216.83 17.6767 1217.27 17.87C1217.7 18.0567 1218.06 18.3233 1218.35 18.67C1218.64 19.01 1218.86 19.42 1219.01 19.9C1219.16 20.3733 1219.24 20.8967 1219.24 21.47V28H1216.77V21.47C1216.77 20.8433 1216.62 20.36 1216.33 20.02C1216.04 19.6733 1215.61 19.5 1215.03 19.5C1214.6 19.5 1214.2 19.5967 1213.83 19.79C1213.45 19.9833 1213.1 20.2467 1212.77 20.58V28H1210.3ZM1225.21 17.56C1225.65 17.56 1226.07 17.6067 1226.45 17.7C1226.84 17.7867 1227.19 17.9167 1227.51 18.09H1230.46V19.01C1230.46 19.1633 1230.42 19.2833 1230.34 19.37C1230.26 19.4567 1230.13 19.5167 1229.93 19.55L1229.01 19.72C1229.08 19.8933 1229.13 20.0767 1229.16 20.27C1229.2 20.4633 1229.22 20.6667 1229.22 20.88C1229.22 21.3867 1229.12 21.8467 1228.91 22.26C1228.71 22.6667 1228.43 23.0133 1228.07 23.3C1227.72 23.5867 1227.3 23.81 1226.8 23.97C1226.32 24.1233 1225.79 24.2 1225.21 24.2C1224.83 24.2 1224.45 24.1633 1224.08 24.09C1223.76 24.2833 1223.6 24.5 1223.6 24.74C1223.6 24.9467 1223.7 25.1 1223.88 25.2C1224.08 25.2933 1224.33 25.36 1224.63 25.4C1224.95 25.44 1225.3 25.4667 1225.69 25.48C1226.09 25.4867 1226.49 25.5067 1226.9 25.54C1227.32 25.5733 1227.72 25.6333 1228.11 25.72C1228.51 25.8 1228.86 25.93 1229.16 26.11C1229.48 26.29 1229.73 26.5367 1229.91 26.85C1230.11 27.1567 1230.2 27.5533 1230.2 28.04C1230.2 28.4933 1230.09 28.9333 1229.86 29.36C1229.64 29.7867 1229.32 30.1667 1228.89 30.5C1228.47 30.8333 1227.96 31.1 1227.34 31.3C1226.73 31.5067 1226.03 31.61 1225.24 31.61C1224.46 31.61 1223.79 31.5333 1223.21 31.38C1222.64 31.2333 1222.16 31.0333 1221.78 30.78C1221.41 30.5333 1221.13 30.2467 1220.94 29.92C1220.76 29.5933 1220.66 29.2533 1220.66 28.9C1220.66 28.42 1220.81 28.0167 1221.1 27.69C1221.4 27.3633 1221.8 27.1033 1222.32 26.91C1222.07 26.77 1221.87 26.5833 1221.71 26.35C1221.56 26.1167 1221.48 25.8133 1221.48 25.44C1221.48 25.2867 1221.51 25.13 1221.56 24.97C1221.62 24.8033 1221.7 24.64 1221.8 24.48C1221.92 24.32 1222.06 24.17 1222.22 24.03C1222.39 23.8833 1222.59 23.7533 1222.81 23.64C1222.29 23.36 1221.88 22.9867 1221.58 22.52C1221.29 22.0533 1221.14 21.5067 1221.14 20.88C1221.14 20.3733 1221.24 19.9167 1221.44 19.51C1221.65 19.0967 1221.93 18.7467 1222.29 18.46C1222.66 18.1667 1223.09 17.9433 1223.58 17.79C1224.08 17.6367 1224.63 17.56 1225.21 17.56ZM1227.92 28.46C1227.92 28.26 1227.86 28.0967 1227.74 27.97C1227.62 27.8433 1227.46 27.7467 1227.25 27.68C1227.05 27.6067 1226.8 27.5533 1226.52 27.52C1226.25 27.4867 1225.96 27.4633 1225.64 27.45C1225.34 27.43 1225.02 27.4133 1224.68 27.4C1224.36 27.38 1224.04 27.35 1223.73 27.31C1223.45 27.4633 1223.23 27.6467 1223.05 27.86C1222.89 28.0667 1222.8 28.3067 1222.8 28.58C1222.8 28.76 1222.85 28.9267 1222.93 29.08C1223.03 29.24 1223.17 29.3767 1223.36 29.49C1223.56 29.6033 1223.82 29.69 1224.13 29.75C1224.45 29.8167 1224.83 29.85 1225.28 29.85C1225.74 29.85 1226.14 29.8133 1226.47 29.74C1226.81 29.6733 1227.08 29.5767 1227.29 29.45C1227.51 29.33 1227.67 29.1833 1227.77 29.01C1227.87 28.8433 1227.92 28.66 1227.92 28.46ZM1225.21 22.62C1225.52 22.62 1225.79 22.58 1226.01 22.5C1226.24 22.4133 1226.43 22.2967 1226.57 22.15C1226.73 22.0033 1226.84 21.8267 1226.91 21.62C1226.99 21.4133 1227.03 21.1867 1227.03 20.94C1227.03 20.4333 1226.88 20.0333 1226.57 19.74C1226.27 19.44 1225.82 19.29 1225.21 19.29C1224.61 19.29 1224.15 19.44 1223.84 19.74C1223.54 20.0333 1223.39 20.4333 1223.39 20.94C1223.39 21.18 1223.43 21.4033 1223.5 21.61C1223.58 21.8167 1223.7 21.9967 1223.84 22.15C1224 22.2967 1224.19 22.4133 1224.41 22.5C1224.65 22.58 1224.91 22.62 1225.21 22.62Z" fill="white"/>
</g>
<defs>
<linearGradient id="paint0_linear_2196_2252" x1="349" y1="40" x2="349.16" y2="-0.00335987" gradientUnits="userSpaceOnUse">
<stop stop-color="#DADBDD" stop-opacity="0"/>
<stop offset="0.123257" stop-color="#DADBDD" stop-opacity="0.5"/>
<stop offset="0.519097" stop-color="#DADBDD"/>
<stop offset="0.878479" stop-color="#DADBDD" stop-opacity="0.5"/>
<stop offset="1" stop-color="#DADBDD" stop-opacity="0"/>
</linearGradient>
<linearGradient id="paint1_linear_2196_2252" x1="768" y1="40" x2="768.16" y2="-0.00335987" gradientUnits="userSpaceOnUse">
<stop stop-color="#DADBDD" stop-opacity="0"/>
<stop offset="0.123257" stop-color="#DADBDD" stop-opacity="0.5"/>
<stop offset="0.519097" stop-color="#DADBDD"/>
<stop offset="0.878479" stop-color="#DADBDD" stop-opacity="0.5"/>
<stop offset="1" stop-color="#DADBDD" stop-opacity="0"/>
</linearGradient>
<clipPath id="clip0_2196_2252">
<rect width="256" height="40" fill="white"/>
</clipPath>
<clipPath id="clip1_2196_2252">
<rect width="40" height="40" fill="white"/>
</clipPath>
<clipPath id="clip2_2196_2252">
<rect width="231" height="40" fill="white" transform="translate(444)"/>
</clipPath>
<clipPath id="clip3_2196_2252">
<rect width="368" height="40" fill="white" transform="translate(863)"/>
</clipPath>
<clipPath id="clip4_2196_2252">
<rect width="40" height="40" fill="white" transform="translate(863)"/>
</clipPath>
</defs>
</svg>
