<svg width="398" height="397" viewBox="0 0 398 397" fill="none" xmlns="http://www.w3.org/2000/svg">
<rect width="195.33" height="209.432" rx="3" transform="matrix(-1 0 0 1 389.336 13.1328)" fill="white"/>
<path d="M194.006 13.1328V222.565H389.336" stroke="#1E212C" stroke-width="1.5"/>
<rect width="87.8607" height="15.4465" transform="matrix(-1 0 0 1 335.602 6.49316)" fill="#00F0B5"/>
<path d="M291.67 12.7959C288.378 12.7959 285.71 10.1317 285.71 6.84521C285.71 3.55874 288.378 0.894531 291.67 0.894531C294.962 0.894531 297.631 3.55874 297.631 6.84521C297.631 10.1317 294.962 12.7959 291.67 12.7959Z" fill="#00F0B5"/>
<rect width="87.8607" height="15.4465" transform="matrix(-1 0 0 1 335.602 6.49316)" fill="#D7DADD"/>
<path d="M247.741 6.49219V21.9387H335.602" stroke="#1E212C" stroke-width="1.5"/>
<path d="M291.67 12.7959C288.378 12.7959 285.71 10.1317 285.71 6.84521C285.71 3.55874 288.378 0.894531 291.67 0.894531C294.962 0.894531 297.631 3.55874 297.631 6.84521C297.631 10.1317 294.962 12.7959 291.67 12.7959Z" fill="#D7DADD"/>
<path d="M291.671 222.564V388.703" stroke="white" stroke-width="1.5"/>
<path d="M397.391 388.703H185.952" stroke="white" stroke-width="1.5"/>
<path d="M22.726 380.291V367.5L34.5535 378.323L38.4956 344.377L69.542 366.516L73.4841 351.757L84.3253 362.58V344.869L97.6307 360.612L109.458 325.19L124.242 361.621L145.925 334.538L162.187 371.436V353.724L171.55 370.944L177.957 347.821L195.697 375.371L222.801 341.425L231.178 374.879L239.063 365.532L244.977 388.703H17.3054L15.3346 379.799L22.726 380.291Z" fill="#00F0B5"/>
<path d="M257.811 388.704H2.49926" stroke="white" stroke-width="1.5"/>
<path d="M81.9203 152.4L138.045 148.716L152.58 205.948L185.951 387.555H140.529L145.819 378.091L81.9203 152.4Z" fill="#D7DADD"/>
<path d="M74.6183 377.536L71.858 274.196L116.023 282.464L105.769 387.555H68.0234L74.6183 377.536Z" fill="#B3B7BC"/>
<path d="M88.1555 277.247L116.023 282.464L114.793 295.069C91.6034 291.946 75.6327 285.729 75.6327 285.729L88.1555 277.247Z" fill="#1E212C"/>
<path d="M143.515 239.75C143.515 239.75 150.541 241.913 159.838 245.443L168.818 294.316C152.447 297.298 136.505 297.288 122.567 295.962L112.583 260.701L143.515 239.75Z" fill="#1E212C"/>
<path d="M143.516 153.527L198.789 267.95C198.789 267.95 133.234 302.394 68.0242 283.794V165.303L143.516 153.527Z" fill="#00F0B5"/>
<path d="M122.951 39.4536V47.9422C122.951 54.5059 118.463 60.2216 112.078 61.7882L98.5472 65.1083V31.9196L109.798 29.159C112.966 28.3816 116.316 29.1013 118.884 31.1108C121.451 33.1203 122.951 36.1966 122.951 39.4536L122.951 39.4536Z" fill="#D7DADD"/>
<path d="M122.951 47.9424C122.951 54.5061 118.463 60.2218 112.078 61.7884L98.5472 65.1085" stroke="#1E212C" stroke-width="1.5"/>
<path d="M109.164 46.2579C108.803 46.2579 108.511 45.9662 108.511 45.6065C108.511 45.2467 108.803 44.9551 109.164 44.9551C109.524 44.9551 109.816 45.2467 109.816 45.6065C109.816 45.9662 109.524 46.2579 109.164 46.2579Z" fill="#1E212C"/>
<path d="M119.187 46.2579C118.827 46.2579 118.535 45.9662 118.535 45.6065C118.535 45.2467 118.827 44.9551 119.187 44.9551C119.548 44.9551 119.84 45.2467 119.84 45.6065C119.84 45.9662 119.548 46.2579 119.187 46.2579Z" fill="#1E212C"/>
<path d="M116.248 49.493V39.4541H121.285" stroke="#1E212C" stroke-width="1.5"/>
<path d="M107.937 39.455H112.975" stroke="#1E212C" stroke-width="1.5"/>
<path d="M100.154 44.5975V48.0836C99.2497 48.0836 98.3822 47.7249 97.7426 47.0863C97.103 46.4478 96.7437 45.5817 96.7437 44.6787C96.7437 44.5742 96.7483 44.4709 96.7576 44.3687C96.9487 42.2544 100.154 42.4745 100.154 44.5975Z" fill="#E5E8ED"/>
<path d="M100.154 48.0837C99.2497 48.0837 98.3822 47.7249 97.7426 47.0864C97.103 46.4478 96.7437 45.5818 96.7437 44.6787" stroke="#1E212C" stroke-width="1.5"/>
<path d="M113.492 50.666C112.61 51.5465 111.18 51.5465 110.298 50.666" stroke="#1E212C" stroke-width="1.5" stroke-linecap="round" stroke-linejoin="round"/>
<path d="M116.246 49.5011L114.043 50.0417" stroke="#1E212C" stroke-width="1.5" stroke-linecap="round"/>
<path d="M118.534 59.9377L118.921 60.1138C121.431 61.2571 124.354 61.0237 126.649 59.4967C128.944 57.9697 130.286 55.3664 130.195 52.6142C129.753 39.951 126.769 22.3823 113.492 23.6396C113.492 23.6396 100.004 20.5536 94.5981 32.9544C89.1924 45.3553 95.8232 51.326 98.5461 52.7039" stroke="white" stroke-width="1.5"/>
<path d="M123.238 42.89C123.238 42.89 113.053 41.1067 111.897 34.2939C111.897 34.2939 106.851 42.732 99.8098 43.5459" stroke="white" stroke-width="1.5"/>
<path d="M143.516 100.326V153.527L68.0237 172.051V112.799C68.0237 91.7899 82.3906 73.4948 102.827 68.4803H102.827C112.628 66.0755 122.992 68.3019 130.934 74.5182C138.876 80.7345 143.516 90.2507 143.516 100.326L143.516 100.326Z" fill="#D7DADD"/>
<path d="M198.789 267.949C198.789 267.949 133.234 302.394 68.0242 283.794" stroke="#1E212C" stroke-width="1.5"/>
<path d="M88.2836 74.8887C88.2836 74.8887 51.2951 100.711 51.1562 139.165C50.9545 195.045 137.889 144.676 140.702 135.49L143.516 126.305C143.516 126.305 155.129 121.53 152.369 119.784C149.608 118.037 68.024 135.337 68.024 135.337" stroke="white" stroke-width="1.5"/>
<path d="M130.2 74.8887C130.2 74.8887 151.448 90.0208 160.189 129.52C160.189 129.52 174.451 109.795 179.511 102.204C184.572 94.6137 188.712 99.6659 188.712 99.6659C188.712 99.6659 194.602 90.9393 198.788 94.6137C202.974 98.288 191.777 161.302 150.91 168.835" stroke="white" stroke-width="1.5"/>
<path d="M147.431 124.59L233.031 82.5195" stroke="#00F0B5" stroke-width="1.5"/>
<path d="M309.06 57.9199C285.511 57.9199 266.42 76.9789 266.42 100.489C266.42 124 285.511 143.059 309.06 143.059C332.61 143.059 351.701 124 351.701 100.489H309.06V57.9199Z" fill="#D7DADD"/>
<path d="M266.42 100.489C266.42 124 285.511 143.059 309.06 143.059C332.61 143.059 351.701 124 351.701 100.489" stroke="#1E212C" stroke-width="1.5"/>
<path d="M351.701 100.489H309.061L343.379 125.755C348.797 118.443 351.715 109.585 351.701 100.489Z" fill="#1E212C"/>
<path d="M309.061 45.0459V100.49H364.597C364.597 85.7849 358.746 71.6826 348.331 61.2849C337.916 50.8873 323.79 45.0459 309.061 45.0459Z" fill="#00F0B5"/>
<path d="M309.061 100.49H364.597" stroke="#1E212C" stroke-width="1.5"/>
<rect width="26.5544" height="26.5102" transform="matrix(1 0 0 -1 306.49 200.676)" fill="#D7DADD"/>
<path d="M299.211 176.164L319.768 155.64L340.326 176.164H299.211Z" fill="#D7DADD"/>
<rect width="23.0147" height="22.9763" transform="matrix(1 0 0 -1 258.676 200.714)" fill="#9A9CA5"/>
<path d="M252.365 179.468L270.183 161.681L288 179.468H252.365Z" fill="#9A9CA5"/>
<rect width="15.6383" height="15.6123" transform="matrix(1 0 0 -1 221.229 200.894)" fill="#1E212C"/>
<path d="M216.941 186.458L229.048 174.371L241.154 186.458H216.941Z" fill="#1E212C"/>
</svg>
