<svg width="600" height="30" viewBox="0 0 600 30" fill="none" xmlns="http://www.w3.org/2000/svg">
<g clip-path="url(#clip0_1473_4468)">
<g clip-path="url(#clip1_1473_4468)">
<path fill-rule="evenodd" clip-rule="evenodd" d="M9.99577 5.83301C10.456 5.83301 10.8291 6.2061 10.8291 6.66634V14.1663H18.3291C18.7893 14.1663 19.1624 14.5394 19.1624 14.9997C19.1624 15.4599 18.7893 15.833 18.3291 15.833H10.8291V23.333C10.8291 23.7932 10.456 24.1663 9.99577 24.1663C9.53553 24.1663 9.16243 23.7932 9.16243 23.333V15.833H1.66243C1.2022 15.833 0.829102 15.4599 0.829102 14.9997C0.829102 14.5394 1.2022 14.1663 1.66243 14.1663H9.16243V6.66634C9.16243 6.2061 9.53553 5.83301 9.99577 5.83301Z" fill="#7772F1"/>
</g>
<path d="M55.3261 15.77C55.3261 16.83 55.1494 17.8133 54.7961 18.72C54.4428 19.62 53.9461 20.4 53.3061 21.06C52.6661 21.72 51.8961 22.2367 50.9961 22.61C50.0961 22.9767 49.0994 23.16 48.0061 23.16C46.9128 23.16 45.9128 22.9767 45.0061 22.61C44.1061 22.2367 43.3328 21.72 42.6861 21.06C42.0461 20.4 41.5494 19.62 41.1961 18.72C40.8428 17.8133 40.6661 16.83 40.6661 15.77C40.6661 14.71 40.8428 13.73 41.1961 12.83C41.5494 11.9233 42.0461 11.14 42.6861 10.48C43.3328 9.82 44.1061 9.30667 45.0061 8.94C45.9128 8.56667 46.9128 8.38 48.0061 8.38C49.0994 8.38 50.0961 8.56667 50.9961 8.94C51.8961 9.31333 52.6661 9.83 53.3061 10.49C53.9461 11.1433 54.4428 11.9233 54.7961 12.83C55.1494 13.73 55.3261 14.71 55.3261 15.77ZM52.5661 15.77C52.5661 14.9767 52.4594 14.2667 52.2461 13.64C52.0394 13.0067 51.7394 12.47 51.3461 12.03C50.9528 11.59 50.4728 11.2533 49.9061 11.02C49.3461 10.7867 48.7128 10.67 48.0061 10.67C47.2994 10.67 46.6628 10.7867 46.0961 11.02C45.5294 11.2533 45.0461 11.59 44.6461 12.03C44.2528 12.47 43.9494 13.0067 43.7361 13.64C43.5228 14.2667 43.4161 14.9767 43.4161 15.77C43.4161 16.5633 43.5228 17.2767 43.7361 17.91C43.9494 18.5367 44.2528 19.07 44.6461 19.51C45.0461 19.9433 45.5294 20.2767 46.0961 20.51C46.6628 20.7433 47.2994 20.86 48.0061 20.86C48.7128 20.86 49.3461 20.7433 49.9061 20.51C50.4728 20.2767 50.9528 19.9433 51.3461 19.51C51.7394 19.07 52.0394 18.5367 52.2461 17.91C52.4594 17.2767 52.5661 16.5633 52.5661 15.77ZM57.3122 23V12.74H58.7622C59.0155 12.74 59.1922 12.7867 59.2922 12.88C59.3922 12.9733 59.4589 13.1333 59.4922 13.36L59.6422 14.6C60.0089 13.9667 60.4389 13.4667 60.9322 13.1C61.4255 12.7333 61.9789 12.55 62.5922 12.55C63.0989 12.55 63.5189 12.6667 63.8522 12.9L63.5322 14.75C63.5122 14.87 63.4689 14.9567 63.4022 15.01C63.3355 15.0567 63.2455 15.08 63.1322 15.08C63.0322 15.08 62.8955 15.0567 62.7222 15.01C62.5489 14.9633 62.3189 14.94 62.0322 14.94C61.5189 14.94 61.0789 15.0833 60.7122 15.37C60.3455 15.65 60.0355 16.0633 59.7822 16.61V23H57.3122ZM72.6863 14.91C72.6129 15.0033 72.5396 15.0767 72.4663 15.13C72.3996 15.1833 72.2996 15.21 72.1663 15.21C72.0396 15.21 71.9163 15.1733 71.7963 15.1C71.6763 15.02 71.5329 14.9333 71.3663 14.84C71.1996 14.74 70.9996 14.6533 70.7663 14.58C70.5396 14.5 70.2563 14.46 69.9163 14.46C69.4829 14.46 69.1029 14.54 68.7763 14.7C68.4496 14.8533 68.1763 15.0767 67.9563 15.37C67.7429 15.6633 67.5829 16.02 67.4763 16.44C67.3696 16.8533 67.3163 17.3233 67.3163 17.85C67.3163 18.3967 67.3729 18.8833 67.4863 19.31C67.6063 19.7367 67.7763 20.0967 67.9963 20.39C68.2163 20.6767 68.4829 20.8967 68.7963 21.05C69.1096 21.1967 69.4629 21.27 69.8563 21.27C70.2496 21.27 70.5663 21.2233 70.8063 21.13C71.0529 21.03 71.2596 20.9233 71.4263 20.81C71.5929 20.69 71.7363 20.5833 71.8563 20.49C71.9829 20.39 72.1229 20.34 72.2763 20.34C72.4763 20.34 72.6263 20.4167 72.7263 20.57L73.4363 21.47C73.1629 21.79 72.8663 22.06 72.5463 22.28C72.2263 22.4933 71.8929 22.6667 71.5463 22.8C71.2063 22.9267 70.8529 23.0167 70.4863 23.07C70.1196 23.1233 69.7563 23.15 69.3963 23.15C68.7629 23.15 68.1663 23.0333 67.6063 22.8C67.0463 22.56 66.5563 22.2133 66.1363 21.76C65.7229 21.3067 65.3929 20.7533 65.1463 20.1C64.9063 19.44 64.7863 18.69 64.7863 17.85C64.7863 17.0967 64.8929 16.4 65.1063 15.76C65.3263 15.1133 65.6463 14.5567 66.0663 14.09C66.4863 13.6167 67.0063 13.2467 67.6263 12.98C68.2463 12.7133 68.9596 12.58 69.7663 12.58C70.5329 12.58 71.2029 12.7033 71.7763 12.95C72.3563 13.1967 72.8763 13.55 73.3363 14.01L72.6863 14.91ZM77.6375 12.74V23H75.1675V12.74H77.6375ZM78.0075 9.75C78.0075 9.96333 77.9642 10.1633 77.8775 10.35C77.7908 10.5367 77.6742 10.7 77.5275 10.84C77.3875 10.98 77.2208 11.0933 77.0275 11.18C76.8342 11.26 76.6275 11.3 76.4075 11.3C76.1942 11.3 75.9908 11.26 75.7975 11.18C75.6108 11.0933 75.4475 10.98 75.3075 10.84C75.1675 10.7 75.0542 10.5367 74.9675 10.35C74.8875 10.1633 74.8475 9.96333 74.8475 9.75C74.8475 9.53 74.8875 9.32333 74.9675 9.13C75.0542 8.93667 75.1675 8.77 75.3075 8.63C75.4475 8.49 75.6108 8.38 75.7975 8.3C75.9908 8.21333 76.1942 8.17 76.4075 8.17C76.6275 8.17 76.8342 8.21333 77.0275 8.3C77.2208 8.38 77.3875 8.49 77.5275 8.63C77.6742 8.77 77.7908 8.93667 77.8775 9.13C77.9642 9.32333 78.0075 9.53 78.0075 9.75ZM91.5144 14.91C91.441 15.0033 91.3677 15.0767 91.2944 15.13C91.2277 15.1833 91.1277 15.21 90.9944 15.21C90.8677 15.21 90.7444 15.1733 90.6244 15.1C90.5044 15.02 90.361 14.9333 90.1944 14.84C90.0277 14.74 89.8277 14.6533 89.5944 14.58C89.3677 14.5 89.0844 14.46 88.7444 14.46C88.311 14.46 87.931 14.54 87.6044 14.7C87.2777 14.8533 87.0044 15.0767 86.7844 15.37C86.571 15.6633 86.411 16.02 86.3044 16.44C86.1977 16.8533 86.1444 17.3233 86.1444 17.85C86.1444 18.3967 86.201 18.8833 86.3144 19.31C86.4344 19.7367 86.6044 20.0967 86.8244 20.39C87.0444 20.6767 87.311 20.8967 87.6244 21.05C87.9377 21.1967 88.291 21.27 88.6844 21.27C89.0777 21.27 89.3944 21.2233 89.6344 21.13C89.881 21.03 90.0877 20.9233 90.2544 20.81C90.421 20.69 90.5644 20.5833 90.6844 20.49C90.811 20.39 90.951 20.34 91.1044 20.34C91.3044 20.34 91.4544 20.4167 91.5544 20.57L92.2644 21.47C91.991 21.79 91.6944 22.06 91.3744 22.28C91.0544 22.4933 90.721 22.6667 90.3744 22.8C90.0344 22.9267 89.681 23.0167 89.3144 23.07C88.9477 23.1233 88.5844 23.15 88.2244 23.15C87.591 23.15 86.9944 23.0333 86.4344 22.8C85.8744 22.56 85.3844 22.2133 84.9644 21.76C84.551 21.3067 84.221 20.7533 83.9744 20.1C83.7344 19.44 83.6144 18.69 83.6144 17.85C83.6144 17.0967 83.721 16.4 83.9344 15.76C84.1544 15.1133 84.4744 14.5567 84.8944 14.09C85.3144 13.6167 85.8344 13.2467 86.4544 12.98C87.0744 12.7133 87.7877 12.58 88.5944 12.58C89.361 12.58 90.031 12.7033 90.6044 12.95C91.1844 13.1967 91.7044 13.55 92.1644 14.01L91.5144 14.91ZM98.2156 12.58C98.9823 12.58 99.6756 12.7033 100.296 12.95C100.922 13.1967 101.456 13.5467 101.896 14C102.336 14.4533 102.676 15.0067 102.916 15.66C103.156 16.3133 103.276 17.0433 103.276 17.85C103.276 18.6633 103.156 19.3967 102.916 20.05C102.676 20.7033 102.336 21.26 101.896 21.72C101.456 22.18 100.922 22.5333 100.296 22.78C99.6756 23.0267 98.9823 23.15 98.2156 23.15C97.449 23.15 96.7523 23.0267 96.1256 22.78C95.499 22.5333 94.9623 22.18 94.5156 21.72C94.0756 21.26 93.7323 20.7033 93.4856 20.05C93.2456 19.3967 93.1256 18.6633 93.1256 17.85C93.1256 17.0433 93.2456 16.3133 93.4856 15.66C93.7323 15.0067 94.0756 14.4533 94.5156 14C94.9623 13.5467 95.499 13.1967 96.1256 12.95C96.7523 12.7033 97.449 12.58 98.2156 12.58ZM98.2156 21.25C99.069 21.25 99.699 20.9633 100.106 20.39C100.519 19.8167 100.726 18.9767 100.726 17.87C100.726 16.7633 100.519 15.92 100.106 15.34C99.699 14.76 99.069 14.47 98.2156 14.47C97.349 14.47 96.709 14.7633 96.2956 15.35C95.8823 15.93 95.6756 16.77 95.6756 17.87C95.6756 18.97 95.8823 19.81 96.2956 20.39C96.709 20.9633 97.349 21.25 98.2156 21.25ZM105.203 23V12.74H106.713C107.033 12.74 107.243 12.89 107.343 13.19L107.503 13.95C107.683 13.75 107.869 13.5667 108.063 13.4C108.263 13.2333 108.473 13.09 108.693 12.97C108.919 12.85 109.159 12.7567 109.413 12.69C109.673 12.6167 109.956 12.58 110.263 12.58C110.909 12.58 111.439 12.7567 111.853 13.11C112.273 13.4567 112.586 13.92 112.793 14.5C112.953 14.16 113.153 13.87 113.393 13.63C113.633 13.3833 113.896 13.1833 114.183 13.03C114.469 12.8767 114.773 12.7633 115.093 12.69C115.419 12.6167 115.746 12.58 116.073 12.58C116.639 12.58 117.143 12.6667 117.583 12.84C118.023 13.0133 118.393 13.2667 118.693 13.6C118.993 13.9333 119.219 14.34 119.373 14.82C119.533 15.3 119.613 15.85 119.613 16.47V23H117.143V16.47C117.143 15.8167 116.999 15.3267 116.713 15C116.426 14.6667 116.006 14.5 115.453 14.5C115.199 14.5 114.963 14.5433 114.743 14.63C114.529 14.7167 114.339 14.8433 114.173 15.01C114.013 15.17 113.886 15.3733 113.793 15.62C113.699 15.8667 113.653 16.15 113.653 16.47V23H111.173V16.47C111.173 15.7833 111.033 15.2833 110.753 14.97C110.479 14.6567 110.073 14.5 109.533 14.5C109.179 14.5 108.846 14.59 108.533 14.77C108.226 14.9433 107.939 15.1833 107.673 15.49V23H105.203ZM122.039 23V12.74H123.549C123.869 12.74 124.079 12.89 124.179 13.19L124.339 13.95C124.519 13.75 124.705 13.5667 124.899 13.4C125.099 13.2333 125.309 13.09 125.529 12.97C125.755 12.85 125.995 12.7567 126.249 12.69C126.509 12.6167 126.792 12.58 127.099 12.58C127.745 12.58 128.275 12.7567 128.689 13.11C129.109 13.4567 129.422 13.92 129.629 14.5C129.789 14.16 129.989 13.87 130.229 13.63C130.469 13.3833 130.732 13.1833 131.019 13.03C131.305 12.8767 131.609 12.7633 131.929 12.69C132.255 12.6167 132.582 12.58 132.909 12.58C133.475 12.58 133.979 12.6667 134.419 12.84C134.859 13.0133 135.229 13.2667 135.529 13.6C135.829 13.9333 136.055 14.34 136.209 14.82C136.369 15.3 136.449 15.85 136.449 16.47V23H133.979V16.47C133.979 15.8167 133.835 15.3267 133.549 15C133.262 14.6667 132.842 14.5 132.289 14.5C132.035 14.5 131.799 14.5433 131.579 14.63C131.365 14.7167 131.175 14.8433 131.009 15.01C130.849 15.17 130.722 15.3733 130.629 15.62C130.535 15.8667 130.489 16.15 130.489 16.47V23H128.009V16.47C128.009 15.7833 127.869 15.2833 127.589 14.97C127.315 14.6567 126.909 14.5 126.369 14.5C126.015 14.5 125.682 14.59 125.369 14.77C125.062 14.9433 124.775 15.1833 124.509 15.49V23H122.039ZM143.255 12.58C144.021 12.58 144.715 12.7033 145.335 12.95C145.961 13.1967 146.495 13.5467 146.935 14C147.375 14.4533 147.715 15.0067 147.955 15.66C148.195 16.3133 148.315 17.0433 148.315 17.85C148.315 18.6633 148.195 19.3967 147.955 20.05C147.715 20.7033 147.375 21.26 146.935 21.72C146.495 22.18 145.961 22.5333 145.335 22.78C144.715 23.0267 144.021 23.15 143.255 23.15C142.488 23.15 141.791 23.0267 141.165 22.78C140.538 22.5333 140.001 22.18 139.555 21.72C139.115 21.26 138.771 20.7033 138.525 20.05C138.285 19.3967 138.165 18.6633 138.165 17.85C138.165 17.0433 138.285 16.3133 138.525 15.66C138.771 15.0067 139.115 14.4533 139.555 14C140.001 13.5467 140.538 13.1967 141.165 12.95C141.791 12.7033 142.488 12.58 143.255 12.58ZM143.255 21.25C144.108 21.25 144.738 20.9633 145.145 20.39C145.558 19.8167 145.765 18.9767 145.765 17.87C145.765 16.7633 145.558 15.92 145.145 15.34C144.738 14.76 144.108 14.47 143.255 14.47C142.388 14.47 141.748 14.7633 141.335 15.35C140.921 15.93 140.715 16.77 140.715 17.87C140.715 18.97 140.921 19.81 141.335 20.39C141.748 20.9633 142.388 21.25 143.255 21.25ZM157.462 23C157.142 23 156.932 22.85 156.832 22.55L156.632 21.56C156.419 21.8 156.195 22.0167 155.962 22.21C155.729 22.4033 155.475 22.57 155.202 22.71C154.935 22.85 154.645 22.9567 154.332 23.03C154.025 23.11 153.692 23.15 153.332 23.15C152.772 23.15 152.259 23.0333 151.792 22.8C151.325 22.5667 150.922 22.23 150.582 21.79C150.249 21.3433 149.989 20.7933 149.802 20.14C149.622 19.4867 149.532 18.74 149.532 17.9C149.532 17.14 149.635 16.4333 149.842 15.78C150.049 15.1267 150.345 14.56 150.732 14.08C151.119 13.6 151.582 13.2267 152.122 12.96C152.662 12.6867 153.269 12.55 153.942 12.55C154.515 12.55 155.005 12.6433 155.412 12.83C155.819 13.01 156.182 13.2533 156.502 13.56V8.14H158.972V23H157.462ZM154.172 21.19C154.685 21.19 155.122 21.0833 155.482 20.87C155.842 20.6567 156.182 20.3533 156.502 19.96V15.36C156.222 15.02 155.915 14.78 155.582 14.64C155.255 14.5 154.902 14.43 154.522 14.43C154.149 14.43 153.809 14.5 153.502 14.64C153.202 14.78 152.945 14.9933 152.732 15.28C152.525 15.56 152.365 15.92 152.252 16.36C152.139 16.7933 152.082 17.3067 152.082 17.9C152.082 18.5 152.129 19.01 152.222 19.43C152.322 19.8433 152.462 20.1833 152.642 20.45C152.822 20.71 153.042 20.9 153.302 21.02C153.562 21.1333 153.852 21.19 154.172 21.19ZM166.028 12.58C166.795 12.58 167.488 12.7033 168.108 12.95C168.735 13.1967 169.268 13.5467 169.708 14C170.148 14.4533 170.488 15.0067 170.728 15.66C170.968 16.3133 171.088 17.0433 171.088 17.85C171.088 18.6633 170.968 19.3967 170.728 20.05C170.488 20.7033 170.148 21.26 169.708 21.72C169.268 22.18 168.735 22.5333 168.108 22.78C167.488 23.0267 166.795 23.15 166.028 23.15C165.261 23.15 164.565 23.0267 163.938 22.78C163.311 22.5333 162.775 22.18 162.328 21.72C161.888 21.26 161.545 20.7033 161.298 20.05C161.058 19.3967 160.938 18.6633 160.938 17.85C160.938 17.0433 161.058 16.3133 161.298 15.66C161.545 15.0067 161.888 14.4533 162.328 14C162.775 13.5467 163.311 13.1967 163.938 12.95C164.565 12.7033 165.261 12.58 166.028 12.58ZM166.028 21.25C166.881 21.25 167.511 20.9633 167.918 20.39C168.331 19.8167 168.538 18.9767 168.538 17.87C168.538 16.7633 168.331 15.92 167.918 15.34C167.511 14.76 166.881 14.47 166.028 14.47C165.161 14.47 164.521 14.7633 164.108 15.35C163.695 15.93 163.488 16.77 163.488 17.87C163.488 18.97 163.695 19.81 164.108 20.39C164.521 20.9633 165.161 21.25 166.028 21.25ZM172.495 21.48C172.495 21.2933 172.529 21.12 172.595 20.96C172.669 20.7933 172.769 20.65 172.895 20.53C173.022 20.4033 173.175 20.3067 173.355 20.24C173.535 20.1667 173.732 20.13 173.945 20.13C174.199 20.13 174.419 20.1767 174.605 20.27C174.792 20.3567 174.949 20.48 175.075 20.64C175.202 20.7933 175.295 20.9733 175.355 21.18C175.415 21.38 175.445 21.5933 175.445 21.82C175.445 22.14 175.395 22.4767 175.295 22.83C175.202 23.1833 175.062 23.5367 174.875 23.89C174.689 24.2433 174.459 24.5867 174.185 24.92C173.912 25.2533 173.599 25.56 173.245 25.84L172.815 25.45C172.695 25.35 172.635 25.2267 172.635 25.08C172.635 25.0267 172.652 24.9667 172.685 24.9C172.725 24.8333 172.772 24.7733 172.825 24.72C172.899 24.64 172.989 24.54 173.095 24.42C173.202 24.3067 173.309 24.1733 173.415 24.02C173.522 23.8733 173.619 23.71 173.705 23.53C173.799 23.3567 173.865 23.17 173.905 22.97C173.699 22.97 173.509 22.9333 173.335 22.86C173.162 22.78 173.012 22.6733 172.885 22.54C172.765 22.4067 172.669 22.25 172.595 22.07C172.529 21.89 172.495 21.6933 172.495 21.48ZM186.515 23H184.275L180.195 12.74H182.245C182.425 12.74 182.575 12.7833 182.695 12.87C182.821 12.9567 182.908 13.0667 182.955 13.2L184.935 18.68C185.048 19 185.141 19.3133 185.215 19.62C185.295 19.9267 185.365 20.2333 185.425 20.54C185.485 20.2333 185.551 19.9267 185.625 19.62C185.705 19.3133 185.805 19 185.925 18.68L187.955 13.2C188.001 13.0667 188.085 12.9567 188.205 12.87C188.325 12.7833 188.468 12.74 188.635 12.74H190.585L186.515 23ZM194.669 12.74V23H192.199V12.74H194.669ZM195.039 9.75C195.039 9.96333 194.995 10.1633 194.909 10.35C194.822 10.5367 194.705 10.7 194.559 10.84C194.419 10.98 194.252 11.0933 194.059 11.18C193.865 11.26 193.659 11.3 193.439 11.3C193.225 11.3 193.022 11.26 192.829 11.18C192.642 11.0933 192.479 10.98 192.339 10.84C192.199 10.7 192.085 10.5367 191.999 10.35C191.919 10.1633 191.879 9.96333 191.879 9.75C191.879 9.53 191.919 9.32333 191.999 9.13C192.085 8.93667 192.199 8.77 192.339 8.63C192.479 8.49 192.642 8.38 192.829 8.3C193.022 8.21333 193.225 8.17 193.439 8.17C193.659 8.17 193.865 8.21333 194.059 8.3C194.252 8.38 194.419 8.49 194.559 8.63C194.705 8.77 194.822 8.93667 194.909 9.13C194.995 9.32333 195.039 9.53 195.039 9.75ZM202.608 23H200.368L196.288 12.74H198.338C198.518 12.74 198.668 12.7833 198.788 12.87C198.915 12.9567 199.002 13.0667 199.048 13.2L201.028 18.68C201.142 19 201.235 19.3133 201.308 19.62C201.388 19.9267 201.458 20.2333 201.518 20.54C201.578 20.2333 201.645 19.9267 201.718 19.62C201.798 19.3133 201.898 19 202.018 18.68L204.048 13.2C204.095 13.0667 204.178 12.9567 204.298 12.87C204.418 12.7833 204.562 12.74 204.728 12.74H206.678L202.608 23ZM212.04 12.58C212.687 12.58 213.28 12.6833 213.82 12.89C214.367 13.0967 214.837 13.4 215.23 13.8C215.624 14.1933 215.93 14.68 216.15 15.26C216.37 15.8333 216.48 16.49 216.48 17.23C216.48 17.4167 216.47 17.5733 216.45 17.7C216.437 17.82 216.407 17.9167 216.36 17.99C216.32 18.0567 216.264 18.1067 216.19 18.14C216.117 18.1667 216.024 18.18 215.91 18.18H209.57C209.644 19.2333 209.927 20.0067 210.42 20.5C210.914 20.9933 211.567 21.24 212.38 21.24C212.78 21.24 213.124 21.1933 213.41 21.1C213.704 21.0067 213.957 20.9033 214.17 20.79C214.39 20.6767 214.58 20.5733 214.74 20.48C214.907 20.3867 215.067 20.34 215.22 20.34C215.32 20.34 215.407 20.36 215.48 20.4C215.554 20.44 215.617 20.4967 215.67 20.57L216.39 21.47C216.117 21.79 215.81 22.06 215.47 22.28C215.13 22.4933 214.774 22.6667 214.4 22.8C214.034 22.9267 213.657 23.0167 213.27 23.07C212.89 23.1233 212.52 23.15 212.16 23.15C211.447 23.15 210.784 23.0333 210.17 22.8C209.557 22.56 209.024 22.21 208.57 21.75C208.117 21.2833 207.76 20.71 207.5 20.03C207.24 19.3433 207.11 18.55 207.11 17.65C207.11 16.95 207.224 16.2933 207.45 15.68C207.677 15.06 208 14.5233 208.42 14.07C208.847 13.61 209.364 13.2467 209.97 12.98C210.584 12.7133 211.274 12.58 212.04 12.58ZM212.09 14.35C211.37 14.35 210.807 14.5533 210.4 14.96C209.994 15.3667 209.734 15.9433 209.62 16.69H214.26C214.26 16.37 214.217 16.07 214.13 15.79C214.044 15.5033 213.91 15.2533 213.73 15.04C213.55 14.8267 213.324 14.66 213.05 14.54C212.777 14.4133 212.457 14.35 212.09 14.35ZM218.484 23V12.74H219.934C220.187 12.74 220.364 12.7867 220.464 12.88C220.564 12.9733 220.631 13.1333 220.664 13.36L220.814 14.6C221.181 13.9667 221.611 13.4667 222.104 13.1C222.597 12.7333 223.151 12.55 223.764 12.55C224.271 12.55 224.691 12.6667 225.024 12.9L224.704 14.75C224.684 14.87 224.641 14.9567 224.574 15.01C224.507 15.0567 224.417 15.08 224.304 15.08C224.204 15.08 224.067 15.0567 223.894 15.01C223.721 14.9633 223.491 14.94 223.204 14.94C222.691 14.94 222.251 15.0833 221.884 15.37C221.517 15.65 221.207 16.0633 220.954 16.61V23H218.484ZM226.648 23V12.74H228.098C228.351 12.74 228.528 12.7867 228.628 12.88C228.728 12.9733 228.795 13.1333 228.828 13.36L228.978 14.6C229.345 13.9667 229.775 13.4667 230.268 13.1C230.761 12.7333 231.315 12.55 231.928 12.55C232.435 12.55 232.855 12.6667 233.188 12.9L232.868 14.75C232.848 14.87 232.805 14.9567 232.738 15.01C232.671 15.0567 232.581 15.08 232.468 15.08C232.368 15.08 232.231 15.0567 232.058 15.01C231.885 14.9633 231.655 14.94 231.368 14.94C230.855 14.94 230.415 15.0833 230.048 15.37C229.681 15.65 229.371 16.0633 229.118 16.61V23H226.648ZM242.559 23H241.449C241.216 23 241.033 22.9667 240.899 22.9C240.766 22.8267 240.666 22.6833 240.599 22.47L240.379 21.74C240.119 21.9733 239.863 22.18 239.609 22.36C239.363 22.5333 239.106 22.68 238.839 22.8C238.573 22.92 238.289 23.01 237.989 23.07C237.689 23.13 237.356 23.16 236.989 23.16C236.556 23.16 236.156 23.1033 235.789 22.99C235.423 22.87 235.106 22.6933 234.839 22.46C234.579 22.2267 234.376 21.9367 234.229 21.59C234.083 21.2433 234.009 20.84 234.009 20.38C234.009 19.9933 234.109 19.6133 234.309 19.24C234.516 18.86 234.856 18.52 235.329 18.22C235.803 17.9133 236.433 17.66 237.219 17.46C238.006 17.26 238.983 17.1467 240.149 17.12V16.52C240.149 15.8333 240.003 15.3267 239.709 15C239.423 14.6667 239.003 14.5 238.449 14.5C238.049 14.5 237.716 14.5467 237.449 14.64C237.183 14.7333 236.949 14.84 236.749 14.96C236.556 15.0733 236.376 15.1767 236.209 15.27C236.043 15.3633 235.859 15.41 235.659 15.41C235.493 15.41 235.349 15.3667 235.229 15.28C235.109 15.1933 235.013 15.0867 234.939 14.96L234.489 14.17C235.669 13.09 237.093 12.55 238.759 12.55C239.359 12.55 239.893 12.65 240.359 12.85C240.833 13.0433 241.233 13.3167 241.559 13.67C241.886 14.0167 242.133 14.4333 242.299 14.92C242.473 15.4067 242.559 15.94 242.559 16.52V23ZM237.759 21.46C238.013 21.46 238.246 21.4367 238.459 21.39C238.673 21.3433 238.873 21.2733 239.059 21.18C239.253 21.0867 239.436 20.9733 239.609 20.84C239.789 20.7 239.969 20.5367 240.149 20.35V18.62C239.429 18.6533 238.826 18.7167 238.339 18.81C237.859 18.8967 237.473 19.01 237.179 19.15C236.886 19.29 236.676 19.4533 236.549 19.64C236.429 19.8267 236.369 20.03 236.369 20.25C236.369 20.6833 236.496 20.9933 236.749 21.18C237.009 21.3667 237.346 21.46 237.759 21.46ZM253.235 12.58C254.002 12.58 254.695 12.7033 255.315 12.95C255.942 13.1967 256.475 13.5467 256.915 14C257.355 14.4533 257.695 15.0067 257.935 15.66C258.175 16.3133 258.295 17.0433 258.295 17.85C258.295 18.6633 258.175 19.3967 257.935 20.05C257.695 20.7033 257.355 21.26 256.915 21.72C256.475 22.18 255.942 22.5333 255.315 22.78C254.695 23.0267 254.002 23.15 253.235 23.15C252.468 23.15 251.772 23.0267 251.145 22.78C250.518 22.5333 249.982 22.18 249.535 21.72C249.095 21.26 248.752 20.7033 248.505 20.05C248.265 19.3967 248.145 18.6633 248.145 17.85C248.145 17.0433 248.265 16.3133 248.505 15.66C248.752 15.0067 249.095 14.4533 249.535 14C249.982 13.5467 250.518 13.1967 251.145 12.95C251.772 12.7033 252.468 12.58 253.235 12.58ZM253.235 21.25C254.088 21.25 254.718 20.9633 255.125 20.39C255.538 19.8167 255.745 18.9767 255.745 17.87C255.745 16.7633 255.538 15.92 255.125 15.34C254.718 14.76 254.088 14.47 253.235 14.47C252.368 14.47 251.728 14.7633 251.315 15.35C250.902 15.93 250.695 16.77 250.695 17.87C250.695 18.97 250.902 19.81 251.315 20.39C251.728 20.9633 252.368 21.25 253.235 21.25ZM260.222 23V12.74H261.672C261.926 12.74 262.102 12.7867 262.202 12.88C262.302 12.9733 262.369 13.1333 262.402 13.36L262.552 14.6C262.919 13.9667 263.349 13.4667 263.842 13.1C264.336 12.7333 264.889 12.55 265.502 12.55C266.009 12.55 266.429 12.6667 266.762 12.9L266.442 14.75C266.422 14.87 266.379 14.9567 266.312 15.01C266.246 15.0567 266.156 15.08 266.042 15.08C265.942 15.08 265.806 15.0567 265.632 15.01C265.459 14.9633 265.229 14.94 264.942 14.94C264.429 14.94 263.989 15.0833 263.622 15.37C263.256 15.65 262.946 16.0633 262.692 16.61V23H260.222ZM275.596 14.91C275.523 15.0033 275.45 15.0767 275.376 15.13C275.31 15.1833 275.21 15.21 275.076 15.21C274.95 15.21 274.826 15.1733 274.706 15.1C274.586 15.02 274.443 14.9333 274.276 14.84C274.11 14.74 273.91 14.6533 273.676 14.58C273.45 14.5 273.166 14.46 272.826 14.46C272.393 14.46 272.013 14.54 271.686 14.7C271.36 14.8533 271.086 15.0767 270.866 15.37C270.653 15.6633 270.493 16.02 270.386 16.44C270.28 16.8533 270.226 17.3233 270.226 17.85C270.226 18.3967 270.283 18.8833 270.396 19.31C270.516 19.7367 270.686 20.0967 270.906 20.39C271.126 20.6767 271.393 20.8967 271.706 21.05C272.02 21.1967 272.373 21.27 272.766 21.27C273.16 21.27 273.476 21.2233 273.716 21.13C273.963 21.03 274.17 20.9233 274.336 20.81C274.503 20.69 274.646 20.5833 274.766 20.49C274.893 20.39 275.033 20.34 275.186 20.34C275.386 20.34 275.536 20.4167 275.636 20.57L276.346 21.47C276.073 21.79 275.776 22.06 275.456 22.28C275.136 22.4933 274.803 22.6667 274.456 22.8C274.116 22.9267 273.763 23.0167 273.396 23.07C273.03 23.1233 272.666 23.15 272.306 23.15C271.673 23.15 271.076 23.0333 270.516 22.8C269.956 22.56 269.466 22.2133 269.046 21.76C268.633 21.3067 268.303 20.7533 268.056 20.1C267.816 19.44 267.696 18.69 267.696 17.85C267.696 17.0967 267.803 16.4 268.016 15.76C268.236 15.1133 268.556 14.5567 268.976 14.09C269.396 13.6167 269.916 13.2467 270.536 12.98C271.156 12.7133 271.87 12.58 272.676 12.58C273.443 12.58 274.113 12.7033 274.686 12.95C275.266 13.1967 275.786 13.55 276.246 14.01L275.596 14.91ZM280.548 12.74V23H278.078V12.74H280.548ZM280.918 9.75C280.918 9.96333 280.874 10.1633 280.788 10.35C280.701 10.5367 280.584 10.7 280.438 10.84C280.298 10.98 280.131 11.0933 279.938 11.18C279.744 11.26 279.538 11.3 279.318 11.3C279.104 11.3 278.901 11.26 278.708 11.18C278.521 11.0933 278.358 10.98 278.218 10.84C278.078 10.7 277.964 10.5367 277.878 10.35C277.798 10.1633 277.758 9.96333 277.758 9.75C277.758 9.53 277.798 9.32333 277.878 9.13C277.964 8.93667 278.078 8.77 278.218 8.63C278.358 8.49 278.521 8.38 278.708 8.3C278.901 8.21333 279.104 8.17 279.318 8.17C279.538 8.17 279.744 8.21333 279.938 8.3C280.131 8.38 280.298 8.49 280.438 8.63C280.584 8.77 280.701 8.93667 280.788 9.13C280.874 9.32333 280.918 9.53 280.918 9.75ZM287.215 23V12.74H288.725C289.045 12.74 289.255 12.89 289.355 13.19L289.515 13.95C289.695 13.75 289.881 13.5667 290.075 13.4C290.275 13.2333 290.485 13.09 290.705 12.97C290.931 12.85 291.171 12.7567 291.425 12.69C291.685 12.6167 291.968 12.58 292.275 12.58C292.921 12.58 293.451 12.7567 293.865 13.11C294.285 13.4567 294.598 13.92 294.805 14.5C294.965 14.16 295.165 13.87 295.405 13.63C295.645 13.3833 295.908 13.1833 296.195 13.03C296.481 12.8767 296.785 12.7633 297.105 12.69C297.431 12.6167 297.758 12.58 298.085 12.58C298.651 12.58 299.155 12.6667 299.595 12.84C300.035 13.0133 300.405 13.2667 300.705 13.6C301.005 13.9333 301.231 14.34 301.385 14.82C301.545 15.3 301.625 15.85 301.625 16.47V23H299.155V16.47C299.155 15.8167 299.011 15.3267 298.725 15C298.438 14.6667 298.018 14.5 297.465 14.5C297.211 14.5 296.975 14.5433 296.755 14.63C296.541 14.7167 296.351 14.8433 296.185 15.01C296.025 15.17 295.898 15.3733 295.805 15.62C295.711 15.8667 295.665 16.15 295.665 16.47V23H293.185V16.47C293.185 15.7833 293.045 15.2833 292.765 14.97C292.491 14.6567 292.085 14.5 291.545 14.5C291.191 14.5 290.858 14.59 290.545 14.77C290.238 14.9433 289.951 15.1833 289.685 15.49V23H287.215ZM308.43 12.58C309.197 12.58 309.89 12.7033 310.51 12.95C311.137 13.1967 311.67 13.5467 312.11 14C312.55 14.4533 312.89 15.0067 313.13 15.66C313.37 16.3133 313.49 17.0433 313.49 17.85C313.49 18.6633 313.37 19.3967 313.13 20.05C312.89 20.7033 312.55 21.26 312.11 21.72C311.67 22.18 311.137 22.5333 310.51 22.78C309.89 23.0267 309.197 23.15 308.43 23.15C307.664 23.15 306.967 23.0267 306.34 22.78C305.714 22.5333 305.177 22.18 304.73 21.72C304.29 21.26 303.947 20.7033 303.7 20.05C303.46 19.3967 303.34 18.6633 303.34 17.85C303.34 17.0433 303.46 16.3133 303.7 15.66C303.947 15.0067 304.29 14.4533 304.73 14C305.177 13.5467 305.714 13.1967 306.34 12.95C306.967 12.7033 307.664 12.58 308.43 12.58ZM308.43 21.25C309.284 21.25 309.914 20.9633 310.32 20.39C310.734 19.8167 310.94 18.9767 310.94 17.87C310.94 16.7633 310.734 15.92 310.32 15.34C309.914 14.76 309.284 14.47 308.43 14.47C307.564 14.47 306.924 14.7633 306.51 15.35C306.097 15.93 305.89 16.77 305.89 17.87C305.89 18.97 306.097 19.81 306.51 20.39C306.924 20.9633 307.564 21.25 308.43 21.25ZM318.048 8.14V23H315.578V8.14H318.048ZM323.477 8.14V23H321.007V8.14H323.477ZM328.907 12.74V23H326.437V12.74H328.907ZM329.277 9.75C329.277 9.96333 329.234 10.1633 329.147 10.35C329.06 10.5367 328.944 10.7 328.797 10.84C328.657 10.98 328.49 11.0933 328.297 11.18C328.104 11.26 327.897 11.3 327.677 11.3C327.464 11.3 327.26 11.26 327.067 11.18C326.88 11.0933 326.717 10.98 326.577 10.84C326.437 10.7 326.324 10.5367 326.237 10.35C326.157 10.1633 326.117 9.96333 326.117 9.75C326.117 9.53 326.157 9.32333 326.237 9.13C326.324 8.93667 326.437 8.77 326.577 8.63C326.717 8.49 326.88 8.38 327.067 8.3C327.26 8.21333 327.464 8.17 327.677 8.17C327.897 8.17 328.104 8.21333 328.297 8.3C328.49 8.38 328.657 8.49 328.797 8.63C328.944 8.77 329.06 8.93667 329.147 9.13C329.234 9.32333 329.277 9.53 329.277 9.75ZM337.797 14.74C337.73 14.8467 337.66 14.9233 337.587 14.97C337.513 15.01 337.42 15.03 337.307 15.03C337.187 15.03 337.057 14.9967 336.917 14.93C336.783 14.8633 336.627 14.79 336.447 14.71C336.267 14.6233 336.06 14.5467 335.827 14.48C335.6 14.4133 335.33 14.38 335.017 14.38C334.53 14.38 334.147 14.4833 333.867 14.69C333.587 14.8967 333.447 15.1667 333.447 15.5C333.447 15.72 333.517 15.9067 333.657 16.06C333.803 16.2067 333.993 16.3367 334.227 16.45C334.467 16.5633 334.737 16.6667 335.037 16.76C335.337 16.8467 335.643 16.9433 335.957 17.05C336.27 17.1567 336.577 17.28 336.877 17.42C337.177 17.5533 337.443 17.7267 337.677 17.94C337.917 18.1467 338.107 18.3967 338.247 18.69C338.393 18.9833 338.467 19.3367 338.467 19.75C338.467 20.2433 338.377 20.7 338.197 21.12C338.017 21.5333 337.753 21.8933 337.407 22.2C337.06 22.5 336.63 22.7367 336.117 22.91C335.61 23.0767 335.027 23.16 334.367 23.16C334.013 23.16 333.667 23.1267 333.327 23.06C332.993 23 332.67 22.9133 332.357 22.8C332.05 22.6867 331.763 22.5533 331.497 22.4C331.237 22.2467 331.007 22.08 330.807 21.9L331.377 20.96C331.45 20.8467 331.537 20.76 331.637 20.7C331.737 20.64 331.863 20.61 332.017 20.61C332.17 20.61 332.313 20.6533 332.447 20.74C332.587 20.8267 332.747 20.92 332.927 21.02C333.107 21.12 333.317 21.2133 333.557 21.3C333.803 21.3867 334.113 21.43 334.487 21.43C334.78 21.43 335.03 21.3967 335.237 21.33C335.45 21.2567 335.623 21.1633 335.757 21.05C335.897 20.9367 335.997 20.8067 336.057 20.66C336.123 20.5067 336.157 20.35 336.157 20.19C336.157 19.95 336.083 19.7533 335.937 19.6C335.797 19.4467 335.607 19.3133 335.367 19.2C335.133 19.0867 334.863 18.9867 334.557 18.9C334.257 18.8067 333.947 18.7067 333.627 18.6C333.313 18.4933 333.003 18.37 332.697 18.23C332.397 18.0833 332.127 17.9 331.887 17.68C331.653 17.46 331.463 17.19 331.317 16.87C331.177 16.55 331.107 16.1633 331.107 15.71C331.107 15.29 331.19 14.89 331.357 14.51C331.523 14.13 331.767 13.8 332.087 13.52C332.413 13.2333 332.817 13.0067 333.297 12.84C333.783 12.6667 334.343 12.58 334.977 12.58C335.683 12.58 336.327 12.6967 336.907 12.93C337.487 13.1633 337.97 13.47 338.357 13.85L337.797 14.74ZM346.564 12.74V19.26C346.564 19.8867 346.708 20.3733 346.994 20.72C347.288 21.06 347.724 21.23 348.304 21.23C348.731 21.23 349.131 21.1367 349.504 20.95C349.878 20.7567 350.231 20.4933 350.564 20.16V12.74H353.034V23H351.524C351.204 23 350.994 22.85 350.894 22.55L350.724 21.73C350.511 21.9433 350.291 22.14 350.064 22.32C349.838 22.4933 349.594 22.6433 349.334 22.77C349.081 22.89 348.804 22.9833 348.504 23.05C348.211 23.1233 347.894 23.16 347.554 23.16C346.994 23.16 346.498 23.0667 346.064 22.88C345.638 22.6867 345.278 22.4167 344.984 22.07C344.691 21.7233 344.468 21.3133 344.314 20.84C344.168 20.36 344.094 19.8333 344.094 19.26V12.74H346.564ZM359.042 23.16C358.155 23.16 357.472 22.91 356.992 22.41C356.512 21.9033 356.272 21.2067 356.272 20.32V14.59H355.232C355.098 14.59 354.982 14.5467 354.882 14.46C354.788 14.3733 354.742 14.2433 354.742 14.07V13.09L356.392 12.82L356.912 10.02C356.938 9.88667 356.998 9.78333 357.092 9.71C357.192 9.63667 357.315 9.6 357.462 9.6H358.742V12.83H361.442V14.59H358.742V20.15C358.742 20.47 358.822 20.72 358.982 20.9C359.142 21.08 359.355 21.17 359.622 21.17C359.775 21.17 359.902 21.1533 360.002 21.12C360.108 21.08 360.198 21.04 360.272 21C360.352 20.96 360.422 20.9233 360.482 20.89C360.542 20.85 360.602 20.83 360.662 20.83C360.735 20.83 360.795 20.85 360.842 20.89C360.888 20.9233 360.938 20.9767 360.992 21.05L361.732 22.25C361.372 22.55 360.958 22.7767 360.492 22.93C360.025 23.0833 359.542 23.16 359.042 23.16ZM371.513 12.58C372.16 12.58 372.753 12.6833 373.293 12.89C373.84 13.0967 374.31 13.4 374.703 13.8C375.096 14.1933 375.403 14.68 375.623 15.26C375.843 15.8333 375.953 16.49 375.953 17.23C375.953 17.4167 375.943 17.5733 375.923 17.7C375.91 17.82 375.88 17.9167 375.833 17.99C375.793 18.0567 375.736 18.1067 375.663 18.14C375.59 18.1667 375.496 18.18 375.383 18.18H369.043C369.116 19.2333 369.4 20.0067 369.893 20.5C370.386 20.9933 371.04 21.24 371.853 21.24C372.253 21.24 372.596 21.1933 372.883 21.1C373.176 21.0067 373.43 20.9033 373.643 20.79C373.863 20.6767 374.053 20.5733 374.213 20.48C374.38 20.3867 374.54 20.34 374.693 20.34C374.793 20.34 374.88 20.36 374.953 20.4C375.026 20.44 375.09 20.4967 375.143 20.57L375.863 21.47C375.59 21.79 375.283 22.06 374.943 22.28C374.603 22.4933 374.246 22.6667 373.873 22.8C373.506 22.9267 373.13 23.0167 372.743 23.07C372.363 23.1233 371.993 23.15 371.633 23.15C370.92 23.15 370.256 23.0333 369.643 22.8C369.03 22.56 368.496 22.21 368.043 21.75C367.59 21.2833 367.233 20.71 366.973 20.03C366.713 19.3433 366.583 18.55 366.583 17.65C366.583 16.95 366.696 16.2933 366.923 15.68C367.15 15.06 367.473 14.5233 367.893 14.07C368.32 13.61 368.836 13.2467 369.443 12.98C370.056 12.7133 370.746 12.58 371.513 12.58ZM371.563 14.35C370.843 14.35 370.28 14.5533 369.873 14.96C369.466 15.3667 369.206 15.9433 369.093 16.69H373.733C373.733 16.37 373.69 16.07 373.603 15.79C373.516 15.5033 373.383 15.2533 373.203 15.04C373.023 14.8267 372.796 14.66 372.523 14.54C372.25 14.4133 371.93 14.35 371.563 14.35ZM380.217 12.74V19.26C380.217 19.8867 380.36 20.3733 380.647 20.72C380.94 21.06 381.377 21.23 381.957 21.23C382.383 21.23 382.783 21.1367 383.157 20.95C383.53 20.7567 383.883 20.4933 384.217 20.16V12.74H386.687V23H385.177C384.857 23 384.647 22.85 384.547 22.55L384.377 21.73C384.163 21.9433 383.943 22.14 383.717 22.32C383.49 22.4933 383.247 22.6433 382.987 22.77C382.733 22.89 382.457 22.9833 382.157 23.05C381.863 23.1233 381.547 23.16 381.207 23.16C380.647 23.16 380.15 23.0667 379.717 22.88C379.29 22.6867 378.93 22.4167 378.637 22.07C378.343 21.7233 378.12 21.3133 377.967 20.84C377.82 20.36 377.747 19.8333 377.747 19.26V12.74H380.217ZM391.954 12.74V23H389.484V12.74H391.954ZM392.324 9.75C392.324 9.96333 392.281 10.1633 392.194 10.35C392.107 10.5367 391.991 10.7 391.844 10.84C391.704 10.98 391.537 11.0933 391.344 11.18C391.151 11.26 390.944 11.3 390.724 11.3C390.511 11.3 390.307 11.26 390.114 11.18C389.927 11.0933 389.764 10.98 389.624 10.84C389.484 10.7 389.371 10.5367 389.284 10.35C389.204 10.1633 389.164 9.96333 389.164 9.75C389.164 9.53 389.204 9.32333 389.284 9.13C389.371 8.93667 389.484 8.77 389.624 8.63C389.764 8.49 389.927 8.38 390.114 8.3C390.307 8.21333 390.511 8.17 390.724 8.17C390.944 8.17 391.151 8.21333 391.344 8.3C391.537 8.38 391.704 8.49 391.844 8.63C391.991 8.77 392.107 8.93667 392.194 9.13C392.281 9.32333 392.324 9.53 392.324 9.75ZM400.844 14.74C400.777 14.8467 400.707 14.9233 400.634 14.97C400.56 15.01 400.467 15.03 400.354 15.03C400.234 15.03 400.104 14.9967 399.964 14.93C399.83 14.8633 399.674 14.79 399.494 14.71C399.314 14.6233 399.107 14.5467 398.874 14.48C398.647 14.4133 398.377 14.38 398.064 14.38C397.577 14.38 397.194 14.4833 396.914 14.69C396.634 14.8967 396.494 15.1667 396.494 15.5C396.494 15.72 396.564 15.9067 396.704 16.06C396.85 16.2067 397.04 16.3367 397.274 16.45C397.514 16.5633 397.784 16.6667 398.084 16.76C398.384 16.8467 398.69 16.9433 399.004 17.05C399.317 17.1567 399.624 17.28 399.924 17.42C400.224 17.5533 400.49 17.7267 400.724 17.94C400.964 18.1467 401.154 18.3967 401.294 18.69C401.44 18.9833 401.514 19.3367 401.514 19.75C401.514 20.2433 401.424 20.7 401.244 21.12C401.064 21.5333 400.8 21.8933 400.454 22.2C400.107 22.5 399.677 22.7367 399.164 22.91C398.657 23.0767 398.074 23.16 397.414 23.16C397.06 23.16 396.714 23.1267 396.374 23.06C396.04 23 395.717 22.9133 395.404 22.8C395.097 22.6867 394.81 22.5533 394.544 22.4C394.284 22.2467 394.054 22.08 393.854 21.9L394.424 20.96C394.497 20.8467 394.584 20.76 394.684 20.7C394.784 20.64 394.91 20.61 395.064 20.61C395.217 20.61 395.36 20.6533 395.494 20.74C395.634 20.8267 395.794 20.92 395.974 21.02C396.154 21.12 396.364 21.2133 396.604 21.3C396.85 21.3867 397.16 21.43 397.534 21.43C397.827 21.43 398.077 21.3967 398.284 21.33C398.497 21.2567 398.67 21.1633 398.804 21.05C398.944 20.9367 399.044 20.8067 399.104 20.66C399.17 20.5067 399.204 20.35 399.204 20.19C399.204 19.95 399.13 19.7533 398.984 19.6C398.844 19.4467 398.654 19.3133 398.414 19.2C398.18 19.0867 397.91 18.9867 397.604 18.9C397.304 18.8067 396.994 18.7067 396.674 18.6C396.36 18.4933 396.05 18.37 395.744 18.23C395.444 18.0833 395.174 17.9 394.934 17.68C394.7 17.46 394.51 17.19 394.364 16.87C394.224 16.55 394.154 16.1633 394.154 15.71C394.154 15.29 394.237 14.89 394.404 14.51C394.57 14.13 394.814 13.8 395.134 13.52C395.46 13.2333 395.864 13.0067 396.344 12.84C396.83 12.6667 397.39 12.58 398.024 12.58C398.73 12.58 399.374 12.6967 399.954 12.93C400.534 13.1633 401.017 13.47 401.404 13.85L400.844 14.74ZM403.484 23V12.74H404.994C405.314 12.74 405.524 12.89 405.624 13.19L405.784 13.95C405.964 13.75 406.151 13.5667 406.344 13.4C406.544 13.2333 406.754 13.09 406.974 12.97C407.201 12.85 407.441 12.7567 407.694 12.69C407.954 12.6167 408.237 12.58 408.544 12.58C409.191 12.58 409.721 12.7567 410.134 13.11C410.554 13.4567 410.867 13.92 411.074 14.5C411.234 14.16 411.434 13.87 411.674 13.63C411.914 13.3833 412.177 13.1833 412.464 13.03C412.751 12.8767 413.054 12.7633 413.374 12.69C413.701 12.6167 414.027 12.58 414.354 12.58C414.921 12.58 415.424 12.6667 415.864 12.84C416.304 13.0133 416.674 13.2667 416.974 13.6C417.274 13.9333 417.501 14.34 417.654 14.82C417.814 15.3 417.894 15.85 417.894 16.47V23H415.424V16.47C415.424 15.8167 415.281 15.3267 414.994 15C414.707 14.6667 414.287 14.5 413.734 14.5C413.481 14.5 413.244 14.5433 413.024 14.63C412.811 14.7167 412.621 14.8433 412.454 15.01C412.294 15.17 412.167 15.3733 412.074 15.62C411.981 15.8667 411.934 16.15 411.934 16.47V23H409.454V16.47C409.454 15.7833 409.314 15.2833 409.034 14.97C408.761 14.6567 408.354 14.5 407.814 14.5C407.461 14.5 407.127 14.59 406.814 14.77C406.507 14.9433 406.221 15.1833 405.954 15.49V23H403.484ZM424.7 12.58C425.467 12.58 426.16 12.7033 426.78 12.95C427.407 13.1967 427.94 13.5467 428.38 14C428.82 14.4533 429.16 15.0067 429.4 15.66C429.64 16.3133 429.76 17.0433 429.76 17.85C429.76 18.6633 429.64 19.3967 429.4 20.05C429.16 20.7033 428.82 21.26 428.38 21.72C427.94 22.18 427.407 22.5333 426.78 22.78C426.16 23.0267 425.467 23.15 424.7 23.15C423.933 23.15 423.237 23.0267 422.61 22.78C421.983 22.5333 421.447 22.18 421 21.72C420.56 21.26 420.217 20.7033 419.97 20.05C419.73 19.3967 419.61 18.6633 419.61 17.85C419.61 17.0433 419.73 16.3133 419.97 15.66C420.217 15.0067 420.56 14.4533 421 14C421.447 13.5467 421.983 13.1967 422.61 12.95C423.237 12.7033 423.933 12.58 424.7 12.58ZM424.7 21.25C425.553 21.25 426.183 20.9633 426.59 20.39C427.003 19.8167 427.21 18.9767 427.21 17.87C427.21 16.7633 427.003 15.92 426.59 15.34C426.183 14.76 425.553 14.47 424.7 14.47C423.833 14.47 423.193 14.7633 422.78 15.35C422.367 15.93 422.16 16.77 422.16 17.87C422.16 18.97 422.367 19.81 422.78 20.39C423.193 20.9633 423.833 21.25 424.7 21.25ZM438.907 23C438.587 23 438.377 22.85 438.277 22.55L438.077 21.56C437.864 21.8 437.641 22.0167 437.407 22.21C437.174 22.4033 436.921 22.57 436.647 22.71C436.381 22.85 436.091 22.9567 435.777 23.03C435.471 23.11 435.137 23.15 434.777 23.15C434.217 23.15 433.704 23.0333 433.237 22.8C432.771 22.5667 432.367 22.23 432.027 21.79C431.694 21.3433 431.434 20.7933 431.247 20.14C431.067 19.4867 430.977 18.74 430.977 17.9C430.977 17.14 431.081 16.4333 431.287 15.78C431.494 15.1267 431.791 14.56 432.177 14.08C432.564 13.6 433.027 13.2267 433.567 12.96C434.107 12.6867 434.714 12.55 435.387 12.55C435.961 12.55 436.451 12.6433 436.857 12.83C437.264 13.01 437.627 13.2533 437.947 13.56V8.14H440.417V23H438.907ZM435.617 21.19C436.131 21.19 436.567 21.0833 436.927 20.87C437.287 20.6567 437.627 20.3533 437.947 19.96V15.36C437.667 15.02 437.361 14.78 437.027 14.64C436.701 14.5 436.347 14.43 435.967 14.43C435.594 14.43 435.254 14.5 434.947 14.64C434.647 14.78 434.391 14.9933 434.177 15.28C433.971 15.56 433.811 15.92 433.697 16.36C433.584 16.7933 433.527 17.3067 433.527 17.9C433.527 18.5 433.574 19.01 433.667 19.43C433.767 19.8433 433.907 20.1833 434.087 20.45C434.267 20.71 434.487 20.9 434.747 21.02C435.007 21.1333 435.297 21.19 435.617 21.19ZM442.143 9.85C442.37 9.65 442.617 9.46 442.883 9.28C443.157 9.1 443.45 8.94333 443.763 8.81C444.077 8.67667 444.417 8.57333 444.783 8.5C445.15 8.42 445.547 8.38 445.973 8.38C446.553 8.38 447.08 8.46 447.553 8.62C448.033 8.78 448.443 9.01 448.783 9.31C449.123 9.60333 449.387 9.96 449.573 10.38C449.76 10.8 449.853 11.27 449.853 11.79C449.853 12.2967 449.78 12.7367 449.633 13.11C449.487 13.4767 449.3 13.7967 449.073 14.07C448.853 14.3433 448.613 14.58 448.353 14.78C448.093 14.98 447.847 15.17 447.613 15.35C447.38 15.5233 447.177 15.6967 447.003 15.87C446.837 16.0367 446.737 16.2267 446.703 16.44L446.473 17.9H444.783L444.613 16.27C444.607 16.2367 444.603 16.21 444.603 16.19C444.603 16.1633 444.603 16.1333 444.603 16.1C444.603 15.8067 444.677 15.5533 444.823 15.34C444.97 15.12 445.153 14.9167 445.373 14.73C445.593 14.5367 445.83 14.35 446.083 14.17C446.337 13.99 446.573 13.7967 446.793 13.59C447.013 13.3767 447.197 13.1367 447.343 12.87C447.49 12.6033 447.563 12.29 447.563 11.93C447.563 11.69 447.517 11.4767 447.423 11.29C447.337 11.0967 447.213 10.9333 447.053 10.8C446.893 10.66 446.7 10.5533 446.473 10.48C446.253 10.4067 446.013 10.37 445.753 10.37C445.373 10.37 445.05 10.4133 444.783 10.5C444.523 10.58 444.3 10.6733 444.113 10.78C443.933 10.88 443.78 10.9733 443.653 11.06C443.527 11.14 443.413 11.18 443.313 11.18C443.073 11.18 442.9 11.08 442.793 10.88L442.143 9.85ZM444.033 21.64C444.033 21.4333 444.07 21.2367 444.143 21.05C444.223 20.8633 444.33 20.7033 444.463 20.57C444.603 20.4367 444.767 20.33 444.953 20.25C445.14 20.17 445.34 20.13 445.553 20.13C445.76 20.13 445.957 20.17 446.143 20.25C446.33 20.33 446.49 20.4367 446.623 20.57C446.757 20.7033 446.863 20.8633 446.943 21.05C447.023 21.2367 447.063 21.4333 447.063 21.64C447.063 21.8533 447.023 22.0533 446.943 22.24C446.863 22.42 446.757 22.5767 446.623 22.71C446.49 22.8433 446.33 22.9467 446.143 23.02C445.957 23.1 445.76 23.14 445.553 23.14C445.34 23.14 445.14 23.1 444.953 23.02C444.767 22.9467 444.603 22.8433 444.463 22.71C444.33 22.5767 444.223 22.42 444.143 22.24C444.07 22.0533 444.033 21.8533 444.033 21.64Z" fill="#1E212C"/>
</g>
<defs>
<clipPath id="clip0_1473_4468">
<rect width="600" height="30" fill="white" transform="translate(-0.00390625)"/>
</clipPath>
<clipPath id="clip1_1473_4468">
<rect width="20" height="20" fill="white" transform="translate(-0.00390625 5)"/>
</clipPath>
</defs>
</svg>
