<svg width="1230" height="46" viewBox="0 0 1230 46" fill="none" xmlns="http://www.w3.org/2000/svg">
<rect x="0.5" y="0.5" width="245" height="45" rx="3.5" stroke="#7772F1"/>
<path d="M84.5086 19.536C84.45 19.6533 84.3806 19.736 84.3006 19.784C84.226 19.832 84.1353 19.856 84.0286 19.856C83.922 19.856 83.802 19.816 83.6686 19.736C83.5353 19.6507 83.378 19.5573 83.1966 19.456C83.0153 19.3547 82.802 19.264 82.5566 19.184C82.3166 19.0987 82.0313 19.056 81.7006 19.056C81.402 19.056 81.1406 19.0933 80.9166 19.168C80.698 19.2373 80.5113 19.336 80.3566 19.464C80.2073 19.592 80.0953 19.7467 80.0206 19.928C79.946 20.104 79.9086 20.2987 79.9086 20.512C79.9086 20.784 79.9833 21.0107 80.1326 21.192C80.2873 21.3733 80.49 21.528 80.7406 21.656C80.9913 21.784 81.2766 21.8987 81.5966 22C81.9166 22.1013 82.242 22.2107 82.5726 22.328C82.9086 22.44 83.2366 22.5733 83.5566 22.728C83.8766 22.8773 84.162 23.0693 84.4126 23.304C84.6633 23.5333 84.8633 23.816 85.0126 24.152C85.1673 24.488 85.2446 24.896 85.2446 25.376C85.2446 25.8987 85.154 26.3893 84.9726 26.848C84.7966 27.3013 84.5353 27.6987 84.1886 28.04C83.8473 28.376 83.4286 28.6427 82.9326 28.84C82.4366 29.032 81.8686 29.128 81.2286 29.128C80.8606 29.128 80.498 29.0907 80.1406 29.016C79.7833 28.9467 79.4393 28.8453 79.1086 28.712C78.7833 28.5787 78.4766 28.4187 78.1886 28.232C77.906 28.0453 77.6526 27.8373 77.4286 27.608L78.0526 26.576C78.1113 26.5013 78.1806 26.44 78.2606 26.392C78.346 26.3387 78.4393 26.312 78.5406 26.312C78.674 26.312 78.818 26.368 78.9726 26.48C79.1273 26.5867 79.3086 26.7067 79.5166 26.84C79.73 26.9733 79.978 27.096 80.2606 27.208C80.5486 27.3147 80.8926 27.368 81.2926 27.368C81.906 27.368 82.3806 27.224 82.7166 26.936C83.0526 26.6427 83.2206 26.224 83.2206 25.68C83.2206 25.376 83.1433 25.128 82.9886 24.936C82.8393 24.744 82.6393 24.584 82.3886 24.456C82.138 24.3227 81.8526 24.2107 81.5326 24.12C81.2126 24.0293 80.8873 23.9307 80.5566 23.824C80.226 23.7173 79.9006 23.5893 79.5806 23.44C79.2606 23.2907 78.9753 23.096 78.7246 22.856C78.474 22.616 78.2713 22.3173 78.1166 21.96C77.9673 21.5973 77.8926 21.152 77.8926 20.624C77.8926 20.2027 77.9753 19.792 78.1406 19.392C78.3113 18.992 78.5566 18.6373 78.8766 18.328C79.202 18.0187 79.5993 17.7707 80.0686 17.584C80.538 17.3973 81.074 17.304 81.6766 17.304C82.3593 17.304 82.9886 17.4107 83.5646 17.624C84.1406 17.8373 84.6313 18.136 85.0366 18.52L84.5086 19.536ZM90.2788 20.664C90.8921 20.664 91.4468 20.7627 91.9428 20.96C92.4441 21.1573 92.8708 21.4373 93.2228 21.8C93.5748 22.1627 93.8468 22.6053 94.0388 23.128C94.2308 23.6507 94.3268 24.2347 94.3268 24.88C94.3268 25.5307 94.2308 26.1173 94.0388 26.64C93.8468 27.1627 93.5748 27.608 93.2228 27.976C92.8708 28.344 92.4441 28.6267 91.9428 28.824C91.4468 29.0213 90.8921 29.12 90.2788 29.12C89.6654 29.12 89.1081 29.0213 88.6068 28.824C88.1054 28.6267 87.6761 28.344 87.3188 27.976C86.9668 27.608 86.6921 27.1627 86.4948 26.64C86.3028 26.1173 86.2068 25.5307 86.2068 24.88C86.2068 24.2347 86.3028 23.6507 86.4948 23.128C86.6921 22.6053 86.9668 22.1627 87.3188 21.8C87.6761 21.4373 88.1054 21.1573 88.6068 20.96C89.1081 20.7627 89.6654 20.664 90.2788 20.664ZM90.2788 27.6C90.9614 27.6 91.4654 27.3707 91.7908 26.912C92.1214 26.4533 92.2868 25.7813 92.2868 24.896C92.2868 24.0107 92.1214 23.336 91.7908 22.872C91.4654 22.408 90.9614 22.176 90.2788 22.176C89.5854 22.176 89.0734 22.4107 88.7428 22.88C88.4121 23.344 88.2468 24.016 88.2468 24.896C88.2468 25.776 88.4121 26.448 88.7428 26.912C89.0734 27.3707 89.5854 27.6 90.2788 27.6ZM101.637 22.528C101.578 22.6027 101.519 22.6613 101.461 22.704C101.407 22.7467 101.327 22.768 101.221 22.768C101.119 22.768 101.021 22.7387 100.925 22.68C100.829 22.616 100.714 22.5467 100.581 22.472C100.447 22.392 100.287 22.3227 100.101 22.264C99.9192 22.2 99.6925 22.168 99.4205 22.168C99.0738 22.168 98.7698 22.232 98.5085 22.36C98.2472 22.4827 98.0285 22.6613 97.8525 22.896C97.6818 23.1307 97.5538 23.416 97.4685 23.752C97.3832 24.0827 97.3405 24.4587 97.3405 24.88C97.3405 25.3173 97.3858 25.7067 97.4765 26.048C97.5725 26.3893 97.7085 26.6773 97.8845 26.912C98.0605 27.1413 98.2738 27.3173 98.5245 27.44C98.7752 27.5573 99.0578 27.616 99.3725 27.616C99.6872 27.616 99.9405 27.5787 100.133 27.504C100.33 27.424 100.495 27.3387 100.629 27.248C100.762 27.152 100.877 27.0667 100.973 26.992C101.074 26.912 101.186 26.872 101.309 26.872C101.469 26.872 101.589 26.9333 101.669 27.056L102.237 27.776C102.018 28.032 101.781 28.248 101.525 28.424C101.269 28.5947 101.002 28.7333 100.725 28.84C100.453 28.9413 100.17 29.0133 99.8765 29.056C99.5832 29.0987 99.2925 29.12 99.0045 29.12C98.4978 29.12 98.0205 29.0267 97.5725 28.84C97.1245 28.648 96.7325 28.3707 96.3965 28.008C96.0658 27.6453 95.8018 27.2027 95.6045 26.68C95.4125 26.152 95.3165 25.552 95.3165 24.88C95.3165 24.2773 95.4018 23.72 95.5725 23.208C95.7485 22.6907 96.0045 22.2453 96.3405 21.872C96.6765 21.4933 97.0925 21.1973 97.5885 20.984C98.0845 20.7707 98.6552 20.664 99.3005 20.664C99.9138 20.664 100.45 20.7627 100.909 20.96C101.373 21.1573 101.789 21.44 102.157 21.808L101.637 22.528ZM105.598 20.792V29H103.622V20.792H105.598ZM105.894 18.4C105.894 18.5707 105.859 18.7307 105.79 18.88C105.72 19.0293 105.627 19.16 105.51 19.272C105.398 19.384 105.264 19.4747 105.11 19.544C104.955 19.608 104.79 19.64 104.614 19.64C104.443 19.64 104.28 19.608 104.126 19.544C103.976 19.4747 103.846 19.384 103.734 19.272C103.622 19.16 103.531 19.0293 103.462 18.88C103.398 18.7307 103.366 18.5707 103.366 18.4C103.366 18.224 103.398 18.0587 103.462 17.904C103.531 17.7493 103.622 17.616 103.734 17.504C103.846 17.392 103.976 17.304 104.126 17.24C104.28 17.1707 104.443 17.136 104.614 17.136C104.79 17.136 104.955 17.1707 105.11 17.24C105.264 17.304 105.398 17.392 105.51 17.504C105.627 17.616 105.72 17.7493 105.79 17.904C105.859 18.0587 105.894 18.224 105.894 18.4ZM114.269 29H113.381C113.195 29 113.048 28.9733 112.941 28.92C112.835 28.8613 112.755 28.7467 112.701 28.576L112.525 27.992C112.317 28.1787 112.112 28.344 111.909 28.488C111.712 28.6267 111.507 28.744 111.293 28.84C111.08 28.936 110.853 29.008 110.613 29.056C110.373 29.104 110.107 29.128 109.813 29.128C109.467 29.128 109.147 29.0827 108.853 28.992C108.56 28.896 108.307 28.7547 108.093 28.568C107.885 28.3813 107.723 28.1493 107.605 27.872C107.488 27.5947 107.429 27.272 107.429 26.904C107.429 26.5947 107.509 26.2907 107.669 25.992C107.835 25.688 108.107 25.416 108.485 25.176C108.864 24.9307 109.368 24.728 109.997 24.568C110.627 24.408 111.408 24.3173 112.341 24.296V23.816C112.341 23.2667 112.224 22.8613 111.989 22.6C111.76 22.3333 111.424 22.2 110.981 22.2C110.661 22.2 110.395 22.2373 110.181 22.312C109.968 22.3867 109.781 22.472 109.621 22.568C109.467 22.6587 109.323 22.7413 109.189 22.816C109.056 22.8907 108.909 22.928 108.749 22.928C108.616 22.928 108.501 22.8933 108.405 22.824C108.309 22.7547 108.232 22.6693 108.173 22.568L107.813 21.936C108.757 21.072 109.896 20.64 111.229 20.64C111.709 20.64 112.136 20.72 112.509 20.88C112.888 21.0347 113.208 21.2533 113.469 21.536C113.731 21.8133 113.928 22.1467 114.061 22.536C114.2 22.9253 114.269 23.352 114.269 23.816V29ZM110.429 27.768C110.632 27.768 110.819 27.7493 110.989 27.712C111.16 27.6747 111.32 27.6187 111.469 27.544C111.624 27.4693 111.771 27.3787 111.909 27.272C112.053 27.16 112.197 27.0293 112.341 26.88V25.496C111.765 25.5227 111.283 25.5733 110.893 25.648C110.509 25.7173 110.2 25.808 109.965 25.92C109.731 26.032 109.563 26.1627 109.461 26.312C109.365 26.4613 109.317 26.624 109.317 26.8C109.317 27.1467 109.419 27.3947 109.621 27.544C109.829 27.6933 110.099 27.768 110.429 27.768ZM118.316 17.112V29H116.34V17.112H118.316ZM129.57 24.2C129.66 24.3707 129.743 24.5493 129.818 24.736C129.898 24.9173 129.975 25.1013 130.05 25.288C130.124 25.096 130.202 24.9067 130.282 24.72C130.362 24.5333 130.447 24.3547 130.538 24.184L133.962 17.776C134.004 17.696 134.047 17.632 134.09 17.584C134.138 17.536 134.188 17.5013 134.242 17.48C134.3 17.4587 134.364 17.4453 134.434 17.44C134.503 17.4347 134.586 17.432 134.682 17.432H136.306V29H134.41V21.528C134.41 21.3893 134.412 21.2373 134.418 21.072C134.428 20.9067 134.442 20.7387 134.458 20.568L130.962 27.128C130.882 27.2773 130.778 27.3947 130.65 27.48C130.522 27.56 130.372 27.6 130.202 27.6H129.906C129.735 27.6 129.586 27.56 129.458 27.48C129.33 27.3947 129.226 27.2773 129.146 27.128L125.602 20.544C125.623 20.72 125.636 20.8933 125.642 21.064C125.652 21.2293 125.658 21.384 125.658 21.528V29H123.762V17.432H125.386C125.482 17.432 125.564 17.4347 125.634 17.44C125.703 17.4453 125.764 17.4587 125.818 17.48C125.876 17.5013 125.93 17.536 125.978 17.584C126.026 17.632 126.071 17.696 126.114 17.776L129.57 24.2ZM141.917 20.664C142.434 20.664 142.909 20.7467 143.341 20.912C143.778 21.0773 144.154 21.32 144.469 21.64C144.783 21.9547 145.029 22.344 145.205 22.808C145.381 23.2667 145.469 23.792 145.469 24.384C145.469 24.5333 145.461 24.6587 145.445 24.76C145.434 24.856 145.41 24.9333 145.373 24.992C145.341 25.0453 145.295 25.0853 145.237 25.112C145.178 25.1333 145.103 25.144 145.013 25.144H139.941C139.999 25.9867 140.226 26.6053 140.621 27C141.015 27.3947 141.538 27.592 142.189 27.592C142.509 27.592 142.783 27.5547 143.013 27.48C143.247 27.4053 143.45 27.3227 143.621 27.232C143.797 27.1413 143.949 27.0587 144.077 26.984C144.21 26.9093 144.338 26.872 144.461 26.872C144.541 26.872 144.61 26.888 144.669 26.92C144.727 26.952 144.778 26.9973 144.821 27.056L145.397 27.776C145.178 28.032 144.933 28.248 144.661 28.424C144.389 28.5947 144.103 28.7333 143.805 28.84C143.511 28.9413 143.21 29.0133 142.901 29.056C142.597 29.0987 142.301 29.12 142.013 29.12C141.442 29.12 140.911 29.0267 140.421 28.84C139.93 28.648 139.503 28.368 139.141 28C138.778 27.6267 138.493 27.168 138.285 26.624C138.077 26.0747 137.973 25.44 137.973 24.72C137.973 24.16 138.063 23.6347 138.245 23.144C138.426 22.648 138.685 22.2187 139.021 21.856C139.362 21.488 139.775 21.1973 140.261 20.984C140.751 20.7707 141.303 20.664 141.917 20.664ZM141.957 22.08C141.381 22.08 140.93 22.2427 140.605 22.568C140.279 22.8933 140.071 23.3547 139.981 23.952H143.693C143.693 23.696 143.658 23.456 143.589 23.232C143.519 23.0027 143.413 22.8027 143.269 22.632C143.125 22.4613 142.943 22.328 142.725 22.232C142.506 22.1307 142.25 22.08 141.957 22.08ZM152.848 29C152.592 29 152.424 28.88 152.344 28.64L152.184 27.848C152.013 28.04 151.834 28.2133 151.648 28.368C151.461 28.5227 151.258 28.656 151.04 28.768C150.826 28.88 150.594 28.9653 150.344 29.024C150.098 29.088 149.832 29.12 149.544 29.12C149.096 29.12 148.685 29.0267 148.312 28.84C147.938 28.6533 147.616 28.384 147.344 28.032C147.077 27.6747 146.869 27.2347 146.72 26.712C146.576 26.1893 146.504 25.592 146.504 24.92C146.504 24.312 146.586 23.7467 146.752 23.224C146.917 22.7013 147.154 22.248 147.464 21.864C147.773 21.48 148.144 21.1813 148.576 20.968C149.008 20.7493 149.493 20.64 150.032 20.64C150.49 20.64 150.882 20.7147 151.208 20.864C151.533 21.008 151.824 21.2027 152.08 21.448V17.112H154.056V29H152.848ZM150.216 27.552C150.626 27.552 150.976 27.4667 151.264 27.296C151.552 27.1253 151.824 26.8827 152.08 26.568V22.888C151.856 22.616 151.61 22.424 151.344 22.312C151.082 22.2 150.8 22.144 150.496 22.144C150.197 22.144 149.925 22.2 149.68 22.312C149.44 22.424 149.234 22.5947 149.064 22.824C148.898 23.048 148.77 23.336 148.68 23.688C148.589 24.0347 148.544 24.4453 148.544 24.92C148.544 25.4 148.581 25.808 148.656 26.144C148.736 26.4747 148.848 26.7467 148.992 26.96C149.136 27.168 149.312 27.32 149.52 27.416C149.728 27.5067 149.96 27.552 150.216 27.552ZM158.301 20.792V29H156.325V20.792H158.301ZM158.597 18.4C158.597 18.5707 158.562 18.7307 158.493 18.88C158.423 19.0293 158.33 19.16 158.213 19.272C158.101 19.384 157.967 19.4747 157.813 19.544C157.658 19.608 157.493 19.64 157.317 19.64C157.146 19.64 156.983 19.608 156.829 19.544C156.679 19.4747 156.549 19.384 156.437 19.272C156.325 19.16 156.234 19.0293 156.165 18.88C156.101 18.7307 156.069 18.5707 156.069 18.4C156.069 18.224 156.101 18.0587 156.165 17.904C156.234 17.7493 156.325 17.616 156.437 17.504C156.549 17.392 156.679 17.304 156.829 17.24C156.983 17.1707 157.146 17.136 157.317 17.136C157.493 17.136 157.658 17.1707 157.813 17.24C157.967 17.304 158.101 17.392 158.213 17.504C158.33 17.616 158.423 17.7493 158.493 17.904C158.562 18.0587 158.597 18.224 158.597 18.4ZM166.972 29H166.084C165.898 29 165.751 28.9733 165.644 28.92C165.538 28.8613 165.458 28.7467 165.404 28.576L165.228 27.992C165.02 28.1787 164.815 28.344 164.612 28.488C164.415 28.6267 164.21 28.744 163.996 28.84C163.783 28.936 163.556 29.008 163.316 29.056C163.076 29.104 162.81 29.128 162.516 29.128C162.17 29.128 161.85 29.0827 161.556 28.992C161.263 28.896 161.01 28.7547 160.796 28.568C160.588 28.3813 160.426 28.1493 160.308 27.872C160.191 27.5947 160.132 27.272 160.132 26.904C160.132 26.5947 160.212 26.2907 160.372 25.992C160.538 25.688 160.81 25.416 161.188 25.176C161.567 24.9307 162.071 24.728 162.7 24.568C163.33 24.408 164.111 24.3173 165.044 24.296V23.816C165.044 23.2667 164.927 22.8613 164.692 22.6C164.463 22.3333 164.127 22.2 163.684 22.2C163.364 22.2 163.098 22.2373 162.884 22.312C162.671 22.3867 162.484 22.472 162.324 22.568C162.17 22.6587 162.026 22.7413 161.892 22.816C161.759 22.8907 161.612 22.928 161.452 22.928C161.319 22.928 161.204 22.8933 161.108 22.824C161.012 22.7547 160.935 22.6693 160.876 22.568L160.516 21.936C161.46 21.072 162.599 20.64 163.932 20.64C164.412 20.64 164.839 20.72 165.212 20.88C165.591 21.0347 165.911 21.2533 166.172 21.536C166.434 21.8133 166.631 22.1467 166.764 22.536C166.903 22.9253 166.972 23.352 166.972 23.816V29ZM163.132 27.768C163.335 27.768 163.522 27.7493 163.692 27.712C163.863 27.6747 164.023 27.6187 164.172 27.544C164.327 27.4693 164.474 27.3787 164.612 27.272C164.756 27.16 164.9 27.0293 165.044 26.88V25.496C164.468 25.5227 163.986 25.5733 163.596 25.648C163.212 25.7173 162.903 25.808 162.668 25.92C162.434 26.032 162.266 26.1627 162.164 26.312C162.068 26.4613 162.02 26.624 162.02 26.8C162.02 27.1467 162.122 27.3947 162.324 27.544C162.532 27.6933 162.802 27.768 163.132 27.768Z" fill="#7772F1"/>
<path d="M360.602 19.536C360.544 19.6533 360.474 19.736 360.394 19.784C360.32 19.832 360.229 19.856 360.122 19.856C360.016 19.856 359.896 19.816 359.762 19.736C359.629 19.6507 359.472 19.5573 359.29 19.456C359.109 19.3547 358.896 19.264 358.65 19.184C358.41 19.0987 358.125 19.056 357.794 19.056C357.496 19.056 357.234 19.0933 357.01 19.168C356.792 19.2373 356.605 19.336 356.45 19.464C356.301 19.592 356.189 19.7467 356.114 19.928C356.04 20.104 356.002 20.2987 356.002 20.512C356.002 20.784 356.077 21.0107 356.226 21.192C356.381 21.3733 356.584 21.528 356.834 21.656C357.085 21.784 357.37 21.8987 357.69 22C358.01 22.1013 358.336 22.2107 358.666 22.328C359.002 22.44 359.33 22.5733 359.65 22.728C359.97 22.8773 360.256 23.0693 360.506 23.304C360.757 23.5333 360.957 23.816 361.106 24.152C361.261 24.488 361.338 24.896 361.338 25.376C361.338 25.8987 361.248 26.3893 361.066 26.848C360.89 27.3013 360.629 27.6987 360.282 28.04C359.941 28.376 359.522 28.6427 359.026 28.84C358.53 29.032 357.962 29.128 357.322 29.128C356.954 29.128 356.592 29.0907 356.234 29.016C355.877 28.9467 355.533 28.8453 355.202 28.712C354.877 28.5787 354.57 28.4187 354.282 28.232C354 28.0453 353.746 27.8373 353.522 27.608L354.146 26.576C354.205 26.5013 354.274 26.44 354.354 26.392C354.44 26.3387 354.533 26.312 354.634 26.312C354.768 26.312 354.912 26.368 355.066 26.48C355.221 26.5867 355.402 26.7067 355.61 26.84C355.824 26.9733 356.072 27.096 356.354 27.208C356.642 27.3147 356.986 27.368 357.386 27.368C358 27.368 358.474 27.224 358.81 26.936C359.146 26.6427 359.314 26.224 359.314 25.68C359.314 25.376 359.237 25.128 359.082 24.936C358.933 24.744 358.733 24.584 358.482 24.456C358.232 24.3227 357.946 24.2107 357.626 24.12C357.306 24.0293 356.981 23.9307 356.65 23.824C356.32 23.7173 355.994 23.5893 355.674 23.44C355.354 23.2907 355.069 23.096 354.818 22.856C354.568 22.616 354.365 22.3173 354.21 21.96C354.061 21.5973 353.986 21.152 353.986 20.624C353.986 20.2027 354.069 19.792 354.234 19.392C354.405 18.992 354.65 18.6373 354.97 18.328C355.296 18.0187 355.693 17.7707 356.162 17.584C356.632 17.3973 357.168 17.304 357.77 17.304C358.453 17.304 359.082 17.4107 359.658 17.624C360.234 17.8373 360.725 18.136 361.13 18.52L360.602 19.536ZM370.277 17.432V19.144H365.149V22.352H369.189V24.008H365.149V27.28H370.277V29H362.981V17.432H370.277ZM383.233 23.216C383.233 24.064 383.091 24.8507 382.809 25.576C382.526 26.296 382.129 26.92 381.617 27.448C381.105 27.976 380.489 28.3893 379.769 28.688C379.049 28.9813 378.251 29.128 377.377 29.128C376.502 29.128 375.702 28.9813 374.977 28.688C374.257 28.3893 373.638 27.976 373.121 27.448C372.609 26.92 372.211 26.296 371.929 25.576C371.646 24.8507 371.505 24.064 371.505 23.216C371.505 22.368 371.646 21.584 371.929 20.864C372.211 20.1387 372.609 19.512 373.121 18.984C373.638 18.456 374.257 18.0453 374.977 17.752C375.702 17.4533 376.502 17.304 377.377 17.304C378.251 17.304 379.049 17.4533 379.769 17.752C380.489 18.0507 381.105 18.464 381.617 18.992C382.129 19.5147 382.526 20.1387 382.809 20.864C383.091 21.584 383.233 22.368 383.233 23.216ZM381.025 23.216C381.025 22.5813 380.939 22.0133 380.769 21.512C380.603 21.0053 380.363 20.576 380.049 20.224C379.734 19.872 379.35 19.6027 378.897 19.416C378.449 19.2293 377.942 19.136 377.377 19.136C376.811 19.136 376.302 19.2293 375.849 19.416C375.395 19.6027 375.009 19.872 374.689 20.224C374.374 20.576 374.131 21.0053 373.961 21.512C373.79 22.0133 373.705 22.5813 373.705 23.216C373.705 23.8507 373.79 24.4213 373.961 24.928C374.131 25.4293 374.374 25.856 374.689 26.208C375.009 26.5547 375.395 26.8213 375.849 27.008C376.302 27.1947 376.811 27.288 377.377 27.288C377.942 27.288 378.449 27.1947 378.897 27.008C379.35 26.8213 379.734 26.5547 380.049 26.208C380.363 25.856 380.603 25.4293 380.769 24.928C380.939 24.4213 381.025 23.8507 381.025 23.216Z" fill="#9A9CA5"/>
<path d="M584.798 24.48V29H582.646V17.432H586.174C586.964 17.432 587.638 17.5147 588.198 17.68C588.764 17.84 589.225 18.0667 589.582 18.36C589.945 18.6533 590.209 19.0053 590.374 19.416C590.545 19.8213 590.63 20.2693 590.63 20.76C590.63 21.1493 590.572 21.5173 590.454 21.864C590.342 22.2107 590.177 22.5253 589.958 22.808C589.745 23.0907 589.478 23.3387 589.158 23.552C588.844 23.7653 588.484 23.936 588.078 24.064C588.35 24.2187 588.585 24.44 588.782 24.728L591.678 29H589.742C589.556 29 589.396 28.9627 589.262 28.888C589.134 28.8133 589.025 28.7067 588.934 28.568L586.502 24.864C586.412 24.7253 586.31 24.6267 586.198 24.568C586.092 24.5093 585.932 24.48 585.718 24.48H584.798ZM584.798 22.936H586.142C586.548 22.936 586.9 22.8853 587.198 22.784C587.502 22.6827 587.75 22.544 587.942 22.368C588.14 22.1867 588.286 21.9733 588.382 21.728C588.478 21.4827 588.526 21.2133 588.526 20.92C588.526 20.3333 588.332 19.8827 587.942 19.568C587.558 19.2533 586.969 19.096 586.174 19.096H584.798V22.936ZM596.339 20.664C596.856 20.664 597.331 20.7467 597.763 20.912C598.2 21.0773 598.576 21.32 598.891 21.64C599.205 21.9547 599.451 22.344 599.627 22.808C599.803 23.2667 599.891 23.792 599.891 24.384C599.891 24.5333 599.883 24.6587 599.867 24.76C599.856 24.856 599.832 24.9333 599.795 24.992C599.763 25.0453 599.717 25.0853 599.659 25.112C599.6 25.1333 599.525 25.144 599.435 25.144H594.363C594.421 25.9867 594.648 26.6053 595.043 27C595.437 27.3947 595.96 27.592 596.611 27.592C596.931 27.592 597.205 27.5547 597.435 27.48C597.669 27.4053 597.872 27.3227 598.043 27.232C598.219 27.1413 598.371 27.0587 598.499 26.984C598.632 26.9093 598.76 26.872 598.883 26.872C598.963 26.872 599.032 26.888 599.091 26.92C599.149 26.952 599.2 26.9973 599.243 27.056L599.819 27.776C599.6 28.032 599.355 28.248 599.083 28.424C598.811 28.5947 598.525 28.7333 598.227 28.84C597.933 28.9413 597.632 29.0133 597.323 29.056C597.019 29.0987 596.723 29.12 596.435 29.12C595.864 29.12 595.333 29.0267 594.843 28.84C594.352 28.648 593.925 28.368 593.563 28C593.2 27.6267 592.915 27.168 592.707 26.624C592.499 26.0747 592.395 25.44 592.395 24.72C592.395 24.16 592.485 23.6347 592.667 23.144C592.848 22.648 593.107 22.2187 593.443 21.856C593.784 21.488 594.197 21.1973 594.683 20.984C595.173 20.7707 595.725 20.664 596.339 20.664ZM596.379 22.08C595.803 22.08 595.352 22.2427 595.027 22.568C594.701 22.8933 594.493 23.3547 594.403 23.952H598.115C598.115 23.696 598.08 23.456 598.011 23.232C597.941 23.0027 597.835 22.8027 597.691 22.632C597.547 22.4613 597.365 22.328 597.147 22.232C596.928 22.1307 596.672 22.08 596.379 22.08ZM606.366 22.392C606.312 22.4773 606.256 22.5387 606.198 22.576C606.139 22.608 606.064 22.624 605.974 22.624C605.878 22.624 605.774 22.5973 605.662 22.544C605.555 22.4907 605.43 22.432 605.286 22.368C605.142 22.2987 604.976 22.2373 604.79 22.184C604.608 22.1307 604.392 22.104 604.142 22.104C603.752 22.104 603.446 22.1867 603.222 22.352C602.998 22.5173 602.886 22.7333 602.886 23C602.886 23.176 602.942 23.3253 603.054 23.448C603.171 23.5653 603.323 23.6693 603.51 23.76C603.702 23.8507 603.918 23.9333 604.158 24.008C604.398 24.0773 604.643 24.1547 604.894 24.24C605.144 24.3253 605.39 24.424 605.63 24.536C605.87 24.6427 606.083 24.7813 606.27 24.952C606.462 25.1173 606.614 25.3173 606.726 25.552C606.843 25.7867 606.902 26.0693 606.902 26.4C606.902 26.7947 606.83 27.16 606.686 27.496C606.542 27.8267 606.331 28.1147 606.054 28.36C605.776 28.6 605.432 28.7893 605.022 28.928C604.616 29.0613 604.15 29.128 603.622 29.128C603.339 29.128 603.062 29.1013 602.789 29.048C602.523 29 602.264 28.9307 602.014 28.84C601.768 28.7493 601.539 28.6427 601.326 28.52C601.118 28.3973 600.934 28.264 600.774 28.12L601.23 27.368C601.288 27.2773 601.358 27.208 601.438 27.16C601.518 27.112 601.619 27.088 601.742 27.088C601.864 27.088 601.979 27.1227 602.086 27.192C602.198 27.2613 602.326 27.336 602.47 27.416C602.614 27.496 602.782 27.5707 602.974 27.64C603.171 27.7093 603.419 27.744 603.718 27.744C603.952 27.744 604.152 27.7173 604.318 27.664C604.488 27.6053 604.627 27.5307 604.734 27.44C604.846 27.3493 604.926 27.2453 604.974 27.128C605.027 27.0053 605.054 26.88 605.054 26.752C605.054 26.56 604.995 26.4027 604.878 26.28C604.766 26.1573 604.614 26.0507 604.422 25.96C604.235 25.8693 604.019 25.7893 603.774 25.72C603.534 25.6453 603.286 25.5653 603.03 25.48C602.779 25.3947 602.531 25.296 602.286 25.184C602.046 25.0667 601.83 24.92 601.638 24.744C601.451 24.568 601.299 24.352 601.182 24.096C601.07 23.84 601.014 23.5307 601.014 23.168C601.014 22.832 601.08 22.512 601.214 22.208C601.347 21.904 601.542 21.64 601.798 21.416C602.059 21.1867 602.382 21.0053 602.766 20.872C603.155 20.7333 603.603 20.664 604.11 20.664C604.675 20.664 605.19 20.7573 605.654 20.944C606.118 21.1307 606.504 21.376 606.814 21.68L606.366 22.392ZM611.87 20.664C612.387 20.664 612.862 20.7467 613.294 20.912C613.731 21.0773 614.107 21.32 614.422 21.64C614.737 21.9547 614.982 22.344 615.158 22.808C615.334 23.2667 615.422 23.792 615.422 24.384C615.422 24.5333 615.414 24.6587 615.398 24.76C615.387 24.856 615.363 24.9333 615.326 24.992C615.294 25.0453 615.249 25.0853 615.19 25.112C615.131 25.1333 615.057 25.144 614.966 25.144H609.894C609.953 25.9867 610.179 26.6053 610.574 27C610.969 27.3947 611.491 27.592 612.142 27.592C612.462 27.592 612.737 27.5547 612.966 27.48C613.201 27.4053 613.403 27.3227 613.574 27.232C613.75 27.1413 613.902 27.0587 614.03 26.984C614.163 26.9093 614.291 26.872 614.414 26.872C614.494 26.872 614.563 26.888 614.622 26.92C614.681 26.952 614.731 26.9973 614.774 27.056L615.35 27.776C615.131 28.032 614.886 28.248 614.614 28.424C614.342 28.5947 614.057 28.7333 613.758 28.84C613.465 28.9413 613.163 29.0133 612.854 29.056C612.55 29.0987 612.254 29.12 611.966 29.12C611.395 29.12 610.865 29.0267 610.374 28.84C609.883 28.648 609.457 28.368 609.094 28C608.731 27.6267 608.446 27.168 608.238 26.624C608.03 26.0747 607.926 25.44 607.926 24.72C607.926 24.16 608.017 23.6347 608.198 23.144C608.379 22.648 608.638 22.2187 608.974 21.856C609.315 21.488 609.729 21.1973 610.214 20.984C610.705 20.7707 611.257 20.664 611.87 20.664ZM611.91 22.08C611.334 22.08 610.883 22.2427 610.558 22.568C610.233 22.8933 610.025 23.3547 609.934 23.952H613.646C613.646 23.696 613.611 23.456 613.542 23.232C613.473 23.0027 613.366 22.8027 613.222 22.632C613.078 22.4613 612.897 22.328 612.678 22.232C612.459 22.1307 612.203 22.08 611.91 22.08ZM623.457 29H622.569C622.382 29 622.235 28.9733 622.129 28.92C622.022 28.8613 621.942 28.7467 621.889 28.576L621.713 27.992C621.505 28.1787 621.299 28.344 621.097 28.488C620.899 28.6267 620.694 28.744 620.481 28.84C620.267 28.936 620.041 29.008 619.801 29.056C619.561 29.104 619.294 29.128 619.001 29.128C618.654 29.128 618.334 29.0827 618.041 28.992C617.747 28.896 617.494 28.7547 617.281 28.568C617.073 28.3813 616.91 28.1493 616.793 27.872C616.675 27.5947 616.617 27.272 616.617 26.904C616.617 26.5947 616.697 26.2907 616.857 25.992C617.022 25.688 617.294 25.416 617.673 25.176C618.051 24.9307 618.555 24.728 619.185 24.568C619.814 24.408 620.595 24.3173 621.529 24.296V23.816C621.529 23.2667 621.411 22.8613 621.177 22.6C620.947 22.3333 620.611 22.2 620.169 22.2C619.849 22.2 619.582 22.2373 619.369 22.312C619.155 22.3867 618.969 22.472 618.809 22.568C618.654 22.6587 618.51 22.7413 618.377 22.816C618.243 22.8907 618.097 22.928 617.937 22.928C617.803 22.928 617.689 22.8933 617.593 22.824C617.497 22.7547 617.419 22.6693 617.361 22.568L617.001 21.936C617.945 21.072 619.083 20.64 620.417 20.64C620.897 20.64 621.323 20.72 621.697 20.88C622.075 21.0347 622.395 21.2533 622.657 21.536C622.918 21.8133 623.115 22.1467 623.249 22.536C623.387 22.9253 623.457 23.352 623.457 23.816V29ZM619.617 27.768C619.819 27.768 620.006 27.7493 620.177 27.712C620.347 27.6747 620.507 27.6187 620.657 27.544C620.811 27.4693 620.958 27.3787 621.097 27.272C621.241 27.16 621.385 27.0293 621.529 26.88V25.496C620.953 25.5227 620.47 25.5733 620.081 25.648C619.697 25.7173 619.387 25.808 619.153 25.92C618.918 26.032 618.75 26.1627 618.649 26.312C618.553 26.4613 618.505 26.624 618.505 26.8C618.505 27.1467 618.606 27.3947 618.809 27.544C619.017 27.6933 619.286 27.768 619.617 27.768ZM625.4 29V20.792H626.56C626.762 20.792 626.904 20.8293 626.984 20.904C627.064 20.9787 627.117 21.1067 627.144 21.288L627.264 22.28C627.557 21.7733 627.901 21.3733 628.296 21.08C628.69 20.7867 629.133 20.64 629.624 20.64C630.029 20.64 630.365 20.7333 630.632 20.92L630.376 22.4C630.36 22.496 630.325 22.5653 630.272 22.608C630.218 22.6453 630.146 22.664 630.056 22.664C629.976 22.664 629.866 22.6453 629.728 22.608C629.589 22.5707 629.405 22.552 629.176 22.552C628.765 22.552 628.413 22.6667 628.12 22.896C627.826 23.12 627.578 23.4507 627.376 23.888V29H625.4ZM637.699 22.528C637.64 22.6027 637.582 22.6613 637.523 22.704C637.47 22.7467 637.39 22.768 637.283 22.768C637.182 22.768 637.083 22.7387 636.987 22.68C636.891 22.616 636.776 22.5467 636.643 22.472C636.51 22.392 636.35 22.3227 636.163 22.264C635.982 22.2 635.755 22.168 635.483 22.168C635.136 22.168 634.832 22.232 634.571 22.36C634.31 22.4827 634.091 22.6613 633.915 22.896C633.744 23.1307 633.616 23.416 633.531 23.752C633.446 24.0827 633.403 24.4587 633.403 24.88C633.403 25.3173 633.448 25.7067 633.539 26.048C633.635 26.3893 633.771 26.6773 633.947 26.912C634.123 27.1413 634.336 27.3173 634.587 27.44C634.838 27.5573 635.12 27.616 635.435 27.616C635.75 27.616 636.003 27.5787 636.195 27.504C636.392 27.424 636.558 27.3387 636.691 27.248C636.824 27.152 636.939 27.0667 637.035 26.992C637.136 26.912 637.248 26.872 637.371 26.872C637.531 26.872 637.651 26.9333 637.731 27.056L638.299 27.776C638.08 28.032 637.843 28.248 637.587 28.424C637.331 28.5947 637.064 28.7333 636.787 28.84C636.515 28.9413 636.232 29.0133 635.939 29.056C635.646 29.0987 635.355 29.12 635.067 29.12C634.56 29.12 634.083 29.0267 633.635 28.84C633.187 28.648 632.795 28.3707 632.459 28.008C632.128 27.6453 631.864 27.2027 631.667 26.68C631.475 26.152 631.379 25.552 631.379 24.88C631.379 24.2773 631.464 23.72 631.635 23.208C631.811 22.6907 632.067 22.2453 632.403 21.872C632.739 21.4933 633.155 21.1973 633.651 20.984C634.147 20.7707 634.718 20.664 635.363 20.664C635.976 20.664 636.512 20.7627 636.971 20.96C637.435 21.1573 637.851 21.44 638.219 21.808L637.699 22.528ZM639.556 29V17.112H641.532V21.68C641.852 21.376 642.204 21.1307 642.588 20.944C642.972 20.7573 643.423 20.664 643.94 20.664C644.388 20.664 644.785 20.7413 645.132 20.896C645.479 21.0453 645.767 21.2587 645.996 21.536C646.231 21.808 646.407 22.136 646.524 22.52C646.647 22.8987 646.708 23.3173 646.708 23.776V29H644.732V23.776C644.732 23.2747 644.615 22.888 644.38 22.616C644.151 22.3387 643.804 22.2 643.34 22.2C642.999 22.2 642.679 22.2773 642.38 22.432C642.081 22.5867 641.799 22.7973 641.532 23.064V29H639.556Z" fill="#9A9CA5"/>
<path d="M820.604 26.272C820.722 26.272 820.823 26.3173 820.908 26.408L821.756 27.328C821.287 27.9093 820.708 28.3547 820.02 28.664C819.338 28.9733 818.516 29.128 817.556 29.128C816.698 29.128 815.924 28.9813 815.236 28.688C814.554 28.3947 813.97 27.9867 813.484 27.464C812.999 26.9413 812.626 26.3173 812.364 25.592C812.108 24.8667 811.98 24.0747 811.98 23.216C811.98 22.3467 812.124 21.552 812.412 20.832C812.7 20.1067 813.106 19.4827 813.628 18.96C814.151 18.4373 814.775 18.032 815.5 17.744C816.231 17.4507 817.036 17.304 817.916 17.304C818.775 17.304 819.524 17.4427 820.164 17.72C820.81 17.992 821.362 18.3547 821.82 18.808L821.1 19.808C821.058 19.872 821.002 19.928 820.932 19.976C820.868 20.024 820.778 20.048 820.66 20.048C820.538 20.048 820.412 20 820.284 19.904C820.156 19.808 819.994 19.704 819.796 19.592C819.599 19.48 819.348 19.376 819.044 19.28C818.746 19.184 818.364 19.136 817.9 19.136C817.356 19.136 816.855 19.232 816.396 19.424C815.943 19.6107 815.551 19.88 815.22 20.232C814.895 20.584 814.639 21.0133 814.452 21.52C814.271 22.0213 814.18 22.5867 814.18 23.216C814.18 23.8667 814.271 24.4453 814.452 24.952C814.639 25.4587 814.89 25.8853 815.204 26.232C815.519 26.5787 815.89 26.8453 816.316 27.032C816.743 27.2133 817.202 27.304 817.692 27.304C817.986 27.304 818.25 27.288 818.484 27.256C818.724 27.224 818.943 27.1733 819.14 27.104C819.343 27.0347 819.532 26.9467 819.708 26.84C819.89 26.728 820.068 26.592 820.244 26.432C820.298 26.384 820.354 26.3467 820.412 26.32C820.471 26.288 820.535 26.272 820.604 26.272ZM826.779 20.664C827.392 20.664 827.947 20.7627 828.443 20.96C828.944 21.1573 829.371 21.4373 829.723 21.8C830.075 22.1627 830.347 22.6053 830.539 23.128C830.731 23.6507 830.827 24.2347 830.827 24.88C830.827 25.5307 830.731 26.1173 830.539 26.64C830.347 27.1627 830.075 27.608 829.723 27.976C829.371 28.344 828.944 28.6267 828.443 28.824C827.947 29.0213 827.392 29.12 826.779 29.12C826.165 29.12 825.608 29.0213 825.107 28.824C824.605 28.6267 824.176 28.344 823.819 27.976C823.467 27.608 823.192 27.1627 822.995 26.64C822.803 26.1173 822.707 25.5307 822.707 24.88C822.707 24.2347 822.803 23.6507 822.995 23.128C823.192 22.6053 823.467 22.1627 823.819 21.8C824.176 21.4373 824.605 21.1573 825.107 20.96C825.608 20.7627 826.165 20.664 826.779 20.664ZM826.779 27.6C827.461 27.6 827.965 27.3707 828.291 26.912C828.621 26.4533 828.787 25.7813 828.787 24.896C828.787 24.0107 828.621 23.336 828.291 22.872C827.965 22.408 827.461 22.176 826.779 22.176C826.085 22.176 825.573 22.4107 825.243 22.88C824.912 23.344 824.747 24.016 824.747 24.896C824.747 25.776 824.912 26.448 825.243 26.912C825.573 27.3707 826.085 27.6 826.779 27.6ZM832.368 29V20.792H833.577C833.833 20.792 834.001 20.912 834.081 21.152L834.217 21.8C834.382 21.6293 834.555 21.4747 834.737 21.336C834.923 21.1973 835.118 21.0773 835.321 20.976C835.529 20.8747 835.75 20.7973 835.985 20.744C836.219 20.6907 836.475 20.664 836.753 20.664C837.201 20.664 837.598 20.7413 837.945 20.896C838.291 21.0453 838.579 21.2587 838.809 21.536C839.043 21.808 839.219 22.136 839.337 22.52C839.459 22.8987 839.521 23.3173 839.521 23.776V29H837.545V23.776C837.545 23.2747 837.427 22.888 837.193 22.616C836.963 22.3387 836.617 22.2 836.153 22.2C835.811 22.2 835.491 22.2773 835.193 22.432C834.894 22.5867 834.611 22.7973 834.345 23.064V29H832.368ZM844.158 29.128C843.449 29.128 842.902 28.928 842.518 28.528C842.134 28.1227 841.942 27.5653 841.942 26.856V22.272H841.11C841.004 22.272 840.91 22.2373 840.83 22.168C840.756 22.0987 840.718 21.9947 840.718 21.856V21.072L842.038 20.856L842.454 18.616C842.476 18.5093 842.524 18.4267 842.598 18.368C842.678 18.3093 842.777 18.28 842.894 18.28H843.918V20.864H846.078V22.272H843.918V26.72C843.918 26.976 843.982 27.176 844.11 27.32C844.238 27.464 844.409 27.536 844.622 27.536C844.745 27.536 844.846 27.5227 844.926 27.496C845.012 27.464 845.084 27.432 845.142 27.4C845.206 27.368 845.262 27.3387 845.31 27.312C845.358 27.28 845.406 27.264 845.454 27.264C845.513 27.264 845.561 27.28 845.598 27.312C845.636 27.3387 845.676 27.3813 845.718 27.44L846.31 28.4C846.022 28.64 845.692 28.8213 845.318 28.944C844.945 29.0667 844.558 29.128 844.158 29.128ZM851.042 20.664C851.559 20.664 852.034 20.7467 852.466 20.912C852.903 21.0773 853.279 21.32 853.594 21.64C853.908 21.9547 854.154 22.344 854.33 22.808C854.506 23.2667 854.594 23.792 854.594 24.384C854.594 24.5333 854.586 24.6587 854.57 24.76C854.559 24.856 854.535 24.9333 854.498 24.992C854.466 25.0453 854.42 25.0853 854.362 25.112C854.303 25.1333 854.228 25.144 854.138 25.144H849.066C849.124 25.9867 849.351 26.6053 849.746 27C850.14 27.3947 850.663 27.592 851.314 27.592C851.634 27.592 851.908 27.5547 852.138 27.48C852.372 27.4053 852.575 27.3227 852.746 27.232C852.922 27.1413 853.074 27.0587 853.202 26.984C853.335 26.9093 853.463 26.872 853.586 26.872C853.666 26.872 853.735 26.888 853.794 26.92C853.852 26.952 853.903 26.9973 853.946 27.056L854.522 27.776C854.303 28.032 854.058 28.248 853.786 28.424C853.514 28.5947 853.228 28.7333 852.93 28.84C852.636 28.9413 852.335 29.0133 852.026 29.056C851.722 29.0987 851.426 29.12 851.138 29.12C850.567 29.12 850.036 29.0267 849.546 28.84C849.055 28.648 848.628 28.368 848.266 28C847.903 27.6267 847.618 27.168 847.41 26.624C847.202 26.0747 847.098 25.44 847.098 24.72C847.098 24.16 847.188 23.6347 847.37 23.144C847.551 22.648 847.81 22.2187 848.146 21.856C848.487 21.488 848.9 21.1973 849.386 20.984C849.876 20.7707 850.428 20.664 851.042 20.664ZM851.082 22.08C850.506 22.08 850.055 22.2427 849.73 22.568C849.404 22.8933 849.196 23.3547 849.106 23.952H852.818C852.818 23.696 852.783 23.456 852.714 23.232C852.644 23.0027 852.538 22.8027 852.394 22.632C852.25 22.4613 852.068 22.328 851.85 22.232C851.631 22.1307 851.375 22.08 851.082 22.08ZM856.197 29V20.792H857.405C857.661 20.792 857.829 20.912 857.909 21.152L858.045 21.8C858.21 21.6293 858.383 21.4747 858.565 21.336C858.751 21.1973 858.946 21.0773 859.149 20.976C859.357 20.8747 859.578 20.7973 859.813 20.744C860.047 20.6907 860.303 20.664 860.581 20.664C861.029 20.664 861.426 20.7413 861.773 20.896C862.119 21.0453 862.407 21.2587 862.637 21.536C862.871 21.808 863.047 22.136 863.165 22.52C863.287 22.8987 863.349 23.3173 863.349 23.776V29H861.373V23.776C861.373 23.2747 861.255 22.888 861.021 22.616C860.791 22.3387 860.445 22.2 859.981 22.2C859.639 22.2 859.319 22.2773 859.021 22.432C858.722 22.5867 858.439 22.7973 858.173 23.064V29H856.197ZM867.986 29.128C867.277 29.128 866.73 28.928 866.346 28.528C865.962 28.1227 865.77 27.5653 865.77 26.856V22.272H864.938C864.832 22.272 864.738 22.2373 864.658 22.168C864.584 22.0987 864.546 21.9947 864.546 21.856V21.072L865.866 20.856L866.282 18.616C866.304 18.5093 866.352 18.4267 866.426 18.368C866.506 18.3093 866.605 18.28 866.722 18.28H867.746V20.864H869.906V22.272H867.746V26.72C867.746 26.976 867.81 27.176 867.938 27.32C868.066 27.464 868.237 27.536 868.45 27.536C868.573 27.536 868.674 27.5227 868.754 27.496C868.84 27.464 868.912 27.432 868.97 27.4C869.034 27.368 869.09 27.3387 869.138 27.312C869.186 27.28 869.234 27.264 869.282 27.264C869.341 27.264 869.389 27.28 869.426 27.312C869.464 27.3387 869.504 27.3813 869.546 27.44L870.138 28.4C869.85 28.64 869.52 28.8213 869.146 28.944C868.773 29.0667 868.386 29.128 867.986 29.128ZM878.82 17.304C879.289 17.304 879.708 17.376 880.076 17.52C880.449 17.664 880.766 17.856 881.028 18.096C881.294 18.336 881.502 18.6107 881.652 18.92C881.806 19.2293 881.897 19.5493 881.924 19.88L880.668 20.144C880.652 20.1493 880.633 20.152 880.612 20.152C880.596 20.152 880.58 20.152 880.564 20.152C880.473 20.152 880.39 20.128 880.316 20.08C880.246 20.0267 880.19 19.9467 880.148 19.84C880.1 19.7013 880.038 19.5707 879.964 19.448C879.889 19.32 879.798 19.2107 879.692 19.12C879.585 19.024 879.46 18.9493 879.316 18.896C879.172 18.8373 879.006 18.808 878.82 18.808C878.596 18.808 878.396 18.848 878.22 18.928C878.044 19.0027 877.894 19.1067 877.772 19.24C877.649 19.368 877.556 19.52 877.492 19.696C877.428 19.8667 877.396 20.048 877.396 20.24C877.396 20.4 877.412 20.5547 877.444 20.704C877.481 20.8533 877.537 21.0027 877.612 21.152C877.686 21.3013 877.782 21.456 877.9 21.616C878.022 21.7707 878.172 21.9387 878.348 22.12L881.42 25.312C881.596 24.976 881.737 24.6213 881.844 24.248C881.95 23.8747 882.02 23.496 882.052 23.112C882.062 22.9893 882.102 22.8907 882.172 22.816C882.241 22.7413 882.337 22.704 882.46 22.704H883.7C883.694 23.408 883.593 24.08 883.396 24.72C883.198 25.36 882.916 25.9493 882.548 26.488L884.972 29H883.036C882.934 29 882.844 28.9947 882.764 28.984C882.689 28.9733 882.617 28.9547 882.548 28.928C882.478 28.896 882.412 28.856 882.348 28.808C882.284 28.76 882.217 28.6987 882.148 28.624L881.348 27.8C880.836 28.216 880.265 28.5413 879.636 28.776C879.012 29.0107 878.334 29.128 877.604 29.128C877.156 29.128 876.718 29.0533 876.292 28.904C875.865 28.7493 875.484 28.528 875.148 28.24C874.812 27.952 874.54 27.6053 874.332 27.2C874.129 26.7893 874.028 26.328 874.028 25.816C874.028 25.4587 874.086 25.12 874.204 24.8C874.321 24.4747 874.484 24.1733 874.692 23.896C874.9 23.6187 875.145 23.368 875.428 23.144C875.716 22.92 876.03 22.728 876.372 22.568C876.089 22.168 875.881 21.7787 875.748 21.4C875.62 21.016 875.556 20.6347 875.556 20.256C875.556 19.856 875.628 19.4773 875.772 19.12C875.921 18.7573 876.134 18.4427 876.412 18.176C876.694 17.9093 877.038 17.6987 877.444 17.544C877.849 17.384 878.308 17.304 878.82 17.304ZM876.036 25.656C876.036 25.9493 876.086 26.2133 876.188 26.448C876.289 26.6827 876.428 26.8827 876.604 27.048C876.78 27.208 876.982 27.3333 877.212 27.424C877.446 27.5093 877.694 27.552 877.956 27.552C878.425 27.552 878.852 27.48 879.236 27.336C879.625 27.1867 879.98 26.9813 880.3 26.72L877.26 23.6C876.833 23.8773 876.521 24.1893 876.324 24.536C876.132 24.8827 876.036 25.256 876.036 25.656ZM891.423 24.928V29H889.271V17.432H893.039C893.813 17.432 894.482 17.5227 895.047 17.704C895.613 17.8853 896.079 18.1387 896.447 18.464C896.815 18.7893 897.087 19.1787 897.263 19.632C897.439 20.0853 897.527 20.5813 897.527 21.12C897.527 21.68 897.434 22.1947 897.247 22.664C897.061 23.128 896.781 23.528 896.407 23.864C896.034 24.2 895.567 24.4613 895.007 24.648C894.447 24.8347 893.791 24.928 893.039 24.928H891.423ZM891.423 23.248H893.039C893.434 23.248 893.778 23.2 894.071 23.104C894.365 23.0027 894.607 22.8613 894.799 22.68C894.991 22.4933 895.135 22.2693 895.231 22.008C895.327 21.7413 895.375 21.4453 895.375 21.12C895.375 20.8107 895.327 20.5307 895.231 20.28C895.135 20.0293 894.991 19.816 894.799 19.64C894.607 19.464 894.365 19.3307 894.071 19.24C893.778 19.144 893.434 19.096 893.039 19.096H891.423V23.248ZM901.423 24.48V29H899.271V17.432H902.799C903.589 17.432 904.263 17.5147 904.823 17.68C905.389 17.84 905.85 18.0667 906.207 18.36C906.57 18.6533 906.834 19.0053 906.999 19.416C907.17 19.8213 907.255 20.2693 907.255 20.76C907.255 21.1493 907.197 21.5173 907.079 21.864C906.967 22.2107 906.802 22.5253 906.583 22.808C906.37 23.0907 906.103 23.3387 905.783 23.552C905.469 23.7653 905.109 23.936 904.703 24.064C904.975 24.2187 905.21 24.44 905.407 24.728L908.303 29H906.367C906.181 29 906.021 28.9627 905.887 28.888C905.759 28.8133 905.65 28.7067 905.559 28.568L903.127 24.864C903.037 24.7253 902.935 24.6267 902.823 24.568C902.717 24.5093 902.557 24.48 902.343 24.48H901.423ZM901.423 22.936H902.767C903.173 22.936 903.525 22.8853 903.823 22.784C904.127 22.6827 904.375 22.544 904.567 22.368C904.765 22.1867 904.911 21.9733 905.007 21.728C905.103 21.4827 905.151 21.2133 905.151 20.92C905.151 20.3333 904.957 19.8827 904.567 19.568C904.183 19.2533 903.594 19.096 902.799 19.096H901.423V22.936Z" fill="#9A9CA5"/>
<path d="M1063.66 24.928V29H1061.51V17.432H1065.27C1066.05 17.432 1066.72 17.5227 1067.28 17.704C1067.85 17.8853 1068.31 18.1387 1068.68 18.464C1069.05 18.7893 1069.32 19.1787 1069.5 19.632C1069.67 20.0853 1069.76 20.5813 1069.76 21.12C1069.76 21.68 1069.67 22.1947 1069.48 22.664C1069.29 23.128 1069.01 23.528 1068.64 23.864C1068.27 24.2 1067.8 24.4613 1067.24 24.648C1066.68 24.8347 1066.03 24.928 1065.27 24.928H1063.66ZM1063.66 23.248H1065.27C1065.67 23.248 1066.01 23.2 1066.31 23.104C1066.6 23.0027 1066.84 22.8613 1067.03 22.68C1067.23 22.4933 1067.37 22.2693 1067.47 22.008C1067.56 21.7413 1067.61 21.4453 1067.61 21.12C1067.61 20.8107 1067.56 20.5307 1067.47 20.28C1067.37 20.0293 1067.23 19.816 1067.03 19.64C1066.84 19.464 1066.6 19.3307 1066.31 19.24C1066.01 19.144 1065.67 19.096 1065.27 19.096H1063.66V23.248ZM1077.35 29H1076.46C1076.27 29 1076.13 28.9733 1076.02 28.92C1075.91 28.8613 1075.83 28.7467 1075.78 28.576L1075.6 27.992C1075.4 28.1787 1075.19 28.344 1074.99 28.488C1074.79 28.6267 1074.58 28.744 1074.37 28.84C1074.16 28.936 1073.93 29.008 1073.69 29.056C1073.45 29.104 1073.18 29.128 1072.89 29.128C1072.54 29.128 1072.22 29.0827 1071.93 28.992C1071.64 28.896 1071.38 28.7547 1071.17 28.568C1070.96 28.3813 1070.8 28.1493 1070.68 27.872C1070.57 27.5947 1070.51 27.272 1070.51 26.904C1070.51 26.5947 1070.59 26.2907 1070.75 25.992C1070.91 25.688 1071.18 25.416 1071.56 25.176C1071.94 24.9307 1072.45 24.728 1073.08 24.568C1073.7 24.408 1074.49 24.3173 1075.42 24.296V23.816C1075.42 23.2667 1075.3 22.8613 1075.07 22.6C1074.84 22.3333 1074.5 22.2 1074.06 22.2C1073.74 22.2 1073.47 22.2373 1073.26 22.312C1073.05 22.3867 1072.86 22.472 1072.7 22.568C1072.54 22.6587 1072.4 22.7413 1072.27 22.816C1072.13 22.8907 1071.99 22.928 1071.83 22.928C1071.69 22.928 1071.58 22.8933 1071.48 22.824C1071.39 22.7547 1071.31 22.6693 1071.25 22.568L1070.89 21.936C1071.84 21.072 1072.97 20.64 1074.31 20.64C1074.79 20.64 1075.21 20.72 1075.59 20.88C1075.97 21.0347 1076.29 21.2533 1076.55 21.536C1076.81 21.8133 1077.01 22.1467 1077.14 22.536C1077.28 22.9253 1077.35 23.352 1077.35 23.816V29ZM1073.51 27.768C1073.71 27.768 1073.9 27.7493 1074.07 27.712C1074.24 27.6747 1074.4 27.6187 1074.55 27.544C1074.7 27.4693 1074.85 27.3787 1074.99 27.272C1075.13 27.16 1075.28 27.0293 1075.42 26.88V25.496C1074.84 25.5227 1074.36 25.5733 1073.97 25.648C1073.59 25.7173 1073.28 25.808 1073.04 25.92C1072.81 26.032 1072.64 26.1627 1072.54 26.312C1072.44 26.4613 1072.4 26.624 1072.4 26.8C1072.4 27.1467 1072.5 27.3947 1072.7 27.544C1072.91 27.6933 1073.18 27.768 1073.51 27.768ZM1081.92 31.256C1081.86 31.3947 1081.79 31.4987 1081.69 31.568C1081.6 31.6427 1081.46 31.68 1081.27 31.68H1079.79L1081.33 28.392L1078.01 20.792H1079.74C1079.9 20.792 1080.02 20.8293 1080.11 20.904C1080.19 20.9787 1080.25 21.064 1080.3 21.16L1082.05 25.416C1082.11 25.5547 1082.16 25.6987 1082.2 25.848C1082.24 25.9973 1082.28 26.1467 1082.31 26.296C1082.36 26.1413 1082.4 25.992 1082.45 25.848C1082.5 25.704 1082.56 25.5573 1082.62 25.408L1084.27 21.16C1084.31 21.0533 1084.38 20.9653 1084.47 20.896C1084.57 20.8267 1084.69 20.792 1084.81 20.792H1086.39L1081.92 31.256ZM1090.67 20.664C1091.18 20.664 1091.66 20.7467 1092.09 20.912C1092.53 21.0773 1092.9 21.32 1093.22 21.64C1093.53 21.9547 1093.78 22.344 1093.95 22.808C1094.13 23.2667 1094.22 23.792 1094.22 24.384C1094.22 24.5333 1094.21 24.6587 1094.19 24.76C1094.18 24.856 1094.16 24.9333 1094.12 24.992C1094.09 25.0453 1094.05 25.0853 1093.99 25.112C1093.93 25.1333 1093.85 25.144 1093.76 25.144H1088.69C1088.75 25.9867 1088.98 26.6053 1089.37 27C1089.77 27.3947 1090.29 27.592 1090.94 27.592C1091.26 27.592 1091.53 27.5547 1091.76 27.48C1092 27.4053 1092.2 27.3227 1092.37 27.232C1092.55 27.1413 1092.7 27.0587 1092.83 26.984C1092.96 26.9093 1093.09 26.872 1093.21 26.872C1093.29 26.872 1093.36 26.888 1093.42 26.92C1093.48 26.952 1093.53 26.9973 1093.57 27.056L1094.15 27.776C1093.93 28.032 1093.68 28.248 1093.41 28.424C1093.14 28.5947 1092.85 28.7333 1092.55 28.84C1092.26 28.9413 1091.96 29.0133 1091.65 29.056C1091.35 29.0987 1091.05 29.12 1090.76 29.12C1090.19 29.12 1089.66 29.0267 1089.17 28.84C1088.68 28.648 1088.25 28.368 1087.89 28C1087.53 27.6267 1087.24 27.168 1087.03 26.624C1086.83 26.0747 1086.72 25.44 1086.72 24.72C1086.72 24.16 1086.81 23.6347 1086.99 23.144C1087.18 22.648 1087.43 22.2187 1087.77 21.856C1088.11 21.488 1088.53 21.1973 1089.01 20.984C1089.5 20.7707 1090.05 20.664 1090.67 20.664ZM1090.71 22.08C1090.13 22.08 1089.68 22.2427 1089.35 22.568C1089.03 22.8933 1088.82 23.3547 1088.73 23.952H1092.44C1092.44 23.696 1092.41 23.456 1092.34 23.232C1092.27 23.0027 1092.16 22.8027 1092.02 22.632C1091.87 22.4613 1091.69 22.328 1091.47 22.232C1091.26 22.1307 1091 22.08 1090.71 22.08ZM1101.6 29C1101.34 29 1101.17 28.88 1101.09 28.64L1100.93 27.848C1100.76 28.04 1100.58 28.2133 1100.4 28.368C1100.21 28.5227 1100.01 28.656 1099.79 28.768C1099.58 28.88 1099.34 28.9653 1099.09 29.024C1098.85 29.088 1098.58 29.12 1098.29 29.12C1097.85 29.12 1097.43 29.0267 1097.06 28.84C1096.69 28.6533 1096.37 28.384 1096.09 28.032C1095.83 27.6747 1095.62 27.2347 1095.47 26.712C1095.33 26.1893 1095.25 25.592 1095.25 24.92C1095.25 24.312 1095.34 23.7467 1095.5 23.224C1095.67 22.7013 1095.9 22.248 1096.21 21.864C1096.52 21.48 1096.89 21.1813 1097.33 20.968C1097.76 20.7493 1098.24 20.64 1098.78 20.64C1099.24 20.64 1099.63 20.7147 1099.96 20.864C1100.28 21.008 1100.57 21.2027 1100.83 21.448V17.112H1102.81V29H1101.6ZM1098.97 27.552C1099.38 27.552 1099.73 27.4667 1100.01 27.296C1100.3 27.1253 1100.57 26.8827 1100.83 26.568V22.888C1100.61 22.616 1100.36 22.424 1100.09 22.312C1099.83 22.2 1099.55 22.144 1099.25 22.144C1098.95 22.144 1098.67 22.2 1098.43 22.312C1098.19 22.424 1097.98 22.5947 1097.81 22.824C1097.65 23.048 1097.52 23.336 1097.43 23.688C1097.34 24.0347 1097.29 24.4453 1097.29 24.92C1097.29 25.4 1097.33 25.808 1097.41 26.144C1097.49 26.4747 1097.6 26.7467 1097.74 26.96C1097.89 27.168 1098.06 27.32 1098.27 27.416C1098.48 27.5067 1098.71 27.552 1098.97 27.552ZM1116.3 17.432V19.2H1112.82V29H1110.67V19.2H1107.18V17.432H1116.3ZM1116.27 29V20.792H1117.43C1117.64 20.792 1117.78 20.8293 1117.86 20.904C1117.94 20.9787 1117.99 21.1067 1118.02 21.288L1118.14 22.28C1118.43 21.7733 1118.78 21.3733 1119.17 21.08C1119.57 20.7867 1120.01 20.64 1120.5 20.64C1120.9 20.64 1121.24 20.7333 1121.51 20.92L1121.25 22.4C1121.23 22.496 1121.2 22.5653 1121.15 22.608C1121.09 22.6453 1121.02 22.664 1120.93 22.664C1120.85 22.664 1120.74 22.6453 1120.6 22.608C1120.46 22.5707 1120.28 22.552 1120.05 22.552C1119.64 22.552 1119.29 22.6667 1118.99 22.896C1118.7 23.12 1118.45 23.4507 1118.25 23.888V29H1116.27ZM1129 29H1128.12C1127.93 29 1127.78 28.9733 1127.68 28.92C1127.57 28.8613 1127.49 28.7467 1127.44 28.576L1127.26 27.992C1127.05 28.1787 1126.85 28.344 1126.64 28.488C1126.45 28.6267 1126.24 28.744 1126.03 28.84C1125.81 28.936 1125.59 29.008 1125.35 29.056C1125.11 29.104 1124.84 29.128 1124.55 29.128C1124.2 29.128 1123.88 29.0827 1123.59 28.992C1123.29 28.896 1123.04 28.7547 1122.83 28.568C1122.62 28.3813 1122.46 28.1493 1122.34 27.872C1122.22 27.5947 1122.16 27.272 1122.16 26.904C1122.16 26.5947 1122.24 26.2907 1122.4 25.992C1122.57 25.688 1122.84 25.416 1123.22 25.176C1123.6 24.9307 1124.1 24.728 1124.73 24.568C1125.36 24.408 1126.14 24.3173 1127.08 24.296V23.816C1127.08 23.2667 1126.96 22.8613 1126.72 22.6C1126.49 22.3333 1126.16 22.2 1125.72 22.2C1125.4 22.2 1125.13 22.2373 1124.92 22.312C1124.7 22.3867 1124.52 22.472 1124.36 22.568C1124.2 22.6587 1124.06 22.7413 1123.92 22.816C1123.79 22.8907 1123.64 22.928 1123.48 22.928C1123.35 22.928 1123.24 22.8933 1123.14 22.824C1123.04 22.7547 1122.97 22.6693 1122.91 22.568L1122.55 21.936C1123.49 21.072 1124.63 20.64 1125.96 20.64C1126.44 20.64 1126.87 20.72 1127.24 20.88C1127.62 21.0347 1127.94 21.2533 1128.2 21.536C1128.46 21.8133 1128.66 22.1467 1128.8 22.536C1128.93 22.9253 1129 23.352 1129 23.816V29ZM1125.16 27.768C1125.37 27.768 1125.55 27.7493 1125.72 27.712C1125.89 27.6747 1126.05 27.6187 1126.2 27.544C1126.36 27.4693 1126.5 27.3787 1126.64 27.272C1126.79 27.16 1126.93 27.0293 1127.08 26.88V25.496C1126.5 25.5227 1126.02 25.5733 1125.63 25.648C1125.24 25.7173 1124.93 25.808 1124.7 25.92C1124.46 26.032 1124.3 26.1627 1124.2 26.312C1124.1 26.4613 1124.05 26.624 1124.05 26.8C1124.05 27.1467 1124.15 27.3947 1124.36 27.544C1124.56 27.6933 1124.83 27.768 1125.16 27.768ZM1131.3 29V22.28L1130.59 22.168C1130.43 22.1413 1130.31 22.088 1130.21 22.008C1130.12 21.928 1130.07 21.816 1130.07 21.672V20.864H1131.3V20.256C1131.3 19.7867 1131.37 19.3653 1131.51 18.992C1131.65 18.6187 1131.85 18.3013 1132.11 18.04C1132.38 17.7787 1132.7 17.5787 1133.08 17.44C1133.46 17.3013 1133.89 17.232 1134.36 17.232C1134.74 17.232 1135.09 17.2827 1135.42 17.384L1135.38 18.376C1135.37 18.5307 1135.3 18.6267 1135.16 18.664C1135.03 18.7013 1134.87 18.72 1134.7 18.72C1134.46 18.72 1134.25 18.7467 1134.07 18.8C1133.89 18.848 1133.73 18.936 1133.6 19.064C1133.47 19.1867 1133.38 19.352 1133.31 19.56C1133.24 19.7627 1133.21 20.016 1133.21 20.32V20.864H1135.35V22.272H1133.27V29H1131.3ZM1136.91 29V22.28L1136.2 22.168C1136.04 22.1413 1135.92 22.088 1135.82 22.008C1135.73 21.928 1135.68 21.816 1135.68 21.672V20.864H1136.91V20.6C1136.91 20.0987 1136.99 19.6347 1137.16 19.208C1137.32 18.776 1137.57 18.4027 1137.91 18.088C1138.24 17.7733 1138.67 17.528 1139.18 17.352C1139.69 17.1707 1140.3 17.08 1141 17.08C1141.22 17.08 1141.45 17.0933 1141.68 17.12C1141.92 17.1413 1142.12 17.1787 1142.29 17.232L1142.23 18.256C1142.22 18.3787 1142.15 18.4533 1142.03 18.48C1141.91 18.5013 1141.75 18.512 1141.57 18.512C1141.05 18.512 1140.62 18.5573 1140.27 18.648C1139.92 18.7387 1139.64 18.8747 1139.42 19.056C1139.21 19.232 1139.05 19.456 1138.96 19.728C1138.87 19.9947 1138.82 20.3067 1138.82 20.664V20.864H1143.91V29H1141.93V22.272H1138.88V29H1136.91ZM1151.93 22.528C1151.87 22.6027 1151.82 22.6613 1151.76 22.704C1151.7 22.7467 1151.62 22.768 1151.52 22.768C1151.42 22.768 1151.32 22.7387 1151.22 22.68C1151.13 22.616 1151.01 22.5467 1150.88 22.472C1150.74 22.392 1150.58 22.3227 1150.4 22.264C1150.22 22.2 1149.99 22.168 1149.72 22.168C1149.37 22.168 1149.07 22.232 1148.81 22.36C1148.54 22.4827 1148.33 22.6613 1148.15 22.896C1147.98 23.1307 1147.85 23.416 1147.77 23.752C1147.68 24.0827 1147.64 24.4587 1147.64 24.88C1147.64 25.3173 1147.68 25.7067 1147.77 26.048C1147.87 26.3893 1148.01 26.6773 1148.18 26.912C1148.36 27.1413 1148.57 27.3173 1148.82 27.44C1149.07 27.5573 1149.35 27.616 1149.67 27.616C1149.98 27.616 1150.24 27.5787 1150.43 27.504C1150.63 27.424 1150.79 27.3387 1150.93 27.248C1151.06 27.152 1151.17 27.0667 1151.27 26.992C1151.37 26.912 1151.48 26.872 1151.61 26.872C1151.77 26.872 1151.89 26.9333 1151.97 27.056L1152.53 27.776C1152.31 28.032 1152.08 28.248 1151.82 28.424C1151.57 28.5947 1151.3 28.7333 1151.02 28.84C1150.75 28.9413 1150.47 29.0133 1150.17 29.056C1149.88 29.0987 1149.59 29.12 1149.3 29.12C1148.79 29.12 1148.32 29.0267 1147.87 28.84C1147.42 28.648 1147.03 28.3707 1146.69 28.008C1146.36 27.6453 1146.1 27.2027 1145.9 26.68C1145.71 26.152 1145.61 25.552 1145.61 24.88C1145.61 24.2773 1145.7 23.72 1145.87 23.208C1146.05 22.6907 1146.3 22.2453 1146.64 21.872C1146.97 21.4933 1147.39 21.1973 1147.89 20.984C1148.38 20.7707 1148.95 20.664 1149.6 20.664C1150.21 20.664 1150.75 20.7627 1151.21 20.96C1151.67 21.1573 1152.09 21.44 1152.45 21.808L1151.93 22.528Z" fill="#9A9CA5"/>
</svg>
